<?xml version="1.0" encoding="UTF-8" standalone="no"?><svg xmlns="http://www.w3.org/2000/svg" xmlns:xlink="http://www.w3.org/1999/xlink" clip-rule="evenodd" stroke-miterlimit="10" viewBox="0 0 1920 1080"><desc>SVG generated by Keynote</desc><defs></defs><g transform="matrix(1.00, 0.00, -0.00, -1.00, 0.0, 1080.0)"><path d="M 0.0 1080.0 L 1920.0 1080.0 L 1920.0 0.0 L 0.0 0.0 Z M 0.0 1080.0 " fill="#E67D21"></path><image xlink:href="../../1036BBAC-AF11-4050-B878-0536E15F66E2/assets/45C5349F131D11F5E12268A2EADCDA50.png" width="1752.00" height="1918.00" transform="matrix(0.56, 0.00, -0.00, -0.56, -35.0, 1050.0)"></image><g><clipPath id="clip0x610000ab9800"><path d="M 865.0 1081.0 L 1961.0 1081.0 L 1961.0 543.0 L 865.0 543.0 Z M 865.2 1080.8 "></path></clipPath><g clip-path="url(#clip0x610000ab9800)"><g><clipPath id="clip0x610000ab9aa0"><path d="M 865.2 542.7 L 1961.0 542.7 L 1961.0 1080.8 L 865.2 1080.8 Z M 865.2 542.7 "></path></clipPath><g clip-path="url(#clip0x610000ab9aa0)"><image xlink:href="../../1036BBAC-AF11-4050-B878-0536E15F66E2/assets/3AF65FF25CCD7653BAF95B13ACD9344C.png" width="1946.00" height="1918.00" transform="matrix(0.56, 0.00, -0.00, -0.56, 865.0, 1081.0)"></image></g></g></g></g><g><clipPath id="clip0x618000ca0120"><path d="M 865.0 543.0 L 1961.0 543.0 L 1961.0 -1.0 L 865.0 -1.0 Z M 865.2 542.7 "></path></clipPath><g clip-path="url(#clip0x618000ca0120)"><g><clipPath id="clip0x618000ca0480"><path d="M 865.2 -0.8 L 1961.0 -0.8 L 1961.0 542.7 L 865.2 542.7 Z M 865.2 -0.8 "></path></clipPath><g clip-path="url(#clip0x618000ca0480)"><image xlink:href="../../1036BBAC-AF11-4050-B878-0536E15F66E2/assets/2BA947234967FC188B4F8B8F7B4AAEC3.png" width="1946.00" height="1918.00" transform="matrix(0.56, 0.00, -0.00, -0.56, 865.0, 1028.0)"></image></g></g></g></g></g></svg>