<?xml version="1.0" encoding="UTF-8" standalone="no"?><svg xmlns="http://www.w3.org/2000/svg" xmlns:xlink="http://www.w3.org/1999/xlink" clip-rule="evenodd" stroke-miterlimit="10" viewBox="0 0 1920 1080"><desc>SVG generated by Keynote</desc><defs></defs><g transform="matrix(1.00, 0.00, -0.00, -1.00, 0.0, 1080.0)"><path d="M 0.0 1080.0 L 1920.0 1080.0 L 1920.0 0.0 L 0.0 0.0 Z M 0.0 1080.0 " fill="#3498DA"></path><g><clipPath id="clip0x618000ca0960"><path d="M 34.7 906.7 L 1001.5 906.7 L 1001.5 -60.5 L 34.7 -60.5 Z M 34.7 906.7 "></path></clipPath><g clip-path="url(#clip0x618000ca0960)"><g><clipPath id="clip0x6180004acc60"><path d="M 256.0 269.0 L 819.0 269.0 L 819.0 855.0 L 256.0 855.0 Z M 256.0 269.0 "></path></clipPath><g clip-path="url(#clip0x6180004acc60)"><path d="M 782.4 519.7 C 770.9 514.2 758.0 511.3 744.6 511.3 C 733.7 511.3 723.0 513.3 712.9 517.1 C 706.1 519.7 699.9 523.0 694.2 527.1 C 679.5 515.2 660.3 508.4 640.1 508.4 C 622.9 508.4 606.4 513.3 592.7 522.2 C 577.9 509.7 558.3 502.6 537.5 502.6 C 516.7 502.6 497.0 509.7 482.3 522.2 C 468.6 513.3 452.1 508.4 434.9 508.4 C 414.7 508.4 395.4 515.2 380.8 527.1 C 375.1 523.0 368.9 519.7 362.1 517.1 C 352.1 513.3 341.4 511.3 330.4 511.3 C 317.0 511.3 304.1 514.2 292.5 519.7 L 256.1 280.4 C 255.2 274.4 259.8 269.1 265.8 269.1 L 462.4 269.0 C 470.0 269.0 476.8 273.8 479.5 280.9 L 528.9 421.5 C 531.8 429.7 543.3 429.7 546.2 421.5 L 595.5 280.9 C 598.1 273.8 605.0 269.0 612.6 269.0 L 809.2 269.1 C 815.1 269.1 819.8 274.4 818.9 280.4 Z M 782.4 519.7 " fill="#FFFFFF"></path><path d="M 295.5 538.8 C 305.4 533.0 317.4 529.6 330.4 529.6 C 348.3 529.6 364.4 536.1 375.7 546.6 C 377.2 548.0 379.2 548.7 381.1 548.7 C 383.3 548.7 385.4 547.9 387.0 546.2 C 398.3 534.3 415.5 526.7 434.9 526.7 C 451.7 526.7 466.9 532.5 478.0 541.8 C 479.5 543.1 481.3 543.7 483.1 543.7 C 485.3 543.7 487.4 542.8 489.0 541.1 C 500.3 528.8 517.8 521.0 537.5 521.0 C 557.1 521.0 574.7 528.8 586.0 541.1 C 587.6 542.8 589.7 543.7 591.8 543.7 C 593.7 543.7 595.5 543.1 597.0 541.8 C 608.1 532.5 623.3 526.7 640.1 526.7 C 659.4 526.7 676.6 534.3 688.0 546.2 C 689.6 547.9 691.7 548.7 693.9 548.7 C 695.8 548.7 697.7 548.0 699.3 546.6 C 710.6 536.1 726.7 529.6 744.6 529.6 C 757.5 529.6 769.6 533.0 779.5 538.8 C 795.7 548.4 806.3 564.4 806.3 582.4 L 806.3 637.3 L 268.6 637.3 L 268.6 582.4 C 268.6 564.3 279.2 548.4 295.5 538.8 " fill="#FFFFFF"></path><path d="M 796.6 659.6 L 555.8 789.0 L 555.8 799.4 L 555.8 809.8 L 555.8 836.7 C 555.8 846.8 547.6 855.0 537.5 855.0 C 527.4 855.0 519.2 846.8 519.2 836.7 L 519.2 809.8 L 519.2 799.4 L 519.2 789.0 L 278.4 659.6 C 277.0 658.8 275.6 657.9 274.5 656.8 L 800.5 656.8 C 799.4 657.9 798.1 658.8 796.6 659.6 " fill="#FFFFFF"></path></g></g></g></g><g><clipPath id="clip0x618000ca5be0"><path d="M 602.7 600.5 L 1152.1 600.5 L 1152.1 50.4 L 602.7 50.4 Z M 602.7 600.5 "></path></clipPath><g clip-path="url(#clip0x618000ca5be0)"><g><clipPath id="clip0x618000ca2ca0"><path d="M 744.0 297.0 L 1088.0 297.0 L 1088.0 573.7 L 744.0 573.7 Z M 744.0 297.0 "></path></clipPath><g clip-path="url(#clip0x618000ca2ca0)"><path d="M 965.1 406.5 C 965.1 406.5 791.2 451.3 744.3 297.0 C 744.3 297.0 727.4 518.1 965.1 518.1 L 965.1 574.0 L 1088.0 463.7 L 965.1 349.8 Z M 965.1 406.5 " fill="#FFFFFF"></path></g></g></g></g><g><clipPath id="clip0x618000ca49e0"><path d="M 992.0 195.8 L 1724.3 195.8 L 1724.3 928.1 L 992.0 928.1 Z M 992.0 195.8 "></path></clipPath><g clip-path="url(#clip0x618000ca49e0)"><image xlink:href="../../6A3F3D90-9F28-4368-8BC7-40BC671071B0/assets/667B312F86AB716B2E2BFC20535CA558.png" width="1200.00" height="1200.00" transform="matrix(0.61, 0.00, -0.00, -0.61, 992.0, 928.0)"></image></g></g><g><clipPath id="clip0x6000008bdd60"><path d="M 1229.1 433.5 L 1487.0 433.5 L 1487.0 690.0 L 1229.1 690.0 Z M 1229.1 433.5 "></path></clipPath><g clip-path="url(#clip0x6000008bdd60)"><path d="M 1333.6 561.1 L 1357.0 537.7 L 1252.4 433.0 L 1229.0 456.4 Z M 1333.6 561.1 " fill="#FFFFFF"></path><path d="M 1365.4 593.0 L 1388.8 569.6 L 1363.1 543.9 L 1339.7 567.2 Z M 1365.4 593.0 " fill="#FFFFFF"></path><path d="M 1361.2 654.9 L 1372.2 645.4 L 1386.2 649.1 L 1380.6 635.7 L 1388.4 623.5 L 1374.0 624.7 L 1364.8 613.5 L 1361.5 627.6 L 1348.0 632.9 L 1360.4 640.4 Z M 1361.2 654.9 " fill="#FFFFFF"></path><path d="M 1482.2 682.1 L 1474.0 660.6 L 1487.0 641.6 L 1464.0 642.8 L 1450.0 624.5 L 1444.1 646.7 L 1422.4 654.4 L 1441.6 667.0 L 1442.2 690.0 L 1460.1 675.5 Z M 1482.2 682.1 " fill="#FFFFFF"></path><path d="M 1447.1 599.5 L 1446.9 590.5 L 1454.2 585.3 L 1445.6 582.7 L 1442.9 574.2 L 1437.8 581.5 L 1428.8 581.5 L 1434.2 588.6 L 1431.4 597.1 L 1439.9 594.2 Z M 1447.1 599.5 " fill="#FFFFFF"></path></g></g></g></svg>