<?xml version="1.0" encoding="UTF-8" standalone="no"?><svg xmlns="http://www.w3.org/2000/svg" xmlns:xlink="http://www.w3.org/1999/xlink" clip-rule="evenodd" stroke-miterlimit="10" viewBox="0 0 1044 1048"><desc>SVG generated by Keynote</desc><defs></defs><g transform="matrix(1.00, 0.00, -0.00, -1.00, 0.0, 1048.0)"><image xlink:href="9A56D271CD4B7AE8E9C36C0207671254.png" width="1041.00" height="1041.00" transform="matrix(1.00, 0.00, -0.00, -1.00, 1.5, 1042.4)" opacity="0.20"></image><g><clipPath id="clip0x610000aa09c0"><path d="M -392.5 1151.2 L 1390.2 1151.2 L 1390.2 -631.5 L -392.5 -631.5 Z M -392.5 1151.2 "></path></clipPath><g clip-path="url(#clip0x610000aa09c0)"><g><clipPath id="clip0x6100008b0ce0"><path d="M 7.0 9.0 L 1037.0 9.0 L 1037.0 1039.0 L 7.0 1039.0 Z M 7.0 9.0 "></path></clipPath><g clip-path="url(#clip0x6100008b0ce0)"><path d="M 7.0 524.0 C 7.0 239.4 237.7 9.0 522.0 9.0 C 806.3 9.0 1037.0 239.4 1037.0 524.0 C 1037.0 808.6 806.3 1039.0 522.0 1039.0 C 237.7 1039.0 7.0 808.6 7.0 524.0 M 282.6 188.5 C 287.6 191.6 292.9 196.1 298.7 201.9 L 857.3 760.5 L 858.3 761.6 C 904.3 695.1 930.9 613.6 930.9 524.0 C 930.8 292.0 754.0 113.6 522.0 113.6 C 431.4 113.6 349.1 140.9 282.6 188.5 M 775.0 849.3 L 771.6 846.1 L 213.0 287.5 C 206.4 280.9 201.7 274.9 198.5 269.4 C 144.7 339.0 113.2 427.8 113.2 525.6 C 113.2 757.9 288.1 934.4 520.4 934.4 C 617.9 934.4 705.7 903.2 775.0 849.3 " fill="#FFFFFF"></path></g></g></g></g></g></svg>