<?xml version="1.0" encoding="UTF-8" standalone="no"?><svg xmlns="http://www.w3.org/2000/svg" xmlns:xlink="http://www.w3.org/1999/xlink" clip-rule="evenodd" stroke-miterlimit="10" viewBox="0 0 1920 1080"><desc>SVG generated by Keynote</desc><defs></defs><g transform="matrix(1.00, 0.00, -0.00, -1.00, 0.0, 1080.0)"><path d="M 0.0 1080.0 L 1920.0 1080.0 L 1920.0 0.0 L 0.0 0.0 Z M 0.0 1080.0 " fill="#3498DA"></path><g><clipPath id="clip0x608000eaff00"><path d="M 763.9 697.5 L 1102.3 697.5 L 1102.3 357.8 L 763.9 357.8 Z M 763.9 697.5 "></path></clipPath><g clip-path="url(#clip0x608000eaff00)"><g><clipPath id="clip0x608000ea9f00"><path d="M 868.0 425.0 L 1007.0 425.0 L 1007.0 655.0 L 868.0 655.0 Z M 868.0 425.0 "></path></clipPath><g clip-path="url(#clip0x608000ea9f00)"><path d="M 983.5 575.4 L 983.5 535.1 C 983.5 509.1 962.9 487.9 937.5 487.9 C 912.1 487.9 891.5 509.1 891.5 535.1 L 891.5 575.4 L 868.0 575.4 L 868.0 535.1 C 868.0 500.2 893.0 471.1 925.7 465.4 L 925.7 448.6 L 899.3 448.6 L 899.3 425.0 L 975.7 425.0 L 975.7 448.6 L 949.2 448.6 L 949.2 465.4 C 982.0 471.1 1007.0 500.2 1007.0 535.1 L 1007.0 575.4 Z M 937.5 495.8 C 958.5 495.8 975.7 513.5 975.7 535.1 L 975.7 615.7 C 975.7 637.3 958.5 655.0 937.5 655.0 C 916.5 655.0 899.3 637.3 899.3 615.7 L 899.3 535.1 C 899.3 513.5 916.5 495.8 937.5 495.8 " fill="#FFFFFF"></path></g></g></g></g><g><clipPath id="clip0x6080008a4bc0"><path d="M 439.1 692.3 L 781.1 692.3 L 781.1 349.9 L 439.1 349.9 Z M 439.1 692.3 "></path></clipPath><g clip-path="url(#clip0x6080008a4bc0)"><g><clipPath id="clip0x608000ea8460"><path d="M 500.0 425.0 L 729.0 425.0 L 729.0 655.0 L 500.0 655.0 Z M 500.0 425.0 "></path></clipPath><g clip-path="url(#clip0x608000ea8460)"><path d="M 729.0 539.1 L 685.9 561.9 L 685.9 548.7 C 685.4 548.7 684.7 549.0 684.2 549.0 L 637.3 549.0 L 660.6 572.3 C 660.9 572.6 660.9 572.6 660.9 572.8 C 667.9 568.8 675.3 568.5 679.3 572.6 C 680.6 573.9 681.6 575.6 681.9 577.7 L 682.1 577.4 L 685.7 612.1 L 652.2 607.6 C 650.2 607.3 648.4 606.3 646.9 605.0 C 642.9 601.0 643.4 593.9 647.2 586.8 C 646.9 586.5 646.9 586.5 646.7 586.3 L 623.4 562.9 L 623.4 611.9 L 636.3 611.9 L 613.5 655.0 L 590.7 611.9 L 603.6 611.9 L 603.6 548.7 L 543.1 548.7 L 543.1 561.7 L 500.0 538.9 L 543.1 516.0 L 543.1 529.0 L 590.4 529.0 L 567.1 505.6 C 560.0 509.4 552.9 509.9 548.9 505.9 C 547.6 504.6 546.6 502.8 546.4 500.8 L 546.1 501.3 L 542.6 466.6 L 576.0 471.2 C 578.0 471.4 579.8 472.4 581.3 473.7 C 585.4 477.7 584.9 484.8 581.1 491.9 L 604.4 515.3 L 604.4 468.1 L 591.4 468.1 L 614.2 425.0 L 637.0 468.1 L 624.1 468.1 L 624.1 529.0 L 684.7 529.0 C 685.2 529.0 685.9 529.0 686.4 529.2 L 686.4 516.0 Z M 729.0 539.1 " fill="#FFFFFF"></path></g></g></g></g><g><clipPath id="clip0x608000eb0200"><path d="M 183.0 425.0 L 401.0 425.0 L 401.0 655.0 L 183.0 655.0 Z M 183.0 425.0 "></path></clipPath><g clip-path="url(#clip0x608000eb0200)"><path d="M 183.0 533.7 L 401.0 655.0 L 298.6 425.0 L 286.4 534.1 Z M 183.0 533.7 " fill="#FFFFFF"></path></g></g><g><clipPath id="clip0x608000eaee20"><path d="M 1142.7 656.1 L 1473.3 656.1 L 1473.3 423.9 L 1142.7 423.9 Z M 1142.7 656.1 "></path></clipPath><g clip-path="url(#clip0x608000eaee20)"><g><clipPath id="clip0x608000ea94e0"><path d="M 1146.0 425.0 L 1470.0 425.0 L 1470.0 655.0 L 1146.0 655.0 Z M 1146.0 425.0 "></path></clipPath><g clip-path="url(#clip0x608000ea94e0)"><path d="M 1284.8 448.2 L 1308.0 425.0 L 1331.2 448.2 C 1325.2 454.2 1317.0 457.9 1308.0 457.9 C 1299.0 457.9 1290.8 454.2 1284.8 448.2 " fill="#FFFFFF"></path><path d="M 1238.6 494.7 L 1261.7 471.5 C 1273.5 483.4 1289.9 490.7 1308.0 490.7 C 1326.1 490.7 1342.5 483.4 1354.3 471.5 L 1377.4 494.7 C 1359.6 512.5 1335.1 523.6 1308.0 523.6 C 1280.9 523.6 1256.4 512.5 1238.6 494.7 " fill="#FFFFFF"></path><path d="M 1192.3 541.1 L 1215.4 517.9 C 1239.1 541.7 1271.8 556.4 1308.0 556.4 C 1344.2 556.4 1376.9 541.7 1400.6 517.9 L 1423.7 541.1 C 1394.1 570.9 1353.1 589.3 1308.0 589.3 C 1262.9 589.3 1221.9 570.9 1192.3 541.1 " fill="#FFFFFF"></path><path d="M 1308.0 655.0 C 1244.8 655.0 1187.5 629.2 1146.0 587.6 L 1169.1 564.4 C 1204.6 600.1 1253.8 622.1 1308.0 622.1 C 1362.2 622.1 1411.4 600.1 1446.9 564.4 L 1470.0 587.6 C 1428.5 629.2 1371.2 655.0 1308.0 655.0 " fill="#FFFFFF"></path></g></g></g></g><g><clipPath id="clip0x608000eb6ce0"><path d="M 1481.9 669.9 L 1859.4 669.9 L 1859.4 292.5 L 1481.9 292.5 Z M 1481.9 669.9 "></path></clipPath><g clip-path="url(#clip0x608000eb6ce0)"><g><clipPath id="clip0x608000eab3a0"><path d="M 1609.0 425.0 L 1737.0 425.0 L 1737.0 655.0 L 1609.0 655.0 Z M 1609.0 425.0 "></path></clipPath><g clip-path="url(#clip0x608000eab3a0)"><path d="M 1702.2 498.9 L 1685.4 482.0 L 1685.4 515.7 Z M 1685.4 563.9 L 1685.4 598.2 L 1702.6 581.1 Z M 1735.4 501.3 L 1696.9 539.8 L 1735.6 578.5 C 1735.7 578.6 1735.8 578.7 1735.9 578.8 L 1736.2 579.1 C 1737.3 580.2 1737.3 582.0 1736.2 583.1 L 1665.0 654.2 C 1664.2 655.0 1663.0 655.2 1662.0 654.8 C 1660.9 654.4 1660.2 653.3 1660.2 652.2 L 1660.2 625.6 C 1660.2 625.5 1660.2 625.3 1660.2 625.1 L 1660.2 576.5 L 1627.6 609.0 C 1626.6 610.1 1624.7 610.1 1623.7 609.0 L 1609.8 595.2 C 1608.7 594.1 1608.7 592.3 1609.8 591.2 L 1660.2 540.9 L 1660.2 538.7 L 1609.8 488.4 C 1608.7 487.3 1608.7 485.5 1609.8 484.4 L 1623.7 470.6 C 1624.7 469.5 1626.6 469.5 1627.6 470.6 L 1660.2 503.1 L 1660.2 456.6 C 1660.0 456.3 1660.0 455.9 1660.0 455.5 L 1660.0 427.8 C 1660.0 426.7 1660.7 425.6 1661.7 425.2 C 1662.0 425.1 1662.4 425.0 1662.8 425.0 C 1663.5 425.0 1664.2 425.3 1664.7 425.8 L 1735.8 496.8 C 1736.9 497.9 1736.9 499.7 1735.8 500.8 C 1735.7 501.0 1735.5 501.2 1735.4 501.3 " fill="#FFFFFF"></path></g></g></g></g></g></svg>