<?xml version="1.0" encoding="UTF-8" standalone="no"?><svg xmlns="http://www.w3.org/2000/svg" xmlns:xlink="http://www.w3.org/1999/xlink" clip-rule="evenodd" stroke-miterlimit="10" viewBox="0 0 1920 1080"><desc>SVG generated by Keynote</desc><defs></defs><g transform="matrix(1.00, 0.00, -0.00, -1.00, 0.0, 1080.0)"><path d="M 0.0 1080.0 L 1920.0 1080.0 L 1920.0 0.0 L 0.0 0.0 Z M 0.0 1080.0 " fill="#E67D21"></path><text xml:space="preserve" font-family="OtterFont,OtterFont" font-size="101.0" fill="#FEFFFF" transform="matrix(1.00, 0.00, -0.00, -1.00, 292.7, 568.9)">e</text><text xml:space="preserve" font-family="OtterFont,OtterFont" font-size="101.0" fill="#FEFFFF" transform="matrix(1.00, 0.00, -0.00, -1.00, 345.5, 568.9)">n</text><text xml:space="preserve" font-family="OtterFont,OtterFont" font-size="101.0" fill="#FEFFFF" transform="matrix(1.00, 0.00, -0.00, -1.00, 400.9, 568.9)">a</text><text xml:space="preserve" font-family="OtterFont,OtterFont" font-size="101.0" fill="#FEFFFF" transform="matrix(1.00, 0.00, -0.00, -1.00, 461.2, 568.9)">b</text><text xml:space="preserve" font-family="OtterFont,OtterFont" font-size="101.0" fill="#FEFFFF" transform="matrix(1.00, 0.00, -0.00, -1.00, 525.6, 568.9)">l</text><text xml:space="preserve" font-family="OtterFont,OtterFont" font-size="101.0" fill="#FEFFFF" transform="matrix(1.00, 0.00, -0.00, -1.00, 578.7, 568.9)">e</text><text xml:space="preserve" font-family="OtterFont,OtterFont" font-size="101.0" fill="#FEFFFF" transform="matrix(1.00, 0.00, -0.00, -1.00, 631.5, 568.9)"> </text><text xml:space="preserve" font-family="OtterFont,OtterFont" font-size="101.0" fill="#FEFFFF" transform="matrix(1.00, 0.00, -0.00, -1.00, 690.1, 568.9)">a</text><text xml:space="preserve" font-family="OtterFont,OtterFont" font-size="101.0" fill="#FEFFFF" transform="matrix(1.00, 0.00, -0.00, -1.00, 750.4, 568.9)">n</text><text xml:space="preserve" font-family="OtterFont,OtterFont" font-size="101.0" fill="#FEFFFF" transform="matrix(1.00, 0.00, -0.00, -1.00, 805.8, 568.9)">y</text><text xml:space="preserve" font-family="OtterFont,OtterFont" font-size="101.0" fill="#FEFFFF" transform="matrix(1.00, 0.00, -0.00, -1.00, 859.6, 568.9)">o</text><text xml:space="preserve" font-family="OtterFont,OtterFont" font-size="101.0" fill="#FEFFFF" transform="matrix(1.00, 0.00, -0.00, -1.00, 921.9, 568.9)">n</text><text xml:space="preserve" font-family="OtterFont,OtterFont" font-size="101.0" fill="#FEFFFF" transform="matrix(1.00, 0.00, -0.00, -1.00, 977.3, 568.9)">e</text><text xml:space="preserve" font-family="OtterFont,OtterFont" font-size="101.0" fill="#FEFFFF" transform="matrix(1.00, 0.00, -0.00, -1.00, 1030.1, 568.9)"> </text><text xml:space="preserve" font-family="OtterFont,OtterFont" font-size="101.0" fill="#FEFFFF" transform="matrix(1.00, 0.00, -0.00, -1.00, 1088.7, 568.9)">t</text><text xml:space="preserve" font-family="OtterFont,OtterFont" font-size="101.0" fill="#FEFFFF" transform="matrix(1.00, 0.00, -0.00, -1.00, 1147.4, 568.9)">o</text><text xml:space="preserve" font-family="OtterFont,OtterFont" font-size="101.0" fill="#FEFFFF" transform="matrix(1.00, 0.00, -0.00, -1.00, 1209.7, 568.9)"> </text><text xml:space="preserve" font-family="OtterFont,OtterFont" font-size="101.0" fill="#FEFFFF" transform="matrix(1.00, 0.00, -0.00, -1.00, 1268.3, 568.9)">c</text><text xml:space="preserve" font-family="OtterFont,OtterFont" font-size="101.0" fill="#FEFFFF" transform="matrix(1.00, 0.00, -0.00, -1.00, 1337.4, 568.9)">r</text><text xml:space="preserve" font-family="OtterFont,OtterFont" font-size="101.0" fill="#FEFFFF" transform="matrix(1.00, 0.00, -0.00, -1.00, 1402.7, 568.9)">e</text><text xml:space="preserve" font-family="OtterFont,OtterFont" font-size="101.0" fill="#FEFFFF" transform="matrix(1.00, 0.00, -0.00, -1.00, 1455.5, 568.9)">a</text><text xml:space="preserve" font-family="OtterFont,OtterFont" font-size="101.0" fill="#FEFFFF" transform="matrix(1.00, 0.00, -0.00, -1.00, 1515.8, 568.9)">t</text><text xml:space="preserve" font-family="OtterFont,OtterFont" font-size="101.0" fill="#FEFFFF" transform="matrix(1.00, 0.00, -0.00, -1.00, 1574.5, 568.9)">e</text><text xml:space="preserve" font-family="OtterFont,OtterFont" font-size="86.0" fill="#FEFFFF" transform="matrix(1.00, 0.00, -0.00, -1.00, 1627.3, 568.9)"> </text><text xml:space="preserve" font-family="OtterFont,OtterFont" font-size="86.0" fill="#FEFFFF" transform="matrix(1.00, 0.00, -0.00, -1.00, 1677.2, 568.9)"> </text><text xml:space="preserve" font-family="OtterFont,OtterFont" font-size="141.0" fill="#FEFFFF" transform="matrix(1.00, 0.00, -0.00, -1.00, 417.1, 443.4)">E</text><text xml:space="preserve" font-family="OtterFont,OtterFont" font-size="141.0" fill="#FEFFFF" transform="matrix(1.00, 0.00, -0.00, -1.00, 508.9, 443.4)">V</text><text xml:space="preserve" font-family="OtterFont,OtterFont" font-size="141.0" fill="#FEFFFF" transform="matrix(1.00, 0.00, -0.00, -1.00, 597.6, 443.4)">E</text><text xml:space="preserve" font-family="OtterFont,OtterFont" font-size="141.0" fill="#FEFFFF" transform="matrix(1.00, 0.00, -0.00, -1.00, 689.4, 443.4)">R</text><text xml:space="preserve" font-family="OtterFont,OtterFont" font-size="141.0" fill="#FEFFFF" transform="matrix(1.00, 0.00, -0.00, -1.00, 794.1, 443.4)">Y</text><text xml:space="preserve" font-family="OtterFont,OtterFont" font-size="141.0" fill="#FEFFFF" transform="matrix(1.00, 0.00, -0.00, -1.00, 877.0, 443.4)">D</text><text xml:space="preserve" font-family="OtterFont,OtterFont" font-size="141.0" fill="#FEFFFF" transform="matrix(1.00, 0.00, -0.00, -1.00, 980.2, 443.4)">A</text><text xml:space="preserve" font-family="OtterFont,OtterFont" font-size="141.0" fill="#FEFFFF" transform="matrix(1.00, 0.00, -0.00, -1.00, 1072.3, 443.4)">Y</text><text xml:space="preserve" font-family="OtterFont,OtterFont" font-size="141.0" fill="#FEFFFF" transform="matrix(1.00, 0.00, -0.00, -1.00, 1155.2, 443.4)"> </text><text xml:space="preserve" font-family="OtterFont,OtterFont" font-size="141.0" fill="#FEFFFF" transform="matrix(1.00, 0.00, -0.00, -1.00, 1237.0, 443.4)">F</text><text xml:space="preserve" font-family="OtterFont,OtterFont" font-size="141.0" fill="#FEFFFF" transform="matrix(1.00, 0.00, -0.00, -1.00, 1323.7, 443.4)">U</text><text xml:space="preserve" font-family="OtterFont,OtterFont" font-size="141.0" fill="#FEFFFF" transform="matrix(1.00, 0.00, -0.00, -1.00, 1412.3, 443.4)">N</text></g></svg>