<?xml version="1.0" encoding="UTF-8" standalone="no"?><svg xmlns="http://www.w3.org/2000/svg" xmlns:xlink="http://www.w3.org/1999/xlink" clip-rule="evenodd" stroke-miterlimit="10" viewBox="0 0 1920 1080"><desc>SVG generated by Keynote</desc><defs></defs><g transform="matrix(1.00, 0.00, -0.00, -1.00, 0.0, 1080.0)"><path d="M 0.0 1080.0 L 1920.0 1080.0 L 1920.0 0.0 L 0.0 0.0 Z M 0.0 1080.0 " fill="#3498DA"></path><text xml:space="preserve" font-family="OtterFont,OtterFont" font-size="86.0" fill="#FEFFFF" transform="matrix(1.00, 0.00, -0.00, -1.00, 24.6, 510.0)">C</text><text xml:space="preserve" font-family="OtterFont,OtterFont" font-size="86.0" fill="#FEFFFF" transform="matrix(1.00, 0.00, -0.00, -1.00, 84.4, 510.0)">O</text><text xml:space="preserve" font-family="OtterFont,OtterFont" font-size="86.0" fill="#FEFFFF" transform="matrix(1.00, 0.00, -0.00, -1.00, 137.1, 510.0)">N</text><text xml:space="preserve" font-family="OtterFont,OtterFont" font-size="86.0" fill="#FEFFFF" transform="matrix(1.00, 0.00, -0.00, -1.00, 192.4, 510.0)">T</text><text xml:space="preserve" font-family="OtterFont,OtterFont" font-size="86.0" fill="#FEFFFF" transform="matrix(1.00, 0.00, -0.00, -1.00, 257.6, 510.0)">R</text><text xml:space="preserve" font-family="OtterFont,OtterFont" font-size="86.0" fill="#FEFFFF" transform="matrix(1.00, 0.00, -0.00, -1.00, 321.5, 510.0)">O</text><text xml:space="preserve" font-family="OtterFont,OtterFont" font-size="86.0" fill="#FEFFFF" transform="matrix(1.00, 0.00, -0.00, -1.00, 374.2, 510.0)">L</text><text xml:space="preserve" font-family="OtterFont,OtterFont" font-size="86.0" fill="#FEFFFF" transform="matrix(1.00, 0.00, -0.00, -1.00, 430.2, 510.0)">L</text><text xml:space="preserve" font-family="OtterFont,OtterFont" font-size="86.0" fill="#FEFFFF" transform="matrix(1.00, 0.00, -0.00, -1.00, 486.2, 510.0)">I</text><text xml:space="preserve" font-family="OtterFont,OtterFont" font-size="86.0" fill="#FEFFFF" transform="matrix(1.00, 0.00, -0.00, -1.00, 550.8, 510.0)">N</text><text xml:space="preserve" font-family="OtterFont,OtterFont" font-size="86.0" fill="#FEFFFF" transform="matrix(1.00, 0.00, -0.00, -1.00, 606.1, 510.0)">G</text><text xml:space="preserve" font-family="OtterFont,OtterFont" font-size="86.0" fill="#FEFFFF" transform="matrix(1.00, 0.00, -0.00, -1.00, 660.8, 510.0)"> </text><text xml:space="preserve" font-family="OtterFont,OtterFont" font-size="86.0" fill="#FEFFFF" transform="matrix(1.00, 0.00, -0.00, -1.00, 710.7, 510.0)">P</text><text xml:space="preserve" font-family="OtterFont,OtterFont" font-size="86.0" fill="#FEFFFF" transform="matrix(1.00, 0.00, -0.00, -1.00, 763.8, 510.0)">H</text><text xml:space="preserve" font-family="OtterFont,OtterFont" font-size="86.0" fill="#FEFFFF" transform="matrix(1.00, 0.00, -0.00, -1.00, 820.3, 510.0)">Y</text><text xml:space="preserve" font-family="OtterFont,OtterFont" font-size="86.0" fill="#FEFFFF" transform="matrix(1.00, 0.00, -0.00, -1.00, 870.8, 510.0)">S</text><text xml:space="preserve" font-family="OtterFont,OtterFont" font-size="86.0" fill="#FEFFFF" transform="matrix(1.00, 0.00, -0.00, -1.00, 932.7, 510.0)">I</text><text xml:space="preserve" font-family="OtterFont,OtterFont" font-size="86.0" fill="#FEFFFF" transform="matrix(1.00, 0.00, -0.00, -1.00, 997.3, 510.0)">C</text><text xml:space="preserve" font-family="OtterFont,OtterFont" font-size="86.0" fill="#FEFFFF" transform="matrix(1.00, 0.00, -0.00, -1.00, 1057.1, 510.0)">A</text><text xml:space="preserve" font-family="OtterFont,OtterFont" font-size="86.0" fill="#FEFFFF" transform="matrix(1.00, 0.00, -0.00, -1.00, 1113.3, 510.0)">L</text><text xml:space="preserve" font-family="OtterFont,OtterFont" font-size="86.0" fill="#FEFFFF" transform="matrix(1.00, 0.00, -0.00, -1.00, 1169.3, 510.0)"> </text><text xml:space="preserve" font-family="OtterFont,OtterFont" font-size="86.0" fill="#FEFFFF" transform="matrix(1.00, 0.00, -0.00, -1.00, 1219.1, 510.0)">S</text><text xml:space="preserve" font-family="OtterFont,OtterFont" font-size="86.0" fill="#FEFFFF" transform="matrix(1.00, 0.00, -0.00, -1.00, 1281.0, 510.0)">T</text><text xml:space="preserve" font-family="OtterFont,OtterFont" font-size="86.0" fill="#FEFFFF" transform="matrix(1.00, 0.00, -0.00, -1.00, 1346.2, 510.0)">U</text><text xml:space="preserve" font-family="OtterFont,OtterFont" font-size="86.0" fill="#FEFFFF" transform="matrix(1.00, 0.00, -0.00, -1.00, 1400.2, 510.0)">F</text><text xml:space="preserve" font-family="OtterFont,OtterFont" font-size="86.0" fill="#FEFFFF" transform="matrix(1.00, 0.00, -0.00, -1.00, 1453.1, 510.0)">F</text><text xml:space="preserve" font-family="OtterFont,OtterFont" font-size="86.0" fill="#FEFFFF" transform="matrix(1.00, 0.00, -0.00, -1.00, 1505.9, 510.0)"> </text><text xml:space="preserve" font-family="OtterFont,OtterFont" font-size="86.0" fill="#FEFFFF" transform="matrix(1.00, 0.00, -0.00, -1.00, 1555.8, 510.0)">I</text><text xml:space="preserve" font-family="OtterFont,OtterFont" font-size="86.0" fill="#FEFFFF" transform="matrix(1.00, 0.00, -0.00, -1.00, 1620.5, 510.0)">S</text><text xml:space="preserve" font-family="OtterFont,OtterFont" font-size="86.0" fill="#FEFFFF" transform="matrix(1.00, 0.00, -0.00, -1.00, 1682.3, 510.0)"> </text><text xml:space="preserve" font-family="OtterFont,OtterFont" font-size="86.0" fill="#FEFFFF" transform="matrix(1.00, 0.00, -0.00, -1.00, 1732.2, 510.0)">F</text><text xml:space="preserve" font-family="OtterFont,OtterFont" font-size="86.0" fill="#FEFFFF" transform="matrix(1.00, 0.00, -0.00, -1.00, 1785.1, 510.0)">U</text><text xml:space="preserve" font-family="OtterFont,OtterFont" font-size="86.0" fill="#FEFFFF" transform="matrix(1.00, 0.00, -0.00, -1.00, 1839.1, 510.0)">N</text></g></svg>