<?xml version="1.0" encoding="UTF-8" standalone="no"?><svg xmlns="http://www.w3.org/2000/svg" xmlns:xlink="http://www.w3.org/1999/xlink" clip-rule="evenodd" stroke-miterlimit="10" viewBox="0 0 1920 1080"><desc>SVG generated by Keynote</desc><defs></defs><g transform="matrix(1.00, 0.00, -0.00, -1.00, 0.0, 1080.0)"><path d="M 0.0 1080.0 L 1920.0 1080.0 L 1920.0 0.0 L 0.0 0.0 Z M 0.0 1080.0 " fill="#E67D21"></path><g><clipPath id="clip0x600000eb2000"><path d="M 1261.8 979.0 L 1963.8 979.0 L 1963.8 1081.0 L 1261.8 1081.0 Z M 1261.8 979.0 "></path></clipPath><g clip-path="url(#clip0x600000eb2000)"><path d="M 1307.0 980.0 L 1306.8 980.0 L 1262.8 1030.0 L 1306.8 1080.0 L 1306.8 1080.0 L 1918.8 1080.0 L 1918.8 1080.0 L 1962.8 1030.0 L 1918.8 980.0 L 1918.8 980.0 Z M 1306.8 980.0 " fill="#E67D21"></path></g></g><g><clipPath id="clip0x600000eb2300"><path d="M -0.9 979.0 L 58.3 979.0 L 58.3 1081.0 L -0.9 1081.0 Z M -0.9 979.0 "></path></clipPath><g clip-path="url(#clip0x600000eb2300)"><path d="M 0.0 980.0 L 0.0 980.0 L 0.0 1030.0 L 0.0 1080.0 L 0.0 1080.0 L 57.3 1080.0 L 57.0 1080.0 L 57.0 1030.0 L 57.0 980.0 L 57.0 980.0 Z M 0.1 980.0 " fill="#3498DA"></path></g></g><g><clipPath id="clip0x600000eb2540"><path d="M 609.0 979.0 L 1363.2 979.0 L 1363.2 1081.0 L 609.0 1081.0 Z M 609.0 979.0 "></path></clipPath><g clip-path="url(#clip0x600000eb2540)"><path d="M 654.0 980.0 L 654.0 980.0 L 610.0 1030.0 L 654.0 1080.0 L 654.0 1080.0 L 1318.2 1080.0 L 1318.2 1080.0 L 1362.2 1030.0 L 1318.2 980.0 L 1318.2 980.0 Z M 654.0 980.0 " fill="#E67D21"></path></g></g><g><clipPath id="clip0x6080012a8100"><path d="M 9.7 979.0 L 711.7 979.0 L 711.7 1081.0 L 9.7 1081.0 Z M 9.7 979.0 "></path></clipPath><g clip-path="url(#clip0x6080012a8100)"><path d="M 55.0 980.0 L 54.7 980.0 L 10.7 1030.0 L 54.7 1080.0 L 54.7 1080.0 L 666.7 1080.0 L 666.7 1080.0 L 710.7 1030.0 L 666.7 980.0 L 666.7 980.0 Z M 54.7 980.0 " fill="#3498DA"></path></g></g><g><clipPath id="clip0x610000eade60"><path d="M 10.7 980.0 L 710.7 980.0 L 710.7 1080.0 L 10.7 1080.0 Z M 10.7 980.0 "></path></clipPath><g clip-path="url(#clip0x610000eade60)"><text xml:space="preserve" font-family="OtterFont,OtterFont" font-size="56.0" fill="#FEFFFE" transform="matrix(1.00, 0.00, -0.00, -1.00, 186.1, 1012.9)">F</text><text xml:space="preserve" font-family="OtterFont,OtterFont" font-size="56.0" fill="#FEFFFE" transform="matrix(1.00, 0.00, -0.00, -1.00, 220.6, 1012.9)">R</text><text xml:space="preserve" font-family="OtterFont,OtterFont" font-size="56.0" fill="#FEFFFE" transform="matrix(1.00, 0.00, -0.00, -1.00, 262.2, 1012.9)">A</text><text xml:space="preserve" font-family="OtterFont,OtterFont" font-size="56.0" fill="#FEFFFE" transform="matrix(1.00, 0.00, -0.00, -1.00, 298.8, 1012.9)">M</text><text xml:space="preserve" font-family="OtterFont,OtterFont" font-size="56.0" fill="#FEFFFE" transform="matrix(1.00, 0.00, -0.00, -1.00, 338.2, 1012.9)">E</text><text xml:space="preserve" font-family="OtterFont,OtterFont" font-size="56.0" fill="#FEFFFE" transform="matrix(1.00, 0.00, -0.00, -1.00, 374.6, 1012.9)">W</text><text xml:space="preserve" font-family="OtterFont,OtterFont" font-size="56.0" fill="#FEFFFE" transform="matrix(1.00, 0.00, -0.00, -1.00, 420.2, 1012.9)">O</text><text xml:space="preserve" font-family="OtterFont,OtterFont" font-size="56.0" fill="#FEFFFE" transform="matrix(1.00, 0.00, -0.00, -1.00, 454.5, 1012.9)">R</text><text xml:space="preserve" font-family="OtterFont,OtterFont" font-size="56.0" fill="#FEFFFE" transform="matrix(1.00, 0.00, -0.00, -1.00, 496.2, 1012.9)">K</text></g></g><image xlink:href="../../218BC3A4-86F1-41E0-989F-C4B0D1C7535B/assets/1A37459C5A7D463CCC54EA7EFEF35506.png" width="1840.00" height="2066.00" transform="matrix(0.69, 0.00, -0.00, -0.69, -37.0, 975.0)"></image><image xlink:href="../../218BC3A4-86F1-41E0-989F-C4B0D1C7535B/assets/B4954D8195EC82471091F7484C4C049D.png" width="584.00" height="588.00" transform="matrix(1.00, 0.00, -0.00, -1.00, 1261.3, 752.2)" opacity="0.50"></image><g><clipPath id="clip0x6080012a8880"><path d="M 1266.0 749.0 L 1840.0 749.0 L 1840.0 171.0 L 1266.0 171.0 Z M 1266.3 749.2 "></path></clipPath><g clip-path="url(#clip0x6080012a8880)"><image xlink:href="../../8419C143-CD57-4923-8133-DDCEB7F95776/assets/63337357FFB4408F969B6F2DDDC0497F.png" width="1675.00" height="1565.00" transform="matrix(0.51, 0.00, -0.00, -0.50, 1130.0, 772.0)"></image></g></g></g></svg>