<?xml version="1.0" encoding="UTF-8" standalone="no"?><svg xmlns="http://www.w3.org/2000/svg" xmlns:xlink="http://www.w3.org/1999/xlink" clip-rule="evenodd" stroke-miterlimit="10" viewBox="0 0 1920 1080"><desc>SVG generated by Keynote</desc><defs></defs><g transform="matrix(1.00, 0.00, -0.00, -1.00, 0.0, 1080.0)"><path d="M 0.0 1080.0 L 1920.0 1080.0 L 1920.0 0.0 L 0.0 0.0 Z M 0.0 1080.0 " fill="#E67D21"></path><image xlink:href="../../E1FF1C67-30C9-4925-802C-3D8787EA480B/assets/6EA4223B31407BBA2679688B9BCAD54A.png" width="2248.00" height="2380.00" transform="matrix(0.56, 0.00, -0.00, -0.56, -23.0, 980.0)"></image><image xlink:href="../../218BC3A4-86F1-41E0-989F-C4B0D1C7535B/assets/B4954D8195EC82471091F7484C4C049D.png" width="584.00" height="588.00" transform="matrix(1.00, 0.00, -0.00, -1.00, 1261.3, 752.2)" opacity="0.50"></image><g><clipPath id="clip0x608000ca3660"><path d="M 1266.0 749.0 L 1840.0 749.0 L 1840.0 171.0 L 1266.0 171.0 Z M 1266.3 749.2 "></path></clipPath><g clip-path="url(#clip0x608000ca3660)"><image xlink:href="../../8419C143-CD57-4923-8133-DDCEB7F95776/assets/63337357FFB4408F969B6F2DDDC0497F.png" width="1675.00" height="1565.00" transform="matrix(0.51, 0.00, -0.00, -0.50, 1130.0, 772.0)"></image></g></g><image xlink:href="../../E1FF1C67-30C9-4925-802C-3D8787EA480B/assets/C495FC21065BDE4D53226BE4E36353F3.png" width="1372.00" height="844.00" transform="matrix(0.42, 0.00, -0.00, -0.42, 587.0, 382.0)"></image><image xlink:href="../../E1FF1C67-30C9-4925-802C-3D8787EA480B/assets/D0493F27D5B99F7F70795A0C63359892.png" width="768.00" height="604.00" transform="matrix(0.53, 0.00, -0.00, -0.53, 733.0, 314.0)"></image><g><clipPath id="clip0x608000ca3780"><path d="M 1261.8 979.0 L 1963.8 979.0 L 1963.8 1081.0 L 1261.8 1081.0 Z M 1261.8 979.0 "></path></clipPath><g clip-path="url(#clip0x608000ca3780)"><path d="M 1307.0 980.0 L 1306.8 980.0 L 1262.8 1030.0 L 1306.8 1080.0 L 1306.8 1080.0 L 1918.8 1080.0 L 1918.8 1080.0 L 1962.8 1030.0 L 1918.8 980.0 L 1918.8 980.0 Z M 1306.8 980.0 " fill="#E67D21"></path></g></g><g><clipPath id="clip0x608000ca31e0"><path d="M -0.9 979.0 L 58.3 979.0 L 58.3 1081.0 L -0.9 1081.0 Z M -0.9 979.0 "></path></clipPath><g clip-path="url(#clip0x608000ca31e0)"><path d="M 0.0 980.0 L 0.0 980.0 L 0.0 1030.0 L 0.0 1080.0 L 0.0 1080.0 L 57.3 1080.0 L 57.0 1080.0 L 57.0 1030.0 L 57.0 980.0 L 57.0 980.0 Z M 0.1 980.0 " fill="#3498DA"></path></g></g><g><clipPath id="clip0x608000ca3420"><path d="M 609.0 979.0 L 1363.2 979.0 L 1363.2 1081.0 L 609.0 1081.0 Z M 609.0 979.0 "></path></clipPath><g clip-path="url(#clip0x608000ca3420)"><path d="M 654.0 980.0 L 654.0 980.0 L 610.0 1030.0 L 654.0 1080.0 L 654.0 1080.0 L 1318.2 1080.0 L 1318.2 1080.0 L 1362.2 1030.0 L 1318.2 980.0 L 1318.2 980.0 Z M 654.0 980.0 " fill="#E67D21"></path></g></g><g><clipPath id="clip0x608000ca36c0"><path d="M 9.7 979.0 L 711.7 979.0 L 711.7 1081.0 L 9.7 1081.0 Z M 9.7 979.0 "></path></clipPath><g clip-path="url(#clip0x608000ca36c0)"><path d="M 55.0 980.0 L 54.7 980.0 L 10.7 1030.0 L 54.7 1080.0 L 54.7 1080.0 L 666.7 1080.0 L 666.7 1080.0 L 710.7 1030.0 L 666.7 980.0 L 666.7 980.0 Z M 54.7 980.0 " fill="#3498DA"></path></g></g><g><clipPath id="clip0x608000ca3960"><path d="M 10.7 980.0 L 710.7 980.0 L 710.7 1080.0 L 10.7 1080.0 Z M 10.7 980.0 "></path></clipPath><g clip-path="url(#clip0x608000ca3960)"><text xml:space="preserve" font-family="OtterFont,OtterFont" font-size="56.0" fill="#FEFFFE" transform="matrix(1.00, 0.00, -0.00, -1.00, 186.1, 1012.9)">F</text><text xml:space="preserve" font-family="OtterFont,OtterFont" font-size="56.0" fill="#FEFFFE" transform="matrix(1.00, 0.00, -0.00, -1.00, 220.6, 1012.9)">R</text><text xml:space="preserve" font-family="OtterFont,OtterFont" font-size="56.0" fill="#FEFFFE" transform="matrix(1.00, 0.00, -0.00, -1.00, 262.2, 1012.9)">A</text><text xml:space="preserve" font-family="OtterFont,OtterFont" font-size="56.0" fill="#FEFFFE" transform="matrix(1.00, 0.00, -0.00, -1.00, 298.8, 1012.9)">M</text><text xml:space="preserve" font-family="OtterFont,OtterFont" font-size="56.0" fill="#FEFFFE" transform="matrix(1.00, 0.00, -0.00, -1.00, 338.2, 1012.9)">E</text><text xml:space="preserve" font-family="OtterFont,OtterFont" font-size="56.0" fill="#FEFFFE" transform="matrix(1.00, 0.00, -0.00, -1.00, 374.6, 1012.9)">W</text><text xml:space="preserve" font-family="OtterFont,OtterFont" font-size="56.0" fill="#FEFFFE" transform="matrix(1.00, 0.00, -0.00, -1.00, 420.2, 1012.9)">O</text><text xml:space="preserve" font-family="OtterFont,OtterFont" font-size="56.0" fill="#FEFFFE" transform="matrix(1.00, 0.00, -0.00, -1.00, 454.5, 1012.9)">R</text><text xml:space="preserve" font-family="OtterFont,OtterFont" font-size="56.0" fill="#FEFFFE" transform="matrix(1.00, 0.00, -0.00, -1.00, 496.2, 1012.9)">K</text></g></g><g><clipPath id="clip0x608000ca3ea0"><path d="M 1261.8 979.0 L 1963.8 979.0 L 1963.8 1081.0 L 1261.8 1081.0 Z M 1261.8 979.0 "></path></clipPath><g clip-path="url(#clip0x608000ca3ea0)"><path d="M 1307.0 980.0 L 1306.8 980.0 L 1262.8 1030.0 L 1306.8 1080.0 L 1306.8 1080.0 L 1918.8 1080.0 L 1918.8 1080.0 L 1962.8 1030.0 L 1918.8 980.0 L 1918.8 980.0 Z M 1306.8 980.0 " fill="#8E44AD"></path></g></g><g><clipPath id="clip0x608000ca40e0"><path d="M 1262.8 980.0 L 1962.8 980.0 L 1962.8 1080.0 L 1262.8 1080.0 Z M 1262.8 980.0 "></path></clipPath><g clip-path="url(#clip0x608000ca40e0)"><text xml:space="preserve" font-family="OtterFont,OtterFont" font-size="56.0" fill="#FEFFFE" transform="matrix(1.00, 0.00, -0.00, -1.00, 1412.0, 1012.9)"> </text><text xml:space="preserve" font-family="OtterFont,OtterFont" font-size="56.0" fill="#FEFFFE" transform="matrix(1.00, 0.00, -0.00, -1.00, 1444.4, 1012.9)"> </text><text xml:space="preserve" font-family="OtterFont,OtterFont" font-size="54.0" fill="#FEFFFE" transform="matrix(1.00, 0.00, -0.00, -1.00, 1476.9, 1012.9)">F</text><text xml:space="preserve" font-family="OtterFont,OtterFont" font-size="54.0" fill="#FEFFFE" transform="matrix(1.00, 0.00, -0.00, -1.00, 1510.1, 1012.9)">R</text><text xml:space="preserve" font-family="OtterFont,OtterFont" font-size="54.0" fill="#FEFFFE" transform="matrix(1.00, 0.00, -0.00, -1.00, 1550.3, 1012.9)">A</text><text xml:space="preserve" font-family="OtterFont,OtterFont" font-size="54.0" fill="#FEFFFE" transform="matrix(1.00, 0.00, -0.00, -1.00, 1585.5, 1012.9)">M</text><text xml:space="preserve" font-family="OtterFont,OtterFont" font-size="54.0" fill="#FEFFFE" transform="matrix(1.00, 0.00, -0.00, -1.00, 1623.5, 1012.9)">E</text><text xml:space="preserve" font-family="OtterFont,OtterFont" font-size="54.0" fill="#FEFFFE" transform="matrix(1.00, 0.00, -0.00, -1.00, 1658.7, 1012.9)">W</text><text xml:space="preserve" font-family="OtterFont,OtterFont" font-size="54.0" fill="#FEFFFE" transform="matrix(1.00, 0.00, -0.00, -1.00, 1702.6, 1012.9)">O</text><text xml:space="preserve" font-family="OtterFont,OtterFont" font-size="54.0" fill="#FEFFFE" transform="matrix(1.00, 0.00, -0.00, -1.00, 1735.8, 1012.9)">R</text><text xml:space="preserve" font-family="OtterFont,OtterFont" font-size="54.0" fill="#FEFFFE" transform="matrix(1.00, 0.00, -0.00, -1.00, 1775.9, 1012.9)">K</text></g></g><g><clipPath id="clip0x608000ca46e0"><path d="M -0.9 979.0 L 58.3 979.0 L 58.3 1081.0 L -0.9 1081.0 Z M -0.9 979.0 "></path></clipPath><g clip-path="url(#clip0x608000ca46e0)"><path d="M 0.0 980.0 L 0.0 980.0 L 0.0 1030.0 L 0.0 1080.0 L 0.0 1080.0 L 57.3 1080.0 L 57.0 1080.0 L 57.0 1030.0 L 57.0 980.0 L 57.0 980.0 Z M 0.1 980.0 " fill="#3498DA"></path></g></g><g><clipPath id="clip0x608000ca4920"><path d="M 609.0 979.0 L 1363.2 979.0 L 1363.2 1081.0 L 609.0 1081.0 Z M 609.0 979.0 "></path></clipPath><g clip-path="url(#clip0x608000ca4920)"><path d="M 654.0 980.0 L 654.0 980.0 L 610.0 1030.0 L 654.0 1080.0 L 654.0 1080.0 L 1318.2 1080.0 L 1318.2 1080.0 L 1362.2 1030.0 L 1318.2 980.0 L 1318.2 980.0 Z M 654.0 980.0 " fill="#2ECC71"></path></g></g><g><clipPath id="clip0x608000ca4b60"><path d="M 610.0 980.0 L 1362.2 980.0 L 1362.2 1080.0 L 610.0 1080.0 Z M 610.0 980.0 "></path></clipPath><g clip-path="url(#clip0x608000ca4b60)"><text xml:space="preserve" font-family="OtterFont,OtterFont" font-size="56.0" fill="#FEFFFE" transform="matrix(1.00, 0.00, -0.00, -1.00, 713.3, 1012.9)"> </text><text xml:space="preserve" font-family="OtterFont,OtterFont" font-size="56.0" fill="#FEFFFE" transform="matrix(1.00, 0.00, -0.00, -1.00, 745.8, 1012.9)"> </text><text xml:space="preserve" font-family="OtterFont,OtterFont" font-size="56.0" fill="#FEFFFE" transform="matrix(1.00, 0.00, -0.00, -1.00, 778.3, 1012.9)">P</text><text xml:space="preserve" font-family="OtterFont,OtterFont" font-size="56.0" fill="#FEFFFE" transform="matrix(1.00, 0.00, -0.00, -1.00, 812.8, 1012.9)">o</text><text xml:space="preserve" font-family="OtterFont,OtterFont" font-size="56.0" fill="#FEFFFE" transform="matrix(1.00, 0.00, -0.00, -1.00, 847.4, 1012.9)">c</text><text xml:space="preserve" font-family="OtterFont,OtterFont" font-size="56.0" fill="#FEFFFE" transform="matrix(1.00, 0.00, -0.00, -1.00, 885.7, 1012.9)">k</text><text xml:space="preserve" font-family="OtterFont,OtterFont" font-size="56.0" fill="#FEFFFE" transform="matrix(1.00, 0.00, -0.00, -1.00, 922.6, 1012.9)">e</text><text xml:space="preserve" font-family="OtterFont,OtterFont" font-size="56.0" fill="#FEFFFE" transform="matrix(1.00, 0.00, -0.00, -1.00, 951.9, 1012.9)">t</text><text xml:space="preserve" font-family="OtterFont,OtterFont" font-size="56.0" fill="#FEFFFE" transform="matrix(1.00, 0.00, -0.00, -1.00, 984.5, 1012.9)">P</text><text xml:space="preserve" font-family="OtterFont,OtterFont" font-size="56.0" fill="#FEFFFE" transform="matrix(1.00, 0.00, -0.00, -1.00, 1019.0, 1012.9)">a</text><text xml:space="preserve" font-family="OtterFont,OtterFont" font-size="56.0" fill="#FEFFFE" transform="matrix(1.00, 0.00, -0.00, -1.00, 1052.5, 1012.9)">r</text><text xml:space="preserve" font-family="OtterFont,OtterFont" font-size="56.0" fill="#FEFFFE" transform="matrix(1.00, 0.00, -0.00, -1.00, 1088.6, 1012.9)">k</text><text xml:space="preserve" font-family="OtterFont,OtterFont" font-size="56.0" fill="#FEFFFE" transform="matrix(1.00, 0.00, -0.00, -1.00, 1125.5, 1012.9)"> </text><text xml:space="preserve" font-family="OtterFont,OtterFont" font-size="56.0" fill="#FEFFFE" transform="matrix(1.00, 0.00, -0.00, -1.00, 1158.0, 1012.9)">A</text><text xml:space="preserve" font-family="OtterFont,OtterFont" font-size="56.0" fill="#FEFFFE" transform="matrix(1.00, 0.00, -0.00, -1.00, 1194.6, 1012.9)">p</text><text xml:space="preserve" font-family="OtterFont,OtterFont" font-size="56.0" fill="#FEFFFE" transform="matrix(1.00, 0.00, -0.00, -1.00, 1226.7, 1012.9)">p</text></g></g><g><clipPath id="clip0x608000ca5340"><path d="M 9.7 979.0 L 711.7 979.0 L 711.7 1081.0 L 9.7 1081.0 Z M 9.7 979.0 "></path></clipPath><g clip-path="url(#clip0x608000ca5340)"><path d="M 55.0 980.0 L 54.7 980.0 L 10.7 1030.0 L 54.7 1080.0 L 54.7 1080.0 L 666.7 1080.0 L 666.7 1080.0 L 710.7 1030.0 L 666.7 980.0 L 666.7 980.0 Z M 54.7 980.0 " fill="#3498DA"></path></g></g><g><clipPath id="clip0x608000ca5580"><path d="M 10.7 980.0 L 710.7 980.0 L 710.7 1080.0 L 10.7 1080.0 Z M 10.7 980.0 "></path></clipPath><g clip-path="url(#clip0x608000ca5580)"><text xml:space="preserve" font-family="OtterFont,OtterFont" font-size="56.0" fill="#FEFFFE" transform="matrix(1.00, 0.00, -0.00, -1.00, 109.7, 1012.9)">I</text><text xml:space="preserve" font-family="OtterFont,OtterFont" font-size="56.0" fill="#FEFFFE" transform="matrix(1.00, 0.00, -0.00, -1.00, 151.8, 1012.9)">N</text><text xml:space="preserve" font-family="OtterFont,OtterFont" font-size="56.0" fill="#FEFFFE" transform="matrix(1.00, 0.00, -0.00, -1.00, 187.8, 1012.9)">S</text><text xml:space="preserve" font-family="OtterFont,OtterFont" font-size="56.0" fill="#FEFFFE" transform="matrix(1.00, 0.00, -0.00, -1.00, 228.1, 1012.9)">T</text><text xml:space="preserve" font-family="OtterFont,OtterFont" font-size="56.0" fill="#FEFFFE" transform="matrix(1.00, 0.00, -0.00, -1.00, 270.6, 1012.9)">A</text><text xml:space="preserve" font-family="OtterFont,OtterFont" font-size="56.0" fill="#FEFFFE" transform="matrix(1.00, 0.00, -0.00, -1.00, 307.1, 1012.9)">L</text><text xml:space="preserve" font-family="OtterFont,OtterFont" font-size="56.0" fill="#FEFFFE" transform="matrix(1.00, 0.00, -0.00, -1.00, 343.6, 1012.9)">L</text><text xml:space="preserve" font-family="OtterFont,OtterFont" font-size="56.0" fill="#FEFFFE" transform="matrix(1.00, 0.00, -0.00, -1.00, 380.0, 1012.9)">A</text><text xml:space="preserve" font-family="OtterFont,OtterFont" font-size="56.0" fill="#FEFFFE" transform="matrix(1.00, 0.00, -0.00, -1.00, 416.6, 1012.9)">T</text><text xml:space="preserve" font-family="OtterFont,OtterFont" font-size="56.0" fill="#FEFFFE" transform="matrix(1.00, 0.00, -0.00, -1.00, 459.1, 1012.9)">I</text><text xml:space="preserve" font-family="OtterFont,OtterFont" font-size="56.0" fill="#FEFFFE" transform="matrix(1.00, 0.00, -0.00, -1.00, 501.2, 1012.9)">O</text><text xml:space="preserve" font-family="OtterFont,OtterFont" font-size="56.0" fill="#FEFFFE" transform="matrix(1.00, 0.00, -0.00, -1.00, 535.5, 1012.9)">N</text><text xml:space="preserve" font-family="OtterFont,OtterFont" font-size="56.0" fill="#FEFFFE" transform="matrix(1.00, 0.00, -0.00, -1.00, 571.5, 1012.9)">S</text></g></g><g opacity="0.35"><g><clipPath id="clip0x608000ca5ca0"><path d="M 0.0 978.0 L 1364.0 978.0 L 1364.0 1080.0 L 0.0 1080.0 Z M 0.0 978.0 "></path></clipPath><g clip-path="url(#clip0x608000ca5ca0)"><path d="M -14.0 980.0 L -14.3 980.0 L -58.3 1030.0 L -14.3 1080.0 L -14.3 1080.0 L 1318.2 1080.0 L 1318.2 1080.0 L 1362.2 1030.0 L 1318.2 980.0 L 1318.2 980.0 Z M -14.3 980.0 " fill="#000000"></path></g></g></g></g></svg>