<?xml version="1.0" encoding="UTF-8" standalone="no"?><svg xmlns="http://www.w3.org/2000/svg" xmlns:xlink="http://www.w3.org/1999/xlink" clip-rule="evenodd" stroke-miterlimit="10" viewBox="0 0 217 19"><desc>SVG generated by Keynote</desc><defs></defs><g transform="matrix(1.00, 0.00, -0.00, -1.00, 0.0, 19.0)"><text xml:space="preserve" font-family="HelveticaNeue-Light,Helvetica Neue" font-size="20.0" fill="#FEFFFF" transform="matrix(1.00, 0.00, -0.00, -1.00, 1.6, 2.7)">G</text><text xml:space="preserve" font-family="HelveticaNeue-Light,Helvetica Neue" font-size="20.0" fill="#FEFFFF" transform="matrix(1.00, 0.00, -0.00, -1.00, 16.2, 2.7)">R</text><text xml:space="preserve" font-family="HelveticaNeue-Light,Helvetica Neue" font-size="20.0" fill="#FEFFFF" transform="matrix(1.00, 0.00, -0.00, -1.00, 29.3, 2.7)">U</text><text xml:space="preserve" font-family="HelveticaNeue-Light,Helvetica Neue" font-size="20.0" fill="#FEFFFF" transform="matrix(1.00, 0.00, -0.00, -1.00, 42.8, 2.7)">N</text><text xml:space="preserve" font-family="HelveticaNeue-Light,Helvetica Neue" font-size="20.0" fill="#FEFFFF" transform="matrix(1.00, 0.00, -0.00, -1.00, 56.6, 2.7)">T</text><text xml:space="preserve" font-family="HelveticaNeue-Light,Helvetica Neue" font-size="20.0" fill="#FEFFFF" transform="matrix(1.00, 0.00, -0.00, -1.00, 67.5, 2.7)">Z</text><text xml:space="preserve" font-family="HelveticaNeue-Light,Helvetica Neue" font-size="20.0" fill="#FEFFFF" transform="matrix(1.00, 0.00, -0.00, -1.00, 78.7, 2.7)">O</text><text xml:space="preserve" font-family="HelveticaNeue-Light,Helvetica Neue" font-size="20.0" fill="#FEFFFF" transform="matrix(1.00, 0.00, -0.00, -1.00, 93.3, 2.7)">O</text><text xml:space="preserve" font-family="HelveticaNeue-Light,Helvetica Neue" font-size="20.0" fill="#FEFFFF" transform="matrix(1.00, 0.00, -0.00, -1.00, 107.8, 2.7)">K</text><text xml:space="preserve" font-family="HelveticaNeue-Light,Helvetica Neue" font-size="20.0" fill="#FEFFFF" transform="matrix(1.00, 0.00, -0.00, -1.00, 120.5, 2.7)">I</text><text xml:space="preserve" font-family="HelveticaNeue-Light,Helvetica Neue" font-size="25.0" fill="#FEFFFF" transform="matrix(1.00, 0.00, -0.00, -1.00, 124.7, 2.7)"> </text><text xml:space="preserve" font-family="HelveticaNeue-Light,Helvetica Neue" font-size="25.0" fill="#FEFFFF" transform="matrix(1.00, 0.00, -0.00, -1.00, 131.4, 2.7)">–</text><text xml:space="preserve" font-family="HelveticaNeue-Light,Helvetica Neue" font-size="25.0" fill="#FEFFFF" transform="matrix(1.00, 0.00, -0.00, -1.00, 143.7, 2.7)"> </text><text xml:space="preserve" font-family="HelveticaNeue-Light,Helvetica Neue" font-size="20.0" fill="#FEFFFF" transform="matrix(1.00, 0.00, -0.00, -1.00, 150.4, 2.7)">F</text><text xml:space="preserve" font-family="HelveticaNeue-Light,Helvetica Neue" font-size="20.0" fill="#FEFFFF" transform="matrix(1.00, 0.00, -0.00, -1.00, 160.9, 2.7)">L</text><text xml:space="preserve" font-family="HelveticaNeue-Light,Helvetica Neue" font-size="20.0" fill="#FEFFFF" transform="matrix(1.00, 0.00, -0.00, -1.00, 171.4, 2.7)">I</text><text xml:space="preserve" font-family="HelveticaNeue-Light,Helvetica Neue" font-size="20.0" fill="#FEFFFF" transform="matrix(1.00, 0.00, -0.00, -1.00, 175.5, 2.7)">C</text><text xml:space="preserve" font-family="HelveticaNeue-Light,Helvetica Neue" font-size="20.0" fill="#FEFFFF" transform="matrix(1.00, 0.00, -0.00, -1.00, 189.4, 2.7)">K</text><text xml:space="preserve" font-family="HelveticaNeue-Light,Helvetica Neue" font-size="20.0" fill="#FEFFFF" transform="matrix(1.00, 0.00, -0.00, -1.00, 202.1, 2.7)">R</text></g></svg>