<?xml version="1.0" encoding="UTF-8" standalone="no"?><svg xmlns="http://www.w3.org/2000/svg" xmlns:xlink="http://www.w3.org/1999/xlink" clip-rule="evenodd" stroke-miterlimit="10" viewBox="0 0 28 28"><desc>SVG generated by Keynote</desc><defs></defs><g transform="matrix(1.00, 0.00, -0.00, -1.00, 0.0, 28.0)"><g><clipPath id="clip0x6000006a42c0"><path d="M -6.1 27.3 L 34.1 27.3 L 34.1 -12.8 L -6.1 -12.8 Z M -6.1 27.3 "></path></clipPath><g clip-path="url(#clip0x6000006a42c0)"><g><clipPath id="clip0x600000ab8060"><path d="M 2.0 1.0 L 27.0 1.0 L 27.0 26.0 L 2.0 26.0 Z M 2.0 1.0 "></path></clipPath><g clip-path="url(#clip0x600000ab8060)"><path d="M 11.0 9.3 C 12.0 9.3 13.0 9.7 13.8 10.4 C 14.1 10.6 14.1 11.0 13.9 11.3 C 13.6 11.5 13.3 11.5 13.0 11.3 C 12.5 10.8 11.7 10.5 11.0 10.5 C 9.3 10.5 8.0 11.8 8.0 13.5 C 8.0 15.2 9.3 16.5 11.0 16.5 C 11.7 16.5 12.5 16.2 13.0 15.7 C 13.3 15.5 13.6 15.5 13.9 15.7 C 14.1 16.0 14.1 16.4 13.8 16.6 C 13.0 17.3 12.0 17.7 11.0 17.7 C 8.7 17.7 6.8 15.8 6.8 13.5 C 6.8 11.2 8.7 9.3 11.0 9.3 " fill="#FFFFFF"></path><path d="M 19.0 9.3 C 20.1 9.3 21.1 9.7 21.9 10.4 C 22.1 10.6 22.1 11.0 21.9 11.3 C 21.7 11.5 21.3 11.5 21.1 11.3 C 20.5 10.8 19.8 10.5 19.0 10.5 C 17.4 10.5 16.0 11.8 16.0 13.5 C 16.0 15.2 17.4 16.5 19.0 16.5 C 19.8 16.5 20.5 16.2 21.0 15.7 C 21.3 15.5 21.7 15.5 21.9 15.7 C 22.1 16.0 22.1 16.4 21.9 16.6 C 21.1 17.3 20.1 17.7 19.0 17.7 C 16.7 17.7 14.8 15.8 14.8 13.5 C 14.8 11.2 16.7 9.3 19.0 9.3 " fill="#FFFFFF"></path><path d="M 14.5 24.8 C 20.6 24.8 25.8 19.6 25.8 13.5 C 25.8 7.4 20.6 2.2 14.5 2.2 C 8.4 2.2 3.2 7.4 3.2 13.5 C 3.2 19.6 8.4 24.8 14.5 24.8 M 14.5 1.0 C 21.3 1.0 27.0 6.7 27.0 13.5 C 27.0 20.3 21.3 26.0 14.5 26.0 C 7.7 26.0 2.0 20.3 2.0 13.5 C 2.0 6.7 7.7 1.0 14.5 1.0 " fill="#FFFFFF"></path></g></g></g></g></g></svg>