<?xml version="1.0" encoding="UTF-8" standalone="no"?><svg xmlns="http://www.w3.org/2000/svg" xmlns:xlink="http://www.w3.org/1999/xlink" clip-rule="evenodd" stroke-miterlimit="10" viewBox="0 0 1920 1080"><desc>SVG generated by Keynote</desc><defs></defs><g transform="matrix(1.00, 0.00, -0.00, -1.00, 0.0, 1080.0)"><path d="M 0.0 1080.0 L 1920.0 1080.0 L 1920.0 0.0 L 0.0 0.0 Z M 0.0 1080.0 " fill="#2ECC71"></path><image xlink:href="97AEA14F274A714FFAF0B8D96F79BC39.png" width="1280.00" height="720.00" transform="matrix(1.50, 0.00, -0.00, -1.50, 0.0, 1080.0)"></image><g><clipPath id="clip0x6100008bdd60"><path d="M -0.9 979.0 L 58.3 979.0 L 58.3 1081.0 L -0.9 1081.0 Z M -0.9 979.0 "></path></clipPath><g clip-path="url(#clip0x6100008bdd60)"><path d="M 0.0 980.0 L 0.0 980.0 L 0.0 1030.0 L 0.0 1080.0 L 0.0 1080.0 L 57.3 1080.0 L 57.0 1080.0 L 57.0 1030.0 L 57.0 980.0 L 57.0 980.0 Z M 0.1 980.0 " fill="#3498DA"></path></g></g><g><clipPath id="clip0x6100008b5000"><path d="M 9.7 979.0 L 711.7 979.0 L 711.7 1081.0 L 9.7 1081.0 Z M 9.7 979.0 "></path></clipPath><g clip-path="url(#clip0x6100008b5000)"><path d="M 55.0 980.0 L 54.7 980.0 L 10.7 1030.0 L 54.7 1080.0 L 54.7 1080.0 L 666.7 1080.0 L 666.7 1080.0 L 710.7 1030.0 L 666.7 980.0 L 666.7 980.0 Z M 54.7 980.0 " fill="#3498DA"></path></g></g><g><clipPath id="clip0x6100008ae400"><path d="M 10.7 980.0 L 710.7 980.0 L 710.7 1080.0 L 10.7 1080.0 Z M 10.7 980.0 "></path></clipPath><g clip-path="url(#clip0x6100008ae400)"><text xml:space="preserve" font-family="OtterFont,OtterFont" font-size="56.0" fill="#FEFFFE" transform="matrix(1.00, 0.00, -0.00, -1.00, 109.7, 1012.9)">I</text><text xml:space="preserve" font-family="OtterFont,OtterFont" font-size="56.0" fill="#FEFFFE" transform="matrix(1.00, 0.00, -0.00, -1.00, 151.8, 1012.9)">N</text><text xml:space="preserve" font-family="OtterFont,OtterFont" font-size="56.0" fill="#FEFFFE" transform="matrix(1.00, 0.00, -0.00, -1.00, 187.8, 1012.9)">S</text><text xml:space="preserve" font-family="OtterFont,OtterFont" font-size="56.0" fill="#FEFFFE" transform="matrix(1.00, 0.00, -0.00, -1.00, 228.1, 1012.9)">T</text><text xml:space="preserve" font-family="OtterFont,OtterFont" font-size="56.0" fill="#FEFFFE" transform="matrix(1.00, 0.00, -0.00, -1.00, 270.6, 1012.9)">A</text><text xml:space="preserve" font-family="OtterFont,OtterFont" font-size="56.0" fill="#FEFFFE" transform="matrix(1.00, 0.00, -0.00, -1.00, 307.1, 1012.9)">L</text><text xml:space="preserve" font-family="OtterFont,OtterFont" font-size="56.0" fill="#FEFFFE" transform="matrix(1.00, 0.00, -0.00, -1.00, 343.6, 1012.9)">L</text><text xml:space="preserve" font-family="OtterFont,OtterFont" font-size="56.0" fill="#FEFFFE" transform="matrix(1.00, 0.00, -0.00, -1.00, 380.0, 1012.9)">A</text><text xml:space="preserve" font-family="OtterFont,OtterFont" font-size="56.0" fill="#FEFFFE" transform="matrix(1.00, 0.00, -0.00, -1.00, 416.6, 1012.9)">T</text><text xml:space="preserve" font-family="OtterFont,OtterFont" font-size="56.0" fill="#FEFFFE" transform="matrix(1.00, 0.00, -0.00, -1.00, 459.1, 1012.9)">I</text><text xml:space="preserve" font-family="OtterFont,OtterFont" font-size="56.0" fill="#FEFFFE" transform="matrix(1.00, 0.00, -0.00, -1.00, 501.2, 1012.9)">O</text><text xml:space="preserve" font-family="OtterFont,OtterFont" font-size="56.0" fill="#FEFFFE" transform="matrix(1.00, 0.00, -0.00, -1.00, 535.5, 1012.9)">N</text><text xml:space="preserve" font-family="OtterFont,OtterFont" font-size="56.0" fill="#FEFFFE" transform="matrix(1.00, 0.00, -0.00, -1.00, 571.5, 1012.9)">S</text></g></g></g></svg>