<?xml version="1.0" encoding="UTF-8" standalone="no"?><svg xmlns="http://www.w3.org/2000/svg" xmlns:xlink="http://www.w3.org/1999/xlink" clip-rule="evenodd" stroke-miterlimit="10" viewBox="0 0 586 639"><desc>SVG generated by Keynote</desc><defs></defs><g transform="matrix(1.00, 0.00, -0.00, -1.00, 0.0, 639.0)"><g><clipPath id="clip0x6180006b1040"><path d="M 56.0 639.0 L 531.0 639.0 L 531.0 160.0 L 56.0 160.0 Z M 55.5 638.8 "></path></clipPath><g clip-path="url(#clip0x6180006b1040)"><g><clipPath id="clip0x6180006b14c0"><path d="M 55.5 159.8 L 530.5 159.8 L 530.5 638.8 L 55.5 638.8 Z M 55.5 159.8 "></path></clipPath><g clip-path="url(#clip0x6180006b14c0)"><image xlink:href="63337357FFB4408F969B6F2DDDC0497F.png" width="1675.00" height="1565.00" transform="matrix(0.42, 0.00, -0.00, -0.42, -57.0, 658.0)"></image></g></g></g></g><g><clipPath id="clip0x6080006b4dc0"><path d="M 277.5 274.0 L 304.5 274.0 L 304.5 376.0 L 277.5 376.0 Z M 277.5 274.0 "></path></clipPath><g clip-path="url(#clip0x6080006b4dc0)"><path d="M 278.0 375.0 L 304.0 375.0 L 304.0 275.0 L 278.0 275.0 Z M 278.5 375.0 " fill="#FEFFFE"></path></g></g><g><clipPath id="clip0x6080006b55a0"><path d="M -13.8 -22.5 L 599.8 -22.5 L 599.8 102.3 L -13.8 102.3 Z M -13.8 -22.5 "></path></clipPath><g clip-path="url(#clip0x6080006b55a0)"><text xml:space="preserve" font-family="OtterFont,OtterFont" font-size="92.0" fill="#FEFFFF" transform="matrix(1.00, 0.00, -0.00, -1.00, 5.7, 11.7)">F</text><text xml:space="preserve" font-family="OtterFont,OtterFont" font-size="92.0" fill="#FEFFFF" transform="matrix(1.00, 0.00, -0.00, -1.00, 62.2, 11.7)">R</text><text xml:space="preserve" font-family="OtterFont,OtterFont" font-size="92.0" fill="#FEFFFF" transform="matrix(1.00, 0.00, -0.00, -1.00, 130.6, 11.7)">A</text><text xml:space="preserve" font-family="OtterFont,OtterFont" font-size="92.0" fill="#FEFFFF" transform="matrix(1.00, 0.00, -0.00, -1.00, 190.7, 11.7)">M</text><text xml:space="preserve" font-family="OtterFont,OtterFont" font-size="92.0" fill="#FEFFFF" transform="matrix(1.00, 0.00, -0.00, -1.00, 255.4, 11.7)">E</text><text xml:space="preserve" font-family="OtterFont,OtterFont" font-size="92.0" fill="#FEFFFF" transform="matrix(1.00, 0.00, -0.00, -1.00, 315.3, 11.7)">W</text><text xml:space="preserve" font-family="OtterFont,OtterFont" font-size="92.0" fill="#FEFFFF" transform="matrix(1.00, 0.00, -0.00, -1.00, 390.2, 11.7)">O</text><text xml:space="preserve" font-family="OtterFont,OtterFont" font-size="92.0" fill="#FEFFFF" transform="matrix(1.00, 0.00, -0.00, -1.00, 446.6, 11.7)">R</text><text xml:space="preserve" font-family="OtterFont,OtterFont" font-size="92.0" fill="#FEFFFF" transform="matrix(1.00, 0.00, -0.00, -1.00, 515.0, 11.7)">K</text></g></g></g></svg>