<?xml version="1.0" encoding="UTF-8" standalone="no"?><svg xmlns="http://www.w3.org/2000/svg" xmlns:xlink="http://www.w3.org/1999/xlink" clip-rule="evenodd" stroke-miterlimit="10" viewBox="0 0 476 635"><desc>SVG generated by Keynote</desc><defs></defs><g transform="matrix(1.00, 0.00, -0.00, -1.00, 0.0, 635.0)"><g><clipPath id="clip0x600000ca3ea0"><path d="M 0.0 634.0 L 475.0 634.0 L 475.0 159.0 L 0.0 159.0 Z M 0.5 634.3 "></path></clipPath><g clip-path="url(#clip0x600000ca3ea0)"><g><clipPath id="clip0x600000aaf420"><path d="M 0.5 159.5 L 475.3 159.5 L 475.3 634.3 L 0.5 634.3 Z M 0.5 159.5 "></path></clipPath><g clip-path="url(#clip0x600000aaf420)"><image xlink:href="5B43284F48D1CACD1707D2C7975CDF54.png" width="950.00" height="950.00" transform="matrix(0.50, 0.00, -0.00, -0.50, 0.0, 634.0)"></image></g></g></g></g><g><clipPath id="clip0x600000aa0b40"><path d="M 0.5 159.5 L 475.3 159.5 L 475.3 634.3 L 0.5 634.3 Z M 0.5 159.5 "></path></clipPath><g clip-path="url(#clip0x600000aa0b40)"><image xlink:href="1382C4105C5EC80D3241215FE793FC33.png" width="473.00" height="472.00" transform="matrix(1.00, 0.00, -0.00, 1.00, 1.5, 160.5)"></image></g></g><g><clipPath id="clip0x600000cad140"><path d="M 131.2 -22.2 L 344.6 -22.2 L 344.6 102.6 L 131.2 102.6 Z M 131.2 -22.2 "></path></clipPath><g clip-path="url(#clip0x600000cad140)"><text xml:space="preserve" font-family="OtterFont,OtterFont" font-size="92.0" fill="#FEFFFF" transform="matrix(1.00, 0.00, -0.00, -1.00, 150.6, 12.0)">A</text><text xml:space="preserve" font-family="OtterFont,OtterFont" font-size="92.0" fill="#FEFFFF" transform="matrix(1.00, 0.00, -0.00, -1.00, 210.7, 12.0)">P</text><text xml:space="preserve" font-family="OtterFont,OtterFont" font-size="92.0" fill="#FEFFFF" transform="matrix(1.00, 0.00, -0.00, -1.00, 267.4, 12.0)">P</text></g></g></g></svg>