<?xml version="1.0" encoding="UTF-8" standalone="no"?><svg xmlns="http://www.w3.org/2000/svg" xmlns:xlink="http://www.w3.org/1999/xlink" clip-rule="evenodd" stroke-miterlimit="10" viewBox="0 0 1920 1080"><desc>SVG generated by Keynote</desc><defs></defs><g transform="matrix(1.00, 0.00, -0.00, -1.00, 0.0, 1080.0)"><path d="M 0.0 1080.0 L 1920.0 1080.0 L 1920.0 0.0 L 0.0 0.0 Z M 0.0 1080.0 " fill="#3498DA"></path><g><clipPath id="clip0x6080006abdc0"><path d="M 481.0 61.0 L 1439.0 61.0 L 1439.0 1019.0 L 481.0 1019.0 Z M 481.0 61.0 "></path></clipPath><g clip-path="url(#clip0x6080006abdc0)"><image xlink:href="../../6A3F3D90-9F28-4368-8BC7-40BC671071B0/assets/667B312F86AB716B2E2BFC20535CA558.png" width="1200.00" height="1200.00" transform="matrix(0.80, 0.00, -0.00, -0.80, 481.0, 1019.0)"></image></g></g><g><clipPath id="clip0x6180006a8400"><path d="M 791.1 372.0 L 1128.9 372.0 L 1128.9 708.0 L 791.1 708.0 Z M 791.1 372.0 "></path></clipPath><g clip-path="url(#clip0x6180006a8400)"><path d="M 928.0 539.5 L 958.7 508.9 L 821.6 372.0 L 791.0 402.6 Z M 928.0 539.5 " fill="#FFFFFF"></path><path d="M 969.7 581.1 L 1000.3 550.6 L 966.7 516.9 L 936.1 547.5 Z M 969.7 581.1 " fill="#FFFFFF"></path><path d="M 964.3 662.1 L 978.6 649.7 L 996.9 654.5 L 989.6 637.0 L 999.8 621.1 L 980.9 622.7 L 968.9 608.0 L 964.6 626.5 L 946.9 633.4 L 963.1 643.2 Z M 964.3 662.1 " fill="#FFFFFF"></path><path d="M 1122.7 697.6 L 1111.9 669.5 L 1129.0 644.7 L 1098.9 646.2 L 1080.6 622.4 L 1072.7 651.4 L 1044.3 661.5 L 1069.6 677.9 L 1070.4 708.0 L 1093.8 689.1 Z M 1122.7 697.6 " fill="#FFFFFF"></path><path d="M 1076.7 589.7 L 1076.4 578.0 L 1086.0 571.1 L 1074.8 567.7 L 1071.2 556.6 L 1064.5 566.2 L 1052.8 566.1 L 1059.8 575.5 L 1056.2 586.6 L 1067.2 582.7 Z M 1076.7 589.7 " fill="#FFFFFF"></path></g></g></g></svg>