<?xml version="1.0" encoding="UTF-8" standalone="no"?><svg xmlns="http://www.w3.org/2000/svg" xmlns:xlink="http://www.w3.org/1999/xlink" clip-rule="evenodd" stroke-miterlimit="10" viewBox="0 0 1920 1080"><desc>SVG generated by Keynote</desc><defs></defs><g transform="matrix(1.00, 0.00, -0.00, -1.00, 0.0, 1080.0)"><path d="M 0.0 1080.0 L 1920.0 1080.0 L 1920.0 0.0 L 0.0 0.0 Z M 0.0 1080.0 " fill="#3498DA"></path><g><clipPath id="clip0x6000008ada40"><path d="M 346.1 1070.4 L 1542.9 1070.4 L 1542.9 -123.0 L 346.1 -123.0 Z M 346.1 1070.4 "></path></clipPath><g clip-path="url(#clip0x6000008ada40)"><g><clipPath id="clip0x6000006b48e0"><path d="M 788.0 98.0 L 1132.0 98.0 L 1132.0 982.0 L 788.0 982.0 Z M 788.0 98.0 "></path></clipPath><g clip-path="url(#clip0x6000006b48e0)"><path d="M 935.6 820.9 C 980.0 827.5 1010.6 868.7 1003.9 913.0 C 997.3 957.2 956.0 987.7 911.6 981.1 C 867.1 974.4 836.6 933.2 843.2 889.0 C 849.9 844.7 891.2 814.3 935.6 820.9 " fill="#FFFFFF"></path><path d="M 1132.0 846.3 L 1079.4 860.4 L 1056.4 775.1 L 971.4 722.3 L 895.2 801.0 L 915.3 781.7 L 915.3 781.7 L 970.7 728.9 L 1050.1 778.0 L 1062.6 824.6 L 1060.5 826.4 L 979.4 746.7 L 894.5 803.7 L 894.4 803.6 C 883.4 811.0 870.3 815.3 856.0 814.8 C 818.0 814.4 787.6 783.4 788.0 745.5 L 790.3 527.5 C 790.4 523.0 790.9 518.5 791.8 514.3 L 791.7 514.3 L 804.2 329.1 L 794.0 98.0 L 879.8 98.0 L 890.1 327.7 C 890.2 329.3 890.2 330.8 890.1 332.4 L 885.6 398.9 L 907.9 345.0 L 920.7 98.0 L 1006.6 98.0 L 993.2 356.8 C 993.0 361.6 991.9 366.4 990.1 370.8 L 927.3 523.1 C 927.4 525.1 927.8 527.0 927.8 529.0 L 926.3 670.3 L 943.1 652.9 C 949.3 646.5 957.4 643.0 965.6 642.5 C 973.6 642.0 981.8 644.2 988.6 649.3 L 1097.1 744.1 L 1085.8 759.0 L 1107.0 753.3 Z M 1132.0 846.3 " fill="#FFFFFF"></path></g></g></g></g></g></svg>