<?xml version="1.0" encoding="UTF-8" standalone="no"?><svg xmlns="http://www.w3.org/2000/svg" xmlns:xlink="http://www.w3.org/1999/xlink" clip-rule="evenodd" stroke-miterlimit="10" viewBox="0 0 610 518"><desc>SVG generated by Keynote</desc><defs></defs><g transform="matrix(1.00, 0.00, -0.00, -1.00, 0.0, 518.0)"><g><clipPath id="clip0x6080008ad020"><path d="M 1.0 518.0 L 609.0 518.0 L 609.0 0.0 L 1.0 0.0 Z M 0.8 517.7 "></path></clipPath><g clip-path="url(#clip0x6080008ad020)"><g><clipPath id="clip0x6080008acf00"><path d="M 1.0 563.4 L 609.0 563.4 L 609.0 -45.4 L 1.0 -45.4 Z M 1.0 563.4 "></path></clipPath><g clip-path="url(#clip0x6080008acf00)"><g><clipPath id="clip0x6080008ad4a0"><path d="M 1.0 0.2 L 609.0 0.2 L 609.0 517.7 L 1.0 517.7 Z M 1.0 0.2 "></path></clipPath><g clip-path="url(#clip0x6080008ad4a0)"><path d="M 307.7 233.3 C 295.4 233.3 285.5 223.3 285.5 211.0 C 285.5 198.8 295.4 188.9 307.7 188.9 C 320.0 188.9 329.9 198.8 329.9 211.0 C 329.9 223.3 320.0 233.3 307.7 233.3 " fill="#FFFFFF"></path><path d="M 456.1 324.1 C 456.1 313.2 447.3 304.5 436.5 304.5 L 260.6 304.5 L 234.0 331.2 L 207.3 304.5 L 173.6 304.5 C 162.7 304.5 154.0 313.2 154.0 324.1 L 154.0 356.1 C 154.0 367.0 162.7 375.7 173.6 375.7 L 436.5 375.7 C 447.3 375.7 456.1 367.0 456.1 356.1 Z M 307.7 153.2 C 275.8 153.2 250.0 179.1 250.0 211.0 C 250.0 243.0 275.8 268.9 307.7 268.9 C 339.6 268.9 365.4 243.0 365.4 211.0 C 365.4 179.1 339.6 153.2 307.7 153.2 M 533.7 279.4 C 535.1 282.1 536.0 285.2 536.0 288.5 L 536.0 338.3 C 536.0 349.1 527.3 357.9 516.5 357.9 L 500.5 357.9 L 500.5 384.5 C 500.5 404.2 484.6 420.1 464.9 420.1 L 407.9 420.1 L 188.0 516.8 C 178.2 520.5 167.3 515.6 163.9 505.8 C 160.5 496.0 165.7 485.0 175.6 481.2 L 314.7 420.1 L 145.1 420.1 C 125.5 420.1 109.6 404.2 109.6 384.5 L 109.6 284.7 C 49.7 284.7 1.0 235.9 1.0 175.9 C 1.0 167.1 8.2 159.9 17.0 159.9 C 25.8 159.9 33.0 167.1 33.0 175.9 C 33.0 218.2 67.3 252.6 109.6 252.6 L 109.6 144.4 C 109.6 124.7 125.5 108.8 145.1 108.8 L 236.6 108.8 L 236.6 32.1 L 228.6 32.1 C 219.8 32.1 212.6 24.9 212.6 16.0 C 212.6 7.2 219.8 0.0 228.6 0.0 L 276.6 0.0 C 285.4 0.0 292.6 7.2 292.6 16.0 C 292.6 24.9 285.4 32.1 276.6 32.1 L 268.6 32.1 L 268.6 108.8 L 341.5 108.8 L 341.5 32.1 L 333.5 32.1 C 324.6 32.1 317.5 24.9 317.5 16.0 C 317.5 7.2 324.6 0.0 333.5 0.0 L 381.4 0.0 C 390.3 0.0 397.4 7.2 397.4 16.0 C 397.4 24.9 390.3 32.1 381.4 32.1 L 373.5 32.1 L 373.5 108.8 L 464.9 108.8 C 484.6 108.8 500.5 124.7 500.5 144.4 L 500.5 252.6 C 542.7 252.6 577.0 218.2 577.0 175.9 C 577.0 167.1 584.2 159.9 593.0 159.9 C 601.8 159.9 609.0 167.1 609.0 175.9 C 609.0 224.3 577.3 265.3 533.7 279.4 " fill="#FFFFFF"></path></g></g></g></g></g></g><g><clipPath id="clip0x6080008ad260"><path d="M 397.1 114.0 L 477.0 114.0 L 477.0 295.8 L 397.1 295.8 Z M 397.1 114.0 "></path></clipPath><g clip-path="url(#clip0x6080008ad260)"><path d="M 397.0 143.9 L 477.0 143.9 L 477.0 266.6 L 397.0 266.6 Z M 397.0 143.9 " fill="#2CB6B8"></path></g></g><g><clipPath id="clip0x6080008ad200"><path d="M 397.0 296.0 L 477.0 296.0 L 477.0 114.0 L 397.0 114.0 Z M 397.0 296.0 "></path></clipPath><g clip-path="url(#clip0x6080008ad200)"><g><clipPath id="clip0x6080008ad8c0"><path d="M 397.1 114.0 L 477.0 114.0 L 477.0 295.8 L 397.1 295.8 Z M 397.1 114.0 "></path></clipPath><g clip-path="url(#clip0x6080008ad8c0)"><path d="M 397.0 265.9 C 397.0 265.9 396.8 290.2 424.3 296.0 L 451.4 296.0 C 451.4 296.0 474.9 290.8 477.0 265.9 Z M 397.0 265.9 " fill="#2CB6B8"></path><path d="M 397.0 144.1 C 397.0 144.1 396.8 119.8 424.3 114.0 L 451.4 114.0 C 451.4 114.0 474.9 119.2 477.0 144.1 Z M 397.0 144.1 " fill="#2CB6B8"></path><path d="M 401.7 174.3 C 403.7 174.3 405.3 172.7 405.3 170.7 C 405.3 168.7 403.7 167.1 401.7 167.1 C 399.7 167.1 398.1 168.7 398.1 170.7 C 398.1 172.7 399.7 174.3 401.7 174.3 " fill="#B57E41"></path><path d="M 401.7 173.0 C 402.9 173.0 404.0 172.0 404.0 170.7 C 404.0 169.5 402.9 168.4 401.7 168.4 C 400.4 168.4 399.4 169.5 399.4 170.7 C 399.4 172.0 400.4 173.0 401.7 173.0 " fill="#DDE6DD"></path><path d="M 412.3 174.3 C 414.3 174.3 415.9 172.7 415.9 170.7 C 415.9 168.7 414.3 167.1 412.3 167.1 C 410.3 167.1 408.7 168.7 408.7 170.7 C 408.7 172.7 410.3 174.3 412.3 174.3 " fill="#B57E41"></path><path d="M 412.3 173.0 C 413.6 173.0 414.6 172.0 414.6 170.7 C 414.6 169.5 413.6 168.4 412.3 168.4 C 411.0 168.4 410.0 169.5 410.0 170.7 C 410.0 172.0 411.0 173.0 412.3 173.0 " fill="#DDE6DD"></path><path d="M 422.5 174.3 C 424.5 174.3 426.1 172.7 426.1 170.7 C 426.1 168.7 424.5 167.1 422.5 167.1 C 420.5 167.1 418.9 168.7 418.9 170.7 C 418.9 172.7 420.5 174.3 422.5 174.3 " fill="#B57E41"></path><path d="M 422.5 173.0 C 423.8 173.0 424.8 172.0 424.8 170.7 C 424.8 169.5 423.8 168.4 422.5 168.4 C 421.3 168.4 420.2 169.5 420.2 170.7 C 420.2 172.0 421.3 173.0 422.5 173.0 " fill="#DDE6DD"></path><path d="M 432.3 174.3 C 434.3 174.3 435.9 172.7 435.9 170.7 C 435.9 168.7 434.3 167.1 432.3 167.1 C 430.4 167.1 428.8 168.7 428.8 170.7 C 428.8 172.7 430.4 174.3 432.3 174.3 " fill="#B57E41"></path><path d="M 432.3 173.0 C 433.6 173.0 434.6 172.0 434.6 170.7 C 434.6 169.5 433.6 168.4 432.3 168.4 C 431.1 168.4 430.1 169.5 430.1 170.7 C 430.1 172.0 431.1 173.0 432.3 173.0 " fill="#DDE6DD"></path><path d="M 442.2 174.3 C 444.2 174.3 445.8 172.7 445.8 170.7 C 445.8 168.7 444.2 167.1 442.2 167.1 C 440.2 167.1 438.6 168.7 438.6 170.7 C 438.6 172.7 440.2 174.3 442.2 174.3 " fill="#B57E41"></path><path d="M 442.2 173.0 C 443.4 173.0 444.5 172.0 444.5 170.7 C 444.5 169.5 443.4 168.4 442.2 168.4 C 440.9 168.4 439.9 169.5 439.9 170.7 C 439.9 172.0 440.9 173.0 442.2 173.0 " fill="#DDE6DD"></path><path d="M 452.3 174.3 C 454.3 174.3 455.9 172.7 455.9 170.7 C 455.9 168.7 454.3 167.1 452.3 167.1 C 450.4 167.1 448.7 168.7 448.7 170.7 C 448.7 172.7 450.4 174.3 452.3 174.3 " fill="#B57E41"></path><path d="M 452.3 173.0 C 453.6 173.0 454.6 172.0 454.6 170.7 C 454.6 169.5 453.6 168.4 452.3 168.4 C 451.1 168.4 450.1 169.5 450.1 170.7 C 450.1 172.0 451.1 173.0 452.3 173.0 " fill="#DDE6DD"></path><path d="M 462.7 174.3 C 464.7 174.3 466.3 172.7 466.3 170.7 C 466.3 168.7 464.7 167.1 462.7 167.1 C 460.7 167.1 459.1 168.7 459.1 170.7 C 459.1 172.7 460.7 174.3 462.7 174.3 " fill="#B57E41"></path><path d="M 462.7 173.0 C 463.9 173.0 465.0 172.0 465.0 170.7 C 465.0 169.5 463.9 168.4 462.7 168.4 C 461.4 168.4 460.4 169.5 460.4 170.7 C 460.4 172.0 461.4 173.0 462.7 173.0 " fill="#DDE6DD"></path><path d="M 472.6 174.3 C 474.6 174.3 476.2 172.7 476.2 170.7 C 476.2 168.7 474.6 167.1 472.6 167.1 C 470.6 167.1 469.0 168.7 469.0 170.7 C 469.0 172.7 470.6 174.3 472.6 174.3 " fill="#B57E41"></path><path d="M 472.6 173.0 C 473.8 173.0 474.9 172.0 474.9 170.7 C 474.9 169.5 473.8 168.4 472.6 168.4 C 471.3 168.4 470.3 169.5 470.3 170.7 C 470.3 172.0 471.3 173.0 472.6 173.0 " fill="#DDE6DD"></path><path d="M 412.2 133.6 C 414.1 133.6 415.7 132.0 415.7 130.0 C 415.7 128.0 414.1 126.4 412.2 126.4 C 410.2 126.4 408.6 128.0 408.6 130.0 C 408.6 132.0 410.2 133.6 412.2 133.6 " fill="#B57E41"></path><path d="M 412.2 132.3 C 413.4 132.3 414.4 131.3 414.4 130.0 C 414.4 128.7 413.4 127.7 412.2 127.7 C 410.9 127.7 409.9 128.7 409.9 130.0 C 409.9 131.3 410.9 132.3 412.2 132.3 " fill="#DDE6DD"></path><path d="M 422.4 133.6 C 424.4 133.6 426.0 132.0 426.0 130.0 C 426.0 128.0 424.4 126.4 422.4 126.4 C 420.4 126.4 418.8 128.0 418.8 130.0 C 418.8 132.0 420.4 133.6 422.4 133.6 " fill="#B57E41"></path><path d="M 422.4 132.3 C 423.6 132.3 424.7 131.3 424.7 130.0 C 424.7 128.7 423.6 127.7 422.4 127.7 C 421.1 127.7 420.1 128.7 420.1 130.0 C 420.1 131.3 421.1 132.3 422.4 132.3 " fill="#DDE6DD"></path><path d="M 432.2 133.6 C 434.1 133.6 435.7 132.0 435.7 130.0 C 435.7 128.0 434.1 126.4 432.2 126.4 C 430.2 126.4 428.6 128.0 428.6 130.0 C 428.6 132.0 430.2 133.6 432.2 133.6 " fill="#B57E41"></path><path d="M 432.2 132.3 C 433.4 132.3 434.4 131.3 434.4 130.0 C 434.4 128.7 433.4 127.7 432.2 127.7 C 430.9 127.7 429.9 128.7 429.9 130.0 C 429.9 131.3 430.9 132.3 432.2 132.3 " fill="#DDE6DD"></path><path d="M 442.4 133.6 C 444.3 133.6 446.0 132.0 446.0 130.0 C 446.0 128.0 444.3 126.4 442.4 126.4 C 440.4 126.4 438.8 128.0 438.8 130.0 C 438.8 132.0 440.4 133.6 442.4 133.6 " fill="#B57E41"></path><path d="M 442.4 132.3 C 443.6 132.3 444.6 131.3 444.6 130.0 C 444.6 128.7 443.6 127.7 442.4 127.7 C 441.1 127.7 440.1 128.7 440.1 130.0 C 440.1 131.3 441.1 132.3 442.4 132.3 " fill="#DDE6DD"></path><path d="M 452.6 133.6 C 454.6 133.6 456.2 132.0 456.2 130.0 C 456.2 128.0 454.6 126.4 452.6 126.4 C 450.6 126.4 449.0 128.0 449.0 130.0 C 449.0 132.0 450.6 133.6 452.6 133.6 " fill="#B57E41"></path><path d="M 452.6 132.3 C 453.8 132.3 454.9 131.3 454.9 130.0 C 454.9 128.7 453.8 127.7 452.6 127.7 C 451.3 127.7 450.3 128.7 450.3 130.0 C 450.3 131.3 451.3 132.3 452.6 132.3 " fill="#DDE6DD"></path><path d="M 462.9 133.6 C 464.9 133.6 466.5 132.0 466.5 130.0 C 466.5 128.0 464.9 126.4 462.9 126.4 C 461.0 126.4 459.4 128.0 459.4 130.0 C 459.4 132.0 461.0 133.6 462.9 133.6 " fill="#B57E41"></path><path d="M 462.9 132.3 C 464.2 132.3 465.2 131.3 465.2 130.0 C 465.2 128.7 464.2 127.7 462.9 127.7 C 461.7 127.7 460.7 128.7 460.7 130.0 C 460.7 131.3 461.7 132.3 462.9 132.3 " fill="#DDE6DD"></path><path d="M 422.4 123.9 C 424.4 123.9 426.0 122.3 426.0 120.3 C 426.0 118.3 424.4 116.7 422.4 116.7 C 420.4 116.7 418.8 118.3 418.8 120.3 C 418.8 122.3 420.4 123.9 422.4 123.9 " fill="#B57E41"></path><path d="M 422.4 122.6 C 423.6 122.6 424.7 121.5 424.7 120.3 C 424.7 119.0 423.6 118.0 422.4 118.0 C 421.1 118.0 420.1 119.0 420.1 120.3 C 420.1 121.5 421.1 122.6 422.4 122.6 " fill="#DDE6DD"></path><path d="M 432.5 123.9 C 434.5 123.9 436.1 122.3 436.1 120.3 C 436.1 118.3 434.5 116.7 432.5 116.7 C 430.6 116.7 429.0 118.3 429.0 120.3 C 429.0 122.3 430.6 123.9 432.5 123.9 " fill="#B57E41"></path><path d="M 432.5 122.6 C 433.8 122.6 434.8 121.5 434.8 120.3 C 434.8 119.0 433.8 118.0 432.5 118.0 C 431.3 118.0 430.3 119.0 430.3 120.3 C 430.3 121.5 431.3 122.6 432.5 122.6 " fill="#DDE6DD"></path><path d="M 442.4 123.9 C 444.3 123.9 446.0 122.3 446.0 120.3 C 446.0 118.3 444.3 116.7 442.4 116.7 C 440.4 116.7 438.8 118.3 438.8 120.3 C 438.8 122.3 440.4 123.9 442.4 123.9 " fill="#B57E41"></path><path d="M 442.4 122.6 C 443.6 122.6 444.6 121.5 444.6 120.3 C 444.6 119.0 443.6 118.0 442.4 118.0 C 441.1 118.0 440.1 119.0 440.1 120.3 C 440.1 121.5 441.1 122.6 442.4 122.6 " fill="#DDE6DD"></path><path d="M 452.3 123.9 C 454.3 123.9 455.9 122.3 455.9 120.3 C 455.9 118.3 454.3 116.7 452.3 116.7 C 450.4 116.7 448.7 118.3 448.7 120.3 C 448.7 122.3 450.4 123.9 452.3 123.9 " fill="#B57E41"></path><path d="M 452.3 122.6 C 453.6 122.6 454.6 121.5 454.6 120.3 C 454.6 119.0 453.6 118.0 452.3 118.0 C 451.1 118.0 450.1 119.0 450.1 120.3 C 450.1 121.5 451.1 122.6 452.3 122.6 " fill="#DDE6DD"></path><path d="M 401.6 198.6 C 403.5 198.6 405.1 197.0 405.1 195.0 C 405.1 193.0 403.5 191.4 401.6 191.4 C 399.6 191.4 398.0 193.0 398.0 195.0 C 398.0 197.0 399.6 198.6 401.6 198.6 " fill="#B57E41"></path><path d="M 401.6 197.3 C 402.8 197.3 403.8 196.2 403.8 195.0 C 403.8 193.7 402.8 192.7 401.6 192.7 C 400.3 192.7 399.3 193.7 399.3 195.0 C 399.3 196.2 400.3 197.3 401.6 197.3 " fill="#DDE6DD"></path><path d="M 401.7 188.6 C 403.7 188.6 405.3 187.0 405.3 185.0 C 405.3 183.0 403.7 181.4 401.7 181.4 C 399.7 181.4 398.1 183.0 398.1 185.0 C 398.1 187.0 399.7 188.6 401.7 188.6 " fill="#B57E41"></path><path d="M 401.7 187.3 C 402.9 187.3 404.0 186.2 404.0 185.0 C 404.0 183.7 402.9 182.7 401.7 182.7 C 400.4 182.7 399.4 183.7 399.4 185.0 C 399.4 186.2 400.4 187.3 401.7 187.3 " fill="#DDE6DD"></path><path d="M 412.2 188.6 C 414.1 188.6 415.7 187.0 415.7 185.0 C 415.7 183.0 414.1 181.4 412.2 181.4 C 410.2 181.4 408.6 183.0 408.6 185.0 C 408.6 187.0 410.2 188.6 412.2 188.6 " fill="#B57E41"></path><path d="M 412.2 187.3 C 413.4 187.3 414.4 186.2 414.4 185.0 C 414.4 183.7 413.4 182.7 412.2 182.7 C 410.9 182.7 409.9 183.7 409.9 185.0 C 409.9 186.2 410.9 187.3 412.2 187.3 " fill="#DDE6DD"></path><path d="M 421.9 188.6 C 423.8 188.6 425.4 187.0 425.4 185.0 C 425.4 183.0 423.8 181.4 421.9 181.4 C 419.9 181.4 418.3 183.0 418.3 185.0 C 418.3 187.0 419.9 188.6 421.9 188.6 " fill="#B57E41"></path><path d="M 421.9 187.3 C 423.1 187.3 424.1 186.2 424.1 185.0 C 424.1 183.7 423.1 182.7 421.9 182.7 C 420.6 182.7 419.6 183.7 419.6 185.0 C 419.6 186.2 420.6 187.3 421.9 187.3 " fill="#DDE6DD"></path><path d="M 472.4 189.2 C 474.4 189.2 476.0 187.6 476.0 185.6 C 476.0 183.6 474.4 182.0 472.4 182.0 C 470.4 182.0 468.8 183.6 468.8 185.6 C 468.8 187.6 470.4 189.2 472.4 189.2 " fill="#B57E41"></path><path d="M 472.4 187.9 C 473.6 187.9 474.7 186.9 474.7 185.6 C 474.7 184.4 473.6 183.3 472.4 183.3 C 471.1 183.3 470.1 184.4 470.1 185.6 C 470.1 186.9 471.1 187.9 472.4 187.9 " fill="#DDE6DD"></path><path d="M 401.6 164.5 C 403.5 164.5 405.1 162.8 405.1 160.9 C 405.1 158.9 403.5 157.3 401.6 157.3 C 399.6 157.3 398.0 158.9 398.0 160.9 C 398.0 162.8 399.6 164.5 401.6 164.5 " fill="#B57E41"></path><path d="M 401.6 163.1 C 402.8 163.1 403.8 162.1 403.8 160.9 C 403.8 159.6 402.8 158.6 401.6 158.6 C 400.3 158.6 399.3 159.6 399.3 160.9 C 399.3 162.1 400.3 163.1 401.6 163.1 " fill="#DDE6DD"></path><path d="M 412.2 164.5 C 414.1 164.5 415.7 162.8 415.7 160.9 C 415.7 158.9 414.1 157.3 412.2 157.3 C 410.2 157.3 408.6 158.9 408.6 160.9 C 408.6 162.8 410.2 164.5 412.2 164.5 " fill="#B57E41"></path><path d="M 412.2 163.1 C 413.4 163.1 414.4 162.1 414.4 160.9 C 414.4 159.6 413.4 158.6 412.2 158.6 C 410.9 158.6 409.9 159.6 409.9 160.9 C 409.9 162.1 410.9 163.1 412.2 163.1 " fill="#DDE6DD"></path><path d="M 422.4 164.5 C 424.4 164.5 426.0 162.8 426.0 160.9 C 426.0 158.9 424.4 157.3 422.4 157.3 C 420.4 157.3 418.8 158.9 418.8 160.9 C 418.8 162.8 420.4 164.5 422.4 164.5 " fill="#B57E41"></path><path d="M 422.4 163.1 C 423.6 163.1 424.7 162.1 424.7 160.9 C 424.7 159.6 423.6 158.6 422.4 158.6 C 421.1 158.6 420.1 159.6 420.1 160.9 C 420.1 162.1 421.1 163.1 422.4 163.1 " fill="#DDE6DD"></path><path d="M 432.2 164.5 C 434.1 164.5 435.7 162.8 435.7 160.9 C 435.7 158.9 434.1 157.3 432.2 157.3 C 430.2 157.3 428.6 158.9 428.6 160.9 C 428.6 162.8 430.2 164.5 432.2 164.5 " fill="#B57E41"></path><path d="M 432.2 163.1 C 433.4 163.1 434.4 162.1 434.4 160.9 C 434.4 159.6 433.4 158.6 432.2 158.6 C 430.9 158.6 429.9 159.6 429.9 160.9 C 429.9 162.1 430.9 163.1 432.2 163.1 " fill="#DDE6DD"></path><path d="M 442.0 164.5 C 444.0 164.5 445.6 162.8 445.6 160.9 C 445.6 158.9 444.0 157.3 442.0 157.3 C 440.1 157.3 438.5 158.9 438.5 160.9 C 438.5 162.8 440.1 164.5 442.0 164.5 " fill="#B57E41"></path><path d="M 442.0 163.1 C 443.3 163.1 444.3 162.1 444.3 160.9 C 444.3 159.6 443.3 158.6 442.0 158.6 C 440.8 158.6 439.8 159.6 439.8 160.9 C 439.8 162.1 440.8 163.1 442.0 163.1 " fill="#DDE6DD"></path><path d="M 452.2 164.5 C 454.2 164.5 455.8 162.8 455.8 160.9 C 455.8 158.9 454.2 157.3 452.2 157.3 C 450.2 157.3 448.6 158.9 448.6 160.9 C 448.6 162.8 450.2 164.5 452.2 164.5 " fill="#B57E41"></path><path d="M 452.2 163.1 C 453.5 163.1 454.5 162.1 454.5 160.9 C 454.5 159.6 453.5 158.6 452.2 158.6 C 450.9 158.6 449.9 159.6 449.9 160.9 C 449.9 162.1 450.9 163.1 452.2 163.1 " fill="#DDE6DD"></path><path d="M 462.5 164.5 C 464.5 164.5 466.1 162.8 466.1 160.9 C 466.1 158.9 464.5 157.3 462.5 157.3 C 460.6 157.3 459.0 158.9 459.0 160.9 C 459.0 162.8 460.6 164.5 462.5 164.5 " fill="#B57E41"></path><path d="M 462.5 163.1 C 463.8 163.1 464.8 162.1 464.8 160.9 C 464.8 159.6 463.8 158.6 462.5 158.6 C 461.3 158.6 460.3 159.6 460.3 160.9 C 460.3 162.1 461.3 163.1 462.5 163.1 " fill="#DDE6DD"></path><path d="M 472.4 164.5 C 474.4 164.5 476.0 162.8 476.0 160.9 C 476.0 158.9 474.4 157.3 472.4 157.3 C 470.4 157.3 468.8 158.9 468.8 160.9 C 468.8 162.8 470.4 164.5 472.4 164.5 " fill="#B57E41"></path><path d="M 472.4 163.1 C 473.6 163.1 474.7 162.1 474.7 160.9 C 474.7 159.6 473.6 158.6 472.4 158.6 C 471.1 158.6 470.1 159.6 470.1 160.9 C 470.1 162.1 471.1 163.1 472.4 163.1 " fill="#DDE6DD"></path><path d="M 401.9 154.5 C 403.9 154.5 405.5 152.9 405.5 150.9 C 405.5 148.9 403.9 147.3 401.9 147.3 C 400.0 147.3 398.4 148.9 398.4 150.9 C 398.4 152.9 400.0 154.5 401.9 154.5 " fill="#B57E41"></path><path d="M 401.9 153.2 C 403.2 153.2 404.2 152.2 404.2 150.9 C 404.2 149.7 403.2 148.6 401.9 148.6 C 400.7 148.6 399.7 149.7 399.7 150.9 C 399.7 152.2 400.7 153.2 401.9 153.2 " fill="#DDE6DD"></path><path d="M 412.5 154.5 C 414.5 154.5 416.1 152.9 416.1 150.9 C 416.1 148.9 414.5 147.3 412.5 147.3 C 410.5 147.3 408.9 148.9 408.9 150.9 C 408.9 152.9 410.5 154.5 412.5 154.5 " fill="#B57E41"></path><path d="M 412.5 153.2 C 413.8 153.2 414.8 152.2 414.8 150.9 C 414.8 149.7 413.8 148.6 412.5 148.6 C 411.2 148.6 410.2 149.7 410.2 150.9 C 410.2 152.2 411.2 153.2 412.5 153.2 " fill="#DDE6DD"></path><path d="M 422.8 154.5 C 424.8 154.5 426.4 152.9 426.4 150.9 C 426.4 148.9 424.8 147.3 422.8 147.3 C 420.8 147.3 419.2 148.9 419.2 150.9 C 419.2 152.9 420.8 154.5 422.8 154.5 " fill="#B57E41"></path><path d="M 422.8 153.2 C 424.0 153.2 425.1 152.2 425.1 150.9 C 425.1 149.7 424.0 148.6 422.8 148.6 C 421.5 148.6 420.5 149.7 420.5 150.9 C 420.5 152.2 421.5 153.2 422.8 153.2 " fill="#DDE6DD"></path><path d="M 432.5 154.5 C 434.5 154.5 436.1 152.9 436.1 150.9 C 436.1 148.9 434.5 147.3 432.5 147.3 C 430.6 147.3 429.0 148.9 429.0 150.9 C 429.0 152.9 430.6 154.5 432.5 154.5 " fill="#B57E41"></path><path d="M 432.5 153.2 C 433.8 153.2 434.8 152.2 434.8 150.9 C 434.8 149.7 433.8 148.6 432.5 148.6 C 431.3 148.6 430.3 149.7 430.3 150.9 C 430.3 152.2 431.3 153.2 432.5 153.2 " fill="#DDE6DD"></path><path d="M 442.4 154.5 C 444.3 154.5 446.0 152.9 446.0 150.9 C 446.0 148.9 444.3 147.3 442.4 147.3 C 440.4 147.3 438.8 148.9 438.8 150.9 C 438.8 152.9 440.4 154.5 442.4 154.5 " fill="#B57E41"></path><path d="M 442.4 153.2 C 443.6 153.2 444.6 152.2 444.6 150.9 C 444.6 149.7 443.6 148.6 442.4 148.6 C 441.1 148.6 440.1 149.7 440.1 150.9 C 440.1 152.2 441.1 153.2 442.4 153.2 " fill="#DDE6DD"></path><path d="M 452.6 154.5 C 454.6 154.5 456.2 152.9 456.2 150.9 C 456.2 148.9 454.6 147.3 452.6 147.3 C 450.6 147.3 449.0 148.9 449.0 150.9 C 449.0 152.9 450.6 154.5 452.6 154.5 " fill="#B57E41"></path><path d="M 452.6 153.2 C 453.8 153.2 454.9 152.2 454.9 150.9 C 454.9 149.7 453.8 148.6 452.6 148.6 C 451.3 148.6 450.3 149.7 450.3 150.9 C 450.3 152.2 451.3 153.2 452.6 153.2 " fill="#DDE6DD"></path><path d="M 462.9 154.5 C 464.9 154.5 466.5 152.9 466.5 150.9 C 466.5 148.9 464.9 147.3 462.9 147.3 C 461.0 147.3 459.4 148.9 459.4 150.9 C 459.4 152.9 461.0 154.5 462.9 154.5 " fill="#B57E41"></path><path d="M 462.9 153.2 C 464.2 153.2 465.2 152.2 465.2 150.9 C 465.2 149.7 464.2 148.6 462.9 148.6 C 461.7 148.6 460.7 149.7 460.7 150.9 C 460.7 152.2 461.7 153.2 462.9 153.2 " fill="#DDE6DD"></path><path d="M 472.8 154.5 C 474.7 154.5 476.3 152.9 476.3 150.9 C 476.3 148.9 474.7 147.3 472.8 147.3 C 470.8 147.3 469.2 148.9 469.2 150.9 C 469.2 152.9 470.8 154.5 472.8 154.5 " fill="#B57E41"></path><path d="M 472.8 153.2 C 474.0 153.2 475.0 152.2 475.0 150.9 C 475.0 149.7 474.0 148.6 472.8 148.6 C 471.5 148.6 470.5 149.7 470.5 150.9 C 470.5 152.2 471.5 153.2 472.8 153.2 " fill="#DDE6DD"></path><path d="M 401.9 144.1 C 403.9 144.1 405.5 142.5 405.5 140.5 C 405.5 138.5 403.9 136.9 401.9 136.9 C 400.0 136.9 398.4 138.5 398.4 140.5 C 398.4 142.5 400.0 144.1 401.9 144.1 " fill="#B57E41"></path><path d="M 401.9 142.8 C 403.2 142.8 404.2 141.8 404.2 140.5 C 404.2 139.3 403.2 138.2 401.9 138.2 C 400.7 138.2 399.7 139.3 399.7 140.5 C 399.7 141.8 400.7 142.8 401.9 142.8 " fill="#DDE6DD"></path><path d="M 412.5 144.1 C 414.5 144.1 416.1 142.5 416.1 140.5 C 416.1 138.5 414.5 136.9 412.5 136.9 C 410.5 136.9 408.9 138.5 408.9 140.5 C 408.9 142.5 410.5 144.1 412.5 144.1 " fill="#B57E41"></path><path d="M 412.5 142.8 C 413.8 142.8 414.8 141.8 414.8 140.5 C 414.8 139.3 413.8 138.2 412.5 138.2 C 411.2 138.2 410.2 139.3 410.2 140.5 C 410.2 141.8 411.2 142.8 412.5 142.8 " fill="#DDE6DD"></path><path d="M 422.8 144.1 C 424.8 144.1 426.4 142.5 426.4 140.5 C 426.4 138.5 424.8 136.9 422.8 136.9 C 420.8 136.9 419.2 138.5 419.2 140.5 C 419.2 142.5 420.8 144.1 422.8 144.1 " fill="#B57E41"></path><path d="M 422.8 142.8 C 424.0 142.8 425.1 141.8 425.1 140.5 C 425.1 139.3 424.0 138.2 422.8 138.2 C 421.5 138.2 420.5 139.3 420.5 140.5 C 420.5 141.8 421.5 142.8 422.8 142.8 " fill="#DDE6DD"></path><path d="M 432.5 144.1 C 434.5 144.1 436.1 142.5 436.1 140.5 C 436.1 138.5 434.5 136.9 432.5 136.9 C 430.6 136.9 429.0 138.5 429.0 140.5 C 429.0 142.5 430.6 144.1 432.5 144.1 " fill="#B57E41"></path><path d="M 432.5 142.8 C 433.8 142.8 434.8 141.8 434.8 140.5 C 434.8 139.3 433.8 138.2 432.5 138.2 C 431.3 138.2 430.3 139.3 430.3 140.5 C 430.3 141.8 431.3 142.8 432.5 142.8 " fill="#DDE6DD"></path><path d="M 442.4 144.1 C 444.3 144.1 446.0 142.5 446.0 140.5 C 446.0 138.5 444.3 136.9 442.4 136.9 C 440.4 136.9 438.8 138.5 438.8 140.5 C 438.8 142.5 440.4 144.1 442.4 144.1 " fill="#B57E41"></path><path d="M 442.4 142.8 C 443.6 142.8 444.6 141.8 444.6 140.5 C 444.6 139.3 443.6 138.2 442.4 138.2 C 441.1 138.2 440.1 139.3 440.1 140.5 C 440.1 141.8 441.1 142.8 442.4 142.8 " fill="#DDE6DD"></path><path d="M 452.6 144.1 C 454.6 144.1 456.2 142.5 456.2 140.5 C 456.2 138.5 454.6 136.9 452.6 136.9 C 450.6 136.9 449.0 138.5 449.0 140.5 C 449.0 142.5 450.6 144.1 452.6 144.1 " fill="#B57E41"></path><path d="M 452.6 142.8 C 453.8 142.8 454.9 141.8 454.9 140.5 C 454.9 139.3 453.8 138.2 452.6 138.2 C 451.3 138.2 450.3 139.3 450.3 140.5 C 450.3 141.8 451.3 142.8 452.6 142.8 " fill="#DDE6DD"></path><path d="M 462.9 144.1 C 464.9 144.1 466.5 142.5 466.5 140.5 C 466.5 138.5 464.9 136.9 462.9 136.9 C 461.0 136.9 459.4 138.5 459.4 140.5 C 459.4 142.5 461.0 144.1 462.9 144.1 " fill="#B57E41"></path><path d="M 462.9 142.8 C 464.2 142.8 465.2 141.8 465.2 140.5 C 465.2 139.3 464.2 138.2 462.9 138.2 C 461.7 138.2 460.7 139.3 460.7 140.5 C 460.7 141.8 461.7 142.8 462.9 142.8 " fill="#DDE6DD"></path><path d="M 472.8 144.1 C 474.7 144.1 476.3 142.5 476.3 140.5 C 476.3 138.5 474.7 136.9 472.8 136.9 C 470.8 136.9 469.2 138.5 469.2 140.5 C 469.2 142.5 470.8 144.1 472.8 144.1 " fill="#B57E41"></path><path d="M 472.8 142.8 C 474.0 142.8 475.0 141.8 475.0 140.5 C 475.0 139.3 474.0 138.2 472.8 138.2 C 471.5 138.2 470.5 139.3 470.5 140.5 C 470.5 141.8 471.5 142.8 472.8 142.8 " fill="#DDE6DD"></path><path d="M 400.9 215.7 L 407.9 215.7 L 407.9 209.1 L 400.9 209.1 Z M 400.9 215.7 " fill="#DDE6DD"></path><path d="M 417.7 193.9 L 416.1 194.1 L 416.1 195.4 L 417.6 195.4 L 417.6 198.6 L 416.1 198.5 L 416.1 199.8 L 417.5 199.9 L 417.5 203.8 L 416.1 203.8 L 416.1 205.0 L 422.8 205.0 L 424.1 205.0 L 424.1 203.8 L 422.5 203.8 L 422.5 200.1 L 424.1 200.1 L 424.1 198.6 L 422.8 198.6 L 422.8 195.6 L 424.1 195.6 L 424.1 194.0 L 422.8 194.0 L 422.8 193.3 L 417.7 193.3 Z M 417.7 193.9 " fill="#DDE6DD"></path><path d="M 418.3 205.0 L 422.1 205.0 L 422.1 193.3 L 418.3 193.3 Z M 418.3 205.0 " fill="#715652"></path><path d="M 423.6 214.1 L 426.2 214.1 L 426.2 211.7 L 423.6 211.7 Z M 423.6 214.1 " fill="#DDE6DD"></path><path d="M 423.6 209.8 L 426.2 209.8 L 426.2 207.5 L 423.6 207.5 Z M 423.6 209.8 " fill="#DDE6DD"></path><path d="M 423.6 211.7 L 426.2 211.7 L 426.2 209.3 L 423.6 209.3 Z M 423.6 211.7 " fill="#715652"></path><path d="M 430.1 218.4 L 446.0 218.4 L 446.0 202.1 L 430.1 202.1 Z M 430.1 218.4 " fill="#1C1F27"></path><path d="M 432.2 202.1 L 432.9 202.1 L 432.9 201.0 L 432.2 201.0 Z M 432.2 202.1 " fill="#DDE6DD"></path><path d="M 434.4 202.1 L 435.2 202.1 L 435.2 201.0 L 434.4 201.0 Z M 434.4 202.1 " fill="#DDE6DD"></path><path d="M 436.6 202.1 L 437.4 202.1 L 437.4 201.0 L 436.6 201.0 Z M 436.6 202.1 " fill="#DDE6DD"></path><path d="M 438.5 202.1 L 439.2 202.1 L 439.2 201.0 L 438.5 201.0 Z M 438.5 202.1 " fill="#DDE6DD"></path><path d="M 440.6 202.1 L 441.4 202.1 L 441.4 201.0 L 440.6 201.0 Z M 440.6 202.1 " fill="#DDE6DD"></path><path d="M 443.0 202.1 L 443.8 202.1 L 443.8 201.0 L 443.0 201.0 Z M 443.0 202.1 " fill="#DDE6DD"></path><path d="M 432.3 219.4 L 433.1 219.4 L 433.1 218.3 L 432.3 218.3 Z M 432.3 219.4 " fill="#DDE6DD"></path><path d="M 434.6 219.4 L 435.3 219.4 L 435.3 218.3 L 434.6 218.3 Z M 434.6 219.4 " fill="#DDE6DD"></path><path d="M 436.7 219.4 L 437.5 219.4 L 437.5 218.3 L 436.7 218.3 Z M 436.7 219.4 " fill="#DDE6DD"></path><path d="M 438.5 219.4 L 439.3 219.4 L 439.3 218.3 L 438.5 218.3 Z M 438.5 219.4 " fill="#DDE6DD"></path><path d="M 440.7 219.4 L 441.5 219.4 L 441.5 218.3 L 440.7 218.3 Z M 440.7 219.4 " fill="#DDE6DD"></path><path d="M 443.2 219.4 L 443.9 219.4 L 443.9 218.3 L 443.2 218.3 Z M 443.2 219.4 " fill="#DDE6DD"></path><path d="M 446.0 216.0 L 447.1 216.0 L 447.1 215.2 L 446.0 215.2 Z M 446.0 216.0 " fill="#DDE6DD"></path><path d="M 446.0 213.7 L 447.1 213.7 L 447.1 212.9 L 446.0 212.9 Z M 446.0 213.7 " fill="#DDE6DD"></path><path d="M 446.0 211.6 L 447.1 211.6 L 447.1 210.8 L 446.0 210.8 Z M 446.0 211.6 " fill="#DDE6DD"></path><path d="M 446.0 209.7 L 447.1 209.7 L 447.1 209.0 L 446.0 209.0 Z M 446.0 209.7 " fill="#DDE6DD"></path><path d="M 446.0 207.5 L 447.1 207.5 L 447.1 206.7 L 446.0 206.7 Z M 446.0 207.5 " fill="#DDE6DD"></path><path d="M 446.0 205.1 L 447.1 205.1 L 447.1 204.3 L 446.0 204.3 Z M 446.0 205.1 " fill="#DDE6DD"></path><path d="M 429.1 216.0 L 430.2 216.0 L 430.2 215.2 L 429.1 215.2 Z M 429.1 216.0 " fill="#DDE6DD"></path><path d="M 429.1 213.7 L 430.2 213.7 L 430.2 212.9 L 429.1 212.9 Z M 429.1 213.7 " fill="#DDE6DD"></path><path d="M 429.1 211.6 L 430.2 211.6 L 430.2 210.8 L 429.1 210.8 Z M 429.1 211.6 " fill="#DDE6DD"></path><path d="M 429.1 209.7 L 430.2 209.7 L 430.2 209.0 L 429.1 209.0 Z M 429.1 209.7 " fill="#DDE6DD"></path><path d="M 429.1 207.5 L 430.2 207.5 L 430.2 206.7 L 429.1 206.7 Z M 429.1 207.5 " fill="#DDE6DD"></path><path d="M 429.1 205.1 L 430.2 205.1 L 430.2 204.3 L 429.1 204.3 Z M 429.1 205.1 " fill="#DDE6DD"></path><path d="M 459.8 201.3 L 463.7 201.3 L 463.7 197.0 L 459.8 197.0 Z M 459.8 201.3 " fill="#DDE6DD"></path><path d="M 459.8 195.5 L 463.7 195.5 L 463.7 191.2 L 459.8 191.2 Z M 459.8 195.5 " fill="#DDE6DD"></path><path d="M 467.5 201.3 L 471.3 201.3 L 471.3 197.0 L 467.5 197.0 Z M 467.5 201.3 " fill="#DDE6DD"></path><path d="M 467.5 195.5 L 471.3 195.5 L 471.3 191.2 L 467.5 191.2 Z M 467.5 195.5 " fill="#DDE6DD"></path><path d="M 463.7 201.3 L 467.5 201.3 L 467.5 197.0 L 463.7 197.0 Z M 463.7 201.3 " fill="#FFFFFF"></path><path d="M 463.7 195.5 L 467.5 195.5 L 467.5 191.2 L 463.7 191.2 Z M 463.7 195.5 " fill="#FFFFFF"></path><path d="M 412.6 287.7 L 460.1 287.7 L 460.1 225.0 L 412.6 225.0 Z M 412.6 287.7 " fill="#154281"></path><path d="M 468.8 276.9 C 470.7 276.9 472.2 275.3 472.2 273.5 C 472.2 271.6 470.7 270.1 468.8 270.1 C 466.9 270.1 465.4 271.6 465.4 273.5 C 465.4 275.3 466.9 276.9 468.8 276.9 " fill="#B57E41"></path><path d="M 468.8 274.7 C 469.5 274.7 470.0 274.1 470.0 273.5 C 470.0 272.8 469.5 272.2 468.8 272.2 C 468.1 272.2 467.6 272.8 467.6 273.5 C 467.6 274.1 468.1 274.7 468.8 274.7 " fill="#DDE6DD"></path><path d="M 468.8 266.8 C 470.7 266.8 472.2 265.3 472.2 263.4 C 472.2 261.5 470.7 260.0 468.8 260.0 C 466.9 260.0 465.4 261.5 465.4 263.4 C 465.4 265.3 466.9 266.8 468.8 266.8 " fill="#B57E41"></path><path d="M 468.8 264.6 C 469.5 264.6 470.0 264.1 470.0 263.4 C 470.0 262.7 469.5 262.1 468.8 262.1 C 468.1 262.1 467.6 262.7 467.6 263.4 C 467.6 264.1 468.1 264.6 468.8 264.6 " fill="#DDE6DD"></path><path d="M 468.8 256.4 C 470.7 256.4 472.2 254.9 472.2 253.0 C 472.2 251.1 470.7 249.6 468.8 249.6 C 466.9 249.6 465.4 251.1 465.4 253.0 C 465.4 254.9 466.9 256.4 468.8 256.4 " fill="#B57E41"></path><path d="M 468.8 254.2 C 469.5 254.2 470.0 253.7 470.0 253.0 C 470.0 252.3 469.5 251.8 468.8 251.8 C 468.1 251.8 467.6 252.3 467.6 253.0 C 467.6 253.7 468.1 254.2 468.8 254.2 " fill="#DDE6DD"></path></g></g></g></g><g><clipPath id="clip0x6180008bfec0"><path d="M 397.0 296.0 L 477.0 296.0 L 477.0 114.0 L 397.0 114.0 Z M 397.0 296.0 "></path></clipPath><g clip-path="url(#clip0x6180008bfec0)"><g><clipPath id="clip0x618000aa40e0"><path d="M 397.1 114.0 L 477.0 114.0 L 477.0 295.8 L 397.1 295.8 Z M 397.1 114.0 "></path></clipPath><g clip-path="url(#clip0x618000aa40e0)"><g><g><clipPath id="clip0x618000aa42c0"><path d="M 398.1 172.5 L 406.8 172.5 L 406.8 184.1 L 398.1 184.1 Z M 398.1 172.5 "></path></clipPath><g clip-path="url(#clip0x618000aa42c0)"><text xml:space="preserve" font-family="Silom,Silom" font-weight="bold" font-size="12.2" fill="#010202" transform="matrix(0.53, 0.00, -0.00, -0.53, 398.1, 175.8)">A</text><text xml:space="preserve" font-family="Silom,Silom" font-weight="bold" font-size="12.2" fill="#010202" transform="matrix(0.53, 0.00, -0.00, -0.53, 402.5, 175.8)">0</text></g></g></g></g></g></g></g><g><clipPath id="clip0x618000aa4560"><path d="M 397.0 296.0 L 477.0 296.0 L 477.0 114.0 L 397.0 114.0 Z M 397.0 296.0 "></path></clipPath><g clip-path="url(#clip0x618000aa4560)"><g><clipPath id="clip0x618000aa46e0"><path d="M 397.1 114.0 L 477.0 114.0 L 477.0 295.8 L 397.1 295.8 Z M 397.1 114.0 "></path></clipPath><g clip-path="url(#clip0x618000aa46e0)"><g><g><clipPath id="clip0x618000aa48c0"><path d="M 472.4 198.4 L 475.9 198.4 L 475.9 207.6 L 472.4 207.6 Z M 472.4 198.4 "></path></clipPath><g clip-path="url(#clip0x618000aa48c0)"><text xml:space="preserve" font-family="Silom,Silom" font-weight="bold" font-size="9.8" fill="#010202" transform="matrix(0.53, 0.00, -0.00, -0.53, 472.4, 201.0)">G</text></g></g></g></g></g></g></g><g><clipPath id="clip0x618000aa4b00"><path d="M 397.0 296.0 L 477.0 296.0 L 477.0 114.0 L 397.0 114.0 Z M 397.0 296.0 "></path></clipPath><g clip-path="url(#clip0x618000aa4b00)"><g><clipPath id="clip0x618000aa4c80"><path d="M 397.1 114.0 L 477.0 114.0 L 477.0 295.8 L 397.1 295.8 Z M 397.1 114.0 "></path></clipPath><g clip-path="url(#clip0x618000aa4c80)"><g><g><clipPath id="clip0x618000aa4e60"><path d="M 472.4 193.9 L 476.3 193.9 L 476.3 203.1 L 472.4 203.1 Z M 472.4 193.9 "></path></clipPath><g clip-path="url(#clip0x618000aa4e60)"><text xml:space="preserve" font-family="Silom,Silom" font-weight="bold" font-size="9.8" fill="#010202" transform="matrix(0.53, 0.00, -0.00, -0.53, 472.4, 196.4)">N</text></g></g></g></g></g></g></g><g><clipPath id="clip0x618000aa50a0"><path d="M 397.0 296.0 L 477.0 296.0 L 477.0 114.0 L 397.0 114.0 Z M 397.0 296.0 "></path></clipPath><g clip-path="url(#clip0x618000aa50a0)"><g><clipPath id="clip0x618000aa5220"><path d="M 397.1 114.0 L 477.0 114.0 L 477.0 295.8 L 397.1 295.8 Z M 397.1 114.0 "></path></clipPath><g clip-path="url(#clip0x618000aa5220)"><g><g><clipPath id="clip0x618000aa5400"><path d="M 472.4 189.3 L 475.9 189.3 L 475.9 198.5 L 472.4 198.5 Z M 472.4 189.3 "></path></clipPath><g clip-path="url(#clip0x618000aa5400)"><text xml:space="preserve" font-family="Silom,Silom" font-weight="bold" font-size="9.8" fill="#010202" transform="matrix(0.53, 0.00, -0.00, -0.53, 472.4, 191.9)">D</text></g></g></g></g></g></g></g><g><clipPath id="clip0x618000aa5640"><path d="M 397.0 296.0 L 477.0 296.0 L 477.0 114.0 L 397.0 114.0 Z M 397.0 296.0 "></path></clipPath><g clip-path="url(#clip0x618000aa5640)"><g><clipPath id="clip0x618000aa57c0"><path d="M 397.1 114.0 L 477.0 114.0 L 477.0 295.8 L 397.1 295.8 Z M 397.1 114.0 "></path></clipPath><g clip-path="url(#clip0x618000aa57c0)"><g><g><clipPath id="clip0x618000aa59a0"><path d="M 398.1 198.4 L 407.7 198.4 L 407.7 207.6 L 398.1 207.6 Z M 398.1 198.4 "></path></clipPath><g clip-path="url(#clip0x618000aa59a0)"><text xml:space="preserve" font-family="Silom,Silom" font-weight="bold" font-size="9.8" fill="#010202" transform="matrix(0.53, 0.00, -0.00, -0.53, 398.1, 201.0)">B</text><text xml:space="preserve" font-family="Silom,Silom" font-weight="bold" font-size="9.8" fill="#010202" transform="matrix(0.53, 0.00, -0.00, -0.53, 401.6, 201.0)">A</text><text xml:space="preserve" font-family="Silom,Silom" font-weight="bold" font-size="9.8" fill="#010202" transform="matrix(0.53, 0.00, -0.00, -0.53, 405.1, 201.0)">T</text></g></g></g></g></g></g></g><g><clipPath id="clip0x618000aa5ca0"><path d="M 397.0 296.0 L 477.0 296.0 L 477.0 114.0 L 397.0 114.0 Z M 397.0 296.0 "></path></clipPath><g clip-path="url(#clip0x618000aa5ca0)"><g><clipPath id="clip0x618000aa5e20"><path d="M 397.1 114.0 L 477.0 114.0 L 477.0 295.8 L 397.1 295.8 Z M 397.1 114.0 "></path></clipPath><g clip-path="url(#clip0x618000aa5e20)"><g><g><clipPath id="clip0x618000aa6000"><path d="M 408.1 192.3 L 416.9 192.3 L 416.9 201.4 L 408.1 201.4 Z M 408.1 192.3 "></path></clipPath><g clip-path="url(#clip0x618000aa6000)"><text xml:space="preserve" font-family="Silom,Silom" font-weight="bold" font-size="9.8" fill="#010202" transform="matrix(0.39, -0.36, -0.36, -0.39, 409.9, 196.5)">G</text></g></g></g></g></g></g></g><g><clipPath id="clip0x618000aa6240"><path d="M 397.0 296.0 L 477.0 296.0 L 477.0 114.0 L 397.0 114.0 Z M 397.0 296.0 "></path></clipPath><g clip-path="url(#clip0x618000aa6240)"><g><clipPath id="clip0x618000aa63c0"><path d="M 397.1 114.0 L 477.0 114.0 L 477.0 295.8 L 397.1 295.8 Z M 397.1 114.0 "></path></clipPath><g clip-path="url(#clip0x618000aa63c0)"><g><g><clipPath id="clip0x618000aa65a0"><path d="M 405.0 188.6 L 414.1 188.6 L 414.1 198.0 L 405.0 198.0 Z M 405.0 188.6 "></path></clipPath><g clip-path="url(#clip0x618000aa65a0)"><text xml:space="preserve" font-family="Silom,Silom" font-weight="bold" font-size="9.8" fill="#010202" transform="matrix(0.39, -0.36, -0.36, -0.39, 406.8, 193.2)">N</text></g></g></g></g></g></g></g><g><clipPath id="clip0x618000aa67e0"><path d="M 397.0 296.0 L 477.0 296.0 L 477.0 114.0 L 397.0 114.0 Z M 397.0 296.0 "></path></clipPath><g clip-path="url(#clip0x618000aa67e0)"><g><clipPath id="clip0x618000aa6960"><path d="M 397.1 114.0 L 477.0 114.0 L 477.0 295.8 L 397.1 295.8 Z M 397.1 114.0 "></path></clipPath><g clip-path="url(#clip0x618000aa6960)"><g><g><clipPath id="clip0x618000aa6b40"><path d="M 401.9 185.6 L 410.7 185.6 L 410.7 194.7 L 401.9 194.7 Z M 401.9 185.6 "></path></clipPath><g clip-path="url(#clip0x618000aa6b40)"><text xml:space="preserve" font-family="Silom,Silom" font-weight="bold" font-size="9.8" fill="#010202" transform="matrix(0.39, -0.36, -0.36, -0.39, 403.7, 189.8)">D</text></g></g></g></g></g></g></g><g><clipPath id="clip0x618000aa6d80"><path d="M 397.0 296.0 L 477.0 296.0 L 477.0 114.0 L 397.0 114.0 Z M 397.0 296.0 "></path></clipPath><g clip-path="url(#clip0x618000aa6d80)"><g><clipPath id="clip0x618000aa6f00"><path d="M 397.1 114.0 L 477.0 114.0 L 477.0 295.8 L 397.1 295.8 Z M 397.1 114.0 "></path></clipPath><g clip-path="url(#clip0x618000aa6f00)"><g><g><clipPath id="clip0x618000aa70e0"><path d="M 411.6 186.2 L 420.4 186.2 L 420.4 195.3 L 411.6 195.3 Z M 411.6 186.2 "></path></clipPath><g clip-path="url(#clip0x618000aa70e0)"><text xml:space="preserve" font-family="Silom,Silom" font-weight="bold" font-size="9.8" fill="#010202" transform="matrix(0.39, -0.36, -0.36, -0.39, 413.3, 190.5)">R</text></g></g></g></g></g></g></g><g><clipPath id="clip0x618000aa7320"><path d="M 397.0 296.0 L 477.0 296.0 L 477.0 114.0 L 397.0 114.0 Z M 397.0 296.0 "></path></clipPath><g clip-path="url(#clip0x618000aa7320)"><g><clipPath id="clip0x618000aa74a0"><path d="M 397.1 114.0 L 477.0 114.0 L 477.0 295.8 L 397.1 295.8 Z M 397.1 114.0 "></path></clipPath><g clip-path="url(#clip0x618000aa74a0)"><g><g><clipPath id="clip0x618000aa7680"><path d="M 425.4 181.0 L 438.3 181.0 L 438.3 193.1 L 425.4 193.1 Z M 425.4 181.0 "></path></clipPath><g clip-path="url(#clip0x618000aa7680)"><text xml:space="preserve" font-family="Silom,Silom" font-weight="bold" font-size="9.8" fill="#010202" transform="matrix(0.50, 0.18, 0.18, -0.50, 427.6, 183.4)">V</text><text xml:space="preserve" font-family="Silom,Silom" font-weight="bold" font-size="9.8" fill="#010202" transform="matrix(0.50, 0.18, 0.18, -0.50, 431.0, 183.4)">C</text><text xml:space="preserve" font-family="Silom,Silom" font-weight="bold" font-size="9.8" fill="#010202" transform="matrix(0.50, 0.18, 0.18, -0.50, 434.5, 183.4)">C</text></g></g></g><path d="M 401.2 225.7 L 403.4 225.7 L 403.4 219.0 L 401.2 219.0 Z M 401.2 225.7 " fill="#DDE6DD"></path><path d="M 404.7 225.7 L 407.0 225.7 L 407.0 219.0 L 404.7 219.0 Z M 404.7 225.7 " fill="#DDE6DD"></path><path d="M 408.2 225.7 L 410.5 225.7 L 410.5 219.0 L 408.2 219.0 Z M 408.2 225.7 " fill="#DDE6DD"></path><path d="M 401.2 223.5 L 403.4 223.5 L 403.4 221.5 L 401.2 221.5 Z M 401.2 223.5 " fill="#EB5F51"></path><path d="M 404.7 223.5 L 407.0 223.5 L 407.0 221.5 L 404.7 221.5 Z M 404.7 223.5 " fill="#7ABB5E"></path><path d="M 408.2 223.5 L 410.5 223.5 L 410.5 221.5 L 408.2 221.5 Z M 408.2 223.5 " fill="#57BADE"></path><path d="M 403.4 257.1 L 409.3 257.1 L 409.3 243.1 L 403.4 243.1 Z M 403.4 257.1 " fill="#DDE6DD"></path><path d="M 403.4 274.6 L 407.0 274.6 L 407.0 264.3 L 403.4 264.3 Z M 403.4 274.6 " fill="#DDE6DD"></path><path d="M 403.4 271.3 L 407.0 271.3 L 407.0 267.7 L 403.4 267.7 Z M 403.4 271.3 " fill="#5C4A49"></path><path d="M 409.2 272.9 L 411.6 272.9 L 411.6 265.9 L 409.2 265.9 Z M 409.2 272.9 " fill="#DDE6DD"></path><path d="M 409.2 270.7 L 411.6 270.7 L 411.6 268.3 L 409.2 268.3 Z M 409.2 270.7 " fill="#5C4A49"></path><path d="M 466.8 214.1 L 469.2 214.1 L 469.2 207.1 L 466.8 207.1 Z M 466.8 214.1 " fill="#DDE6DD"></path><path d="M 466.8 211.8 L 469.2 211.8 L 469.2 209.4 L 466.8 209.4 Z M 466.8 211.8 " fill="#5C4A49"></path><path d="M 451.0 214.7 L 453.0 214.7 L 453.0 208.9 L 451.0 208.9 Z M 451.0 214.7 " fill="#DDE6DD"></path><path d="M 451.0 212.8 L 453.0 212.8 L 453.0 210.8 L 451.0 210.8 Z M 451.0 212.8 " fill="#5C4A49"></path><path d="M 450.1 219.4 L 455.9 219.4 L 455.9 217.4 L 450.1 217.4 Z M 450.1 219.4 " fill="#DDE6DD"></path><path d="M 452.0 219.4 L 454.0 219.4 L 454.0 217.4 L 452.0 217.4 Z M 452.0 219.4 " fill="#5C4A49"></path><path d="M 450.1 222.9 L 455.9 222.9 L 455.9 220.8 L 450.1 220.8 Z M 450.1 222.9 " fill="#DDE6DD"></path><path d="M 452.0 222.9 L 454.0 222.9 L 454.0 220.8 L 452.0 220.8 Z M 452.0 222.9 " fill="#5C4A49"></path><path d="M 464.5 222.5 L 470.3 222.5 L 470.3 220.5 L 464.5 220.5 Z M 464.5 222.5 " fill="#DDE6DD"></path><path d="M 466.4 222.5 L 468.4 222.5 L 468.4 220.5 L 466.4 220.5 Z M 466.4 222.5 " fill="#5C4A49"></path><path d="M 462.2 236.9 L 468.0 236.9 L 468.0 234.9 L 462.2 234.9 Z M 462.2 236.9 " fill="#DDE6DD"></path><path d="M 464.1 236.9 L 466.1 236.9 L 466.1 234.9 L 464.1 234.9 Z M 464.1 236.9 " fill="#5C4A49"></path><path d="M 454.3 214.7 L 456.3 214.7 L 456.3 208.9 L 454.3 208.9 Z M 454.3 214.7 " fill="#DDE6DD"></path><path d="M 454.3 212.8 L 456.3 212.8 L 456.3 210.8 L 454.3 210.8 Z M 454.3 212.8 " fill="#5C4A49"></path><path d="M 454.3 207.6 L 456.3 207.6 L 456.3 201.8 L 454.3 201.8 Z M 454.3 207.6 " fill="#DDE6DD"></path><path d="M 454.3 205.8 L 456.3 205.8 L 456.3 203.7 L 454.3 203.7 Z M 454.3 205.8 " fill="#5C4A49"></path><path d="M 451.0 207.6 L 453.0 207.6 L 453.0 201.8 L 451.0 201.8 Z M 451.0 207.6 " fill="#DDE6DD"></path><path d="M 451.0 205.8 L 453.0 205.8 L 453.0 203.7 L 451.0 203.7 Z M 451.0 205.8 " fill="#5C4A49"></path><path d="M 464.5 232.3 L 472.8 232.3 L 472.8 224.2 L 464.5 224.2 Z M 464.5 232.3 " fill="#1C2027"></path><path d="M 458.3 211.2 L 465.2 211.2 L 465.2 208.3 L 458.3 208.3 Z M 458.3 211.2 " fill="#1C2027"></path><path d="M 460.7 213.5 L 462.2 213.5 L 462.2 211.2 L 460.7 211.2 Z M 460.7 213.5 " fill="#DDE6DD"></path><path d="M 459.2 208.2 L 460.7 208.2 L 460.7 205.9 L 459.2 205.9 Z M 459.2 208.2 " fill="#DDE6DD"></path><path d="M 463.0 208.2 L 464.5 208.2 L 464.5 205.9 L 463.0 205.9 Z M 463.0 208.2 " fill="#DDE6DD"></path><path d="M 440.9 286.3 L 451.2 286.3 L 451.2 283.9 L 440.9 283.9 Z M 440.9 286.3 " fill="#DDE6DD"></path><path d="M 442.9 284.4 L 448.0 284.4 L 448.0 280.9 L 442.9 280.9 Z M 442.9 284.4 " fill="#DDE6DD"></path><path d="M 448.6 283.3 L 455.6 283.3 L 455.6 280.9 L 448.6 280.9 Z M 448.6 283.3 " fill="#DDE6DD"></path><path d="M 451.8 286.3 L 455.7 286.3 L 455.7 282.6 L 451.8 282.6 Z M 451.8 286.3 " fill="#DDE6DD"></path><path d="M 442.4 278.6 L 455.6 278.6 L 455.6 272.2 L 442.4 272.2 Z M 442.4 278.6 " fill="#233163"></path><path d="M 448.3 233.1 C 448.2 233.1 448.2 233.0 448.2 232.9 C 448.2 232.8 448.2 232.7 448.3 232.7 C 448.4 232.7 448.4 232.8 448.4 232.9 C 448.5 233.0 448.4 233.1 448.3 233.1 M 448.4 231.8 L 448.4 232.3 C 448.4 232.4 448.4 232.5 448.3 232.5 C 448.2 232.5 448.2 232.4 448.2 232.3 L 448.2 231.2 C 448.2 231.1 448.2 231.1 448.3 231.1 C 448.4 231.1 448.4 231.2 448.4 231.2 Z M 436.3 232.3 L 436.3 232.4 C 436.3 232.5 436.2 232.5 436.1 232.5 C 436.1 232.5 436.1 232.4 436.1 232.3 L 436.1 231.2 C 436.1 231.2 436.1 231.1 436.2 231.1 C 436.3 231.1 436.3 231.1 436.3 231.2 L 436.3 231.8 C 436.3 232.1 436.4 232.2 436.6 232.3 C 436.8 232.3 436.8 232.4 436.8 232.5 C 436.8 232.6 436.6 232.5 436.6 232.5 C 436.4 232.5 436.4 232.4 436.3 232.3 M 447.4 231.1 C 447.6 231.1 447.8 231.2 447.9 231.4 C 448.0 231.6 447.8 231.8 447.6 231.9 C 447.5 231.9 447.4 232.0 447.4 232.0 C 447.3 232.1 447.3 232.2 447.3 232.2 C 447.3 232.3 447.4 232.3 447.5 232.3 C 447.6 232.3 447.7 232.3 447.8 232.3 C 447.8 232.3 447.8 232.3 447.8 232.3 C 447.8 232.4 447.9 232.4 447.8 232.5 C 447.6 232.5 447.5 232.5 447.3 232.5 C 447.2 232.4 447.1 232.3 447.1 232.2 C 447.1 232.0 447.3 231.9 447.4 231.8 C 447.4 231.7 447.5 231.7 447.6 231.6 C 447.6 231.6 447.7 231.5 447.6 231.4 C 447.6 231.4 447.6 231.3 447.4 231.3 C 447.3 231.3 447.3 231.3 447.1 231.4 C 447.1 231.4 447.1 231.4 447.0 231.3 C 447.0 231.2 447.0 231.2 447.1 231.2 C 447.2 231.1 447.3 231.1 447.4 231.1 M 429.7 231.8 C 429.7 231.3 430.1 231.0 430.6 231.2 C 430.7 231.2 430.7 231.2 430.7 231.3 C 430.7 231.4 430.6 231.4 430.6 231.4 C 430.3 231.3 430.1 231.4 430.0 231.6 C 429.9 231.8 429.9 232.0 430.1 232.2 C 430.2 232.4 430.4 232.4 430.6 232.3 C 430.7 232.3 430.7 232.3 430.7 232.4 C 430.8 232.5 430.7 232.5 430.6 232.5 C 430.1 232.7 429.7 232.3 429.7 231.8 M 433.5 232.0 L 433.5 231.4 C 433.5 231.3 433.4 231.2 433.6 231.2 C 433.8 231.2 433.7 231.3 433.7 231.4 L 433.7 232.4 C 433.7 232.9 433.7 232.9 434.2 232.9 L 434.2 232.9 C 434.3 232.9 434.4 232.9 434.4 233.0 C 434.4 233.1 434.3 233.1 434.2 233.1 L 433.1 233.1 C 433.0 233.1 432.9 233.1 432.9 233.0 C 432.9 232.9 433.0 232.9 433.1 232.9 L 433.4 232.9 C 433.5 232.9 433.5 232.9 433.5 232.7 C 433.5 232.5 433.5 232.2 433.5 232.0 M 439.4 231.3 C 439.4 231.2 439.4 231.2 439.4 231.2 C 439.4 231.1 439.6 231.1 439.6 231.1 C 439.6 231.1 439.6 231.1 439.6 231.2 L 439.6 232.3 C 439.6 232.5 439.6 232.5 439.5 232.5 C 439.4 232.5 439.4 232.5 439.4 232.3 L 439.4 231.6 C 439.4 231.4 439.2 231.3 439.1 231.3 C 438.9 231.3 438.8 231.4 438.7 231.6 L 438.7 231.8 L 438.7 232.4 C 438.7 232.5 438.7 232.5 438.6 232.5 C 438.5 232.5 438.5 232.5 438.5 232.5 L 438.5 231.6 C 438.5 231.3 438.7 231.1 439.0 231.2 C 439.2 231.1 439.2 231.2 439.4 231.3 M 427.5 231.4 C 427.5 231.2 427.5 231.2 427.7 231.2 C 427.8 231.2 427.7 231.3 427.7 231.4 L 427.7 232.4 C 427.7 232.5 427.7 232.5 427.6 232.5 C 427.5 232.5 427.5 232.5 427.5 232.4 L 427.5 231.8 L 427.5 231.6 C 427.4 231.5 427.3 231.4 427.1 231.4 C 426.9 231.4 426.9 231.5 426.9 231.6 C 426.8 231.9 426.9 232.2 426.9 232.4 C 426.9 232.5 426.8 232.5 426.7 232.5 C 426.7 232.5 426.6 232.5 426.6 232.4 L 426.6 231.6 C 426.6 231.4 426.7 231.2 426.9 231.2 C 427.1 231.1 427.3 231.1 427.4 231.3 C 427.5 231.2 427.5 231.3 427.5 231.4 M 428.4 232.3 C 428.4 232.4 428.3 232.5 428.2 232.5 C 428.1 232.5 428.2 232.3 428.2 232.3 L 428.2 231.2 C 428.2 231.2 428.2 231.1 428.3 231.1 C 428.4 231.1 428.4 231.2 428.4 231.2 L 428.4 231.8 C 428.4 232.1 428.6 232.3 428.8 232.3 C 429.0 232.3 429.2 232.2 429.2 231.9 L 429.2 231.2 C 429.2 231.1 429.2 231.1 429.3 231.1 C 429.4 231.1 429.4 231.1 429.4 231.2 L 429.4 232.0 C 429.4 232.3 429.2 232.5 428.8 232.5 C 428.6 232.5 428.5 232.4 428.4 232.3 M 450.7 232.3 L 450.7 232.3 C 450.7 232.5 450.6 232.5 450.5 232.5 C 450.4 232.5 450.4 232.4 450.4 232.3 L 450.4 231.2 C 450.4 231.2 450.4 231.1 450.6 231.1 C 450.7 231.1 450.7 231.1 450.7 231.2 L 450.7 231.9 C 450.7 232.2 450.8 232.3 451.1 232.3 C 451.3 232.3 451.4 232.2 451.4 231.9 L 451.4 231.2 C 451.4 231.1 451.5 231.1 451.5 231.1 C 451.6 231.1 451.7 231.1 451.7 231.2 L 451.7 232.0 C 451.7 232.3 451.4 232.5 451.0 232.5 C 450.9 232.5 450.8 232.4 450.7 232.3 M 445.8 231.8 L 446.6 231.8 C 446.7 231.8 446.7 231.8 446.7 231.8 C 446.7 232.1 446.6 232.3 446.4 232.5 C 446.1 232.6 445.8 232.5 445.7 232.2 C 445.5 232.0 445.5 231.6 445.7 231.3 C 445.8 231.0 446.1 231.0 446.5 231.1 C 446.6 231.1 446.7 231.1 446.7 231.2 C 446.7 231.4 446.5 231.3 446.5 231.3 C 446.1 231.2 445.8 231.4 445.8 231.8 M 424.3 232.5 C 424.1 232.5 424.1 232.5 424.0 232.3 C 423.9 232.0 423.8 231.8 423.8 231.4 C 423.6 231.8 423.6 232.0 423.4 232.3 C 423.4 232.5 423.3 232.5 423.1 232.5 C 423.2 232.1 423.4 231.8 423.6 231.4 C 423.6 231.2 423.6 231.0 423.4 230.8 C 423.4 230.8 423.3 230.7 423.2 230.7 C 423.1 230.6 423.2 230.6 423.2 230.5 C 423.2 230.5 423.2 230.5 423.3 230.5 C 423.5 230.6 423.6 230.8 423.8 231.0 C 423.9 231.5 424.1 232.0 424.3 232.5 M 436.8 231.8 C 436.8 231.4 437.1 231.1 437.5 231.1 C 437.9 231.1 438.1 231.4 438.1 231.8 C 438.1 232.3 437.9 232.5 437.5 232.5 C 437.1 232.5 436.8 232.3 436.8 231.8 M 425.6 233.1 L 425.3 233.1 C 425.3 233.1 425.2 233.0 425.2 232.9 L 425.2 231.3 C 425.2 231.2 425.3 231.2 425.3 231.2 C 425.4 231.2 425.4 231.2 425.4 231.3 L 425.4 231.8 C 425.4 231.9 425.4 232.0 425.6 232.0 C 425.8 232.0 425.9 232.0 426.0 232.0 C 426.3 232.2 426.4 232.3 426.4 232.6 C 426.4 232.9 426.2 233.0 425.9 233.1 Z M 441.8 232.3 L 441.8 233.0 C 441.8 233.1 441.8 233.1 441.7 233.1 C 441.7 233.1 441.6 233.1 441.6 233.0 L 441.6 231.2 C 441.6 231.2 441.7 231.1 441.7 231.1 C 441.8 231.1 441.8 231.1 441.8 231.2 L 441.8 231.9 C 441.8 232.2 442.0 232.3 442.2 232.3 C 442.4 232.3 442.6 232.2 442.6 231.9 L 442.6 231.2 C 442.6 231.1 442.6 231.2 442.7 231.2 C 442.8 231.2 442.8 231.2 442.8 231.3 L 442.8 232.1 C 442.8 232.3 442.8 232.4 442.6 232.5 C 442.4 232.6 442.2 232.6 442.0 232.5 C 442.0 232.4 441.9 232.3 441.8 232.3 M 434.7 232.3 L 434.7 233.1 C 434.7 233.1 434.7 233.2 434.6 233.2 C 434.5 233.2 434.4 233.2 434.4 233.1 L 434.4 231.3 C 434.4 231.2 434.5 231.2 434.6 231.2 C 434.6 231.2 434.7 231.2 434.7 231.3 L 434.7 232.0 C 434.7 232.2 434.8 232.4 435.1 232.4 C 435.3 232.4 435.4 232.3 435.4 232.0 L 435.4 231.3 C 435.4 231.2 435.5 231.2 435.5 231.2 C 435.6 231.2 435.7 231.2 435.7 231.3 L 435.7 232.1 C 435.7 232.3 435.6 232.5 435.4 232.5 C 435.2 232.6 435.0 232.6 434.9 232.5 C 434.8 232.4 434.8 232.3 434.7 232.3 M 431.2 232.3 L 431.2 233.0 C 431.2 233.1 431.2 233.1 431.1 233.1 C 431.0 233.1 431.0 233.1 431.0 233.0 L 431.0 231.3 C 431.0 231.2 431.0 231.2 431.1 231.2 C 431.2 231.2 431.2 231.2 431.2 231.3 L 431.2 231.9 C 431.2 232.2 431.4 232.3 431.6 232.3 C 431.8 232.3 432.0 232.2 432.0 231.9 L 432.0 231.2 C 432.0 231.2 432.0 231.1 432.1 231.1 C 432.2 231.1 432.2 231.1 432.2 231.2 L 432.2 232.0 C 432.2 232.5 431.8 232.6 431.4 232.3 C 431.4 232.4 431.3 232.3 431.2 232.3 M 440.9 231.3 C 441.0 230.9 440.8 230.7 440.4 230.7 C 440.4 230.7 440.3 230.7 440.2 230.8 C 440.1 230.8 440.0 230.8 440.0 230.7 C 440.0 230.6 440.0 230.6 440.1 230.6 C 440.7 230.3 441.1 230.6 441.1 231.2 L 441.1 232.3 C 441.1 232.3 441.2 232.4 441.1 232.5 C 440.9 232.5 440.9 232.5 440.9 232.3 C 440.5 232.6 440.2 232.6 440.0 232.3 C 439.8 232.1 439.8 231.6 440.0 231.4 C 440.3 231.1 440.5 231.1 440.9 231.3 M 449.8 231.3 C 449.9 230.9 449.7 230.7 449.3 230.7 C 449.3 230.7 449.1 230.7 449.1 230.8 C 449.0 230.8 448.9 230.8 448.9 230.7 C 448.9 230.6 448.9 230.6 449.0 230.6 C 449.6 230.3 450.1 230.6 450.1 231.2 L 450.1 232.3 C 450.1 232.3 450.1 232.4 450.0 232.5 C 449.9 232.5 449.8 232.5 449.8 232.3 C 449.5 232.6 449.1 232.6 448.9 232.3 C 448.7 232.1 448.7 231.6 448.9 231.4 C 449.1 231.1 449.4 231.1 449.8 231.3 M 422.5 232.2 C 422.7 232.3 422.8 232.5 422.8 232.7 C 422.7 232.9 422.5 233.0 422.3 233.0 L 421.9 233.0 C 421.7 233.0 421.7 232.9 421.7 232.8 L 421.7 231.6 C 421.7 231.0 421.7 231.0 422.3 231.1 L 422.4 231.1 C 422.7 231.2 422.8 231.3 422.9 231.6 C 422.9 231.8 422.8 232.0 422.5 232.2 M 443.8 232.1 L 443.8 231.3 C 443.8 231.2 443.8 231.2 443.9 231.2 C 444.3 231.2 444.5 231.2 444.8 231.2 C 445.2 231.4 445.4 231.8 445.4 232.3 C 445.4 232.7 445.2 233.0 444.7 233.1 C 444.5 233.1 444.3 233.1 444.0 233.1 C 443.9 233.1 443.9 233.0 443.9 232.9 C 443.8 232.6 443.8 232.3 443.8 232.1 M 441.3 239.7 L 441.5 239.7 C 442.2 239.7 442.7 240.0 443.0 240.7 C 443.5 241.8 443.6 242.8 443.5 243.9 C 443.5 244.1 443.5 244.3 443.5 244.4 C 443.7 244.7 443.9 245.0 444.1 245.3 C 444.2 245.5 444.2 245.9 444.1 246.1 C 443.8 246.7 443.5 247.1 443.2 247.6 C 442.7 248.6 441.4 248.9 440.5 248.8 C 440.2 248.8 439.8 248.8 439.4 248.9 C 438.9 249.0 438.5 249.3 438.0 249.5 C 437.6 249.7 437.0 249.8 436.6 249.6 C 436.0 249.4 435.5 249.5 434.9 249.7 C 434.4 249.9 433.9 250.1 433.4 250.0 C 432.7 249.9 432.1 249.5 431.8 248.8 C 431.6 248.4 431.2 248.2 430.8 248.2 C 430.3 248.1 429.9 248.0 429.5 247.8 C 428.8 247.6 428.6 247.1 428.6 246.5 C 428.7 246.0 428.7 245.6 428.8 245.2 C 429.0 243.5 429.5 241.8 429.9 240.1 C 430.1 239.6 430.3 239.1 430.8 238.7 C 431.1 238.4 431.3 238.1 431.4 237.8 C 431.8 237.0 432.2 236.2 432.7 235.6 C 433.1 235.2 433.5 235.0 434.0 235.2 C 435.5 235.6 437.0 236.3 438.4 237.0 C 439.1 237.3 439.2 237.8 439.2 238.6 C 439.2 238.7 439.2 238.8 439.3 238.8 C 439.6 239.0 440.0 239.1 440.4 239.4 C 440.5 239.6 440.9 239.8 441.3 239.7 M 457.2 249.1 L 457.2 228.4 C 457.2 228.2 457.2 228.2 457.0 228.2 L 415.8 228.2 C 415.6 228.2 415.6 228.2 415.6 228.4 L 415.6 269.8 C 415.6 269.9 415.6 270.0 415.8 270.0 L 457.0 270.0 C 457.1 270.0 457.2 269.9 457.2 269.8 Z M 457.2 249.1 " fill="#EAEBF0"></path><path d="M 436.2 237.3 C 436.0 237.4 435.9 237.5 435.9 237.6 C 435.9 237.8 435.9 238.0 435.9 238.2 C 435.9 238.3 435.9 238.4 435.8 238.4 C 435.4 238.4 435.1 238.5 434.7 238.5 C 433.9 238.5 433.2 238.2 432.5 238.0 C 432.2 237.9 432.2 237.6 432.3 237.3 C 432.5 236.8 432.8 236.3 433.1 235.8 C 433.2 235.6 433.5 235.5 433.7 235.5 C 434.0 235.5 434.2 235.6 434.4 235.7 C 435.3 235.9 436.1 236.3 436.9 236.7 C 436.8 236.8 436.7 236.8 436.6 236.9 C 437.1 237.0 437.6 237.2 438.0 237.3 C 438.1 237.4 438.3 237.4 438.3 237.5 C 438.4 237.8 438.4 238.1 438.2 238.4 C 438.0 238.6 437.7 238.7 437.4 238.6 C 437.1 238.6 436.8 238.5 436.4 238.4 C 436.2 238.4 436.1 238.2 436.1 238.0 C 436.1 237.8 436.1 237.5 436.2 237.3 M 432.2 244.4 C 432.5 244.2 432.7 244.0 432.9 243.7 C 433.3 242.4 433.8 241.1 434.4 239.9 C 434.6 239.2 435.3 238.8 436.0 238.9 C 436.3 239.0 436.4 239.1 436.7 239.1 C 437.0 239.2 437.0 239.3 437.0 239.7 C 437.0 239.9 437.0 240.2 436.9 240.5 C 436.4 242.1 436.1 243.8 435.7 245.5 C 435.7 245.5 435.6 245.6 435.7 245.6 C 435.7 245.6 435.7 245.5 435.8 245.5 C 436.0 245.2 436.2 244.8 436.3 244.3 C 436.5 243.7 436.7 242.9 436.8 242.3 C 437.0 241.5 437.3 240.7 437.6 239.9 C 437.7 239.5 438.0 239.4 438.3 239.4 C 438.7 239.4 439.1 239.5 439.4 239.6 C 439.9 239.7 440.2 240.1 440.2 240.6 C 440.1 241.2 440.0 241.8 440.0 242.4 C 439.9 243.1 439.8 243.9 439.7 244.6 C 439.7 244.6 439.6 244.7 439.8 244.7 C 439.9 244.7 439.8 244.6 439.9 244.6 C 440.0 244.0 440.2 243.4 440.2 242.8 C 440.3 242.2 440.4 241.6 440.5 240.9 C 440.5 240.5 440.7 240.3 441.1 240.3 C 441.7 240.3 442.2 240.5 442.5 241.0 C 442.6 241.2 442.6 241.4 442.7 241.6 C 442.9 242.2 442.9 242.8 443.0 243.4 C 443.0 243.6 443.0 243.8 442.8 244.0 C 442.7 244.2 442.6 244.5 442.4 244.8 C 442.4 244.8 442.4 245.0 442.4 245.1 C 442.5 245.0 442.6 244.8 442.8 244.6 C 442.8 244.6 442.8 244.5 442.9 244.5 C 443.0 244.5 443.0 244.6 443.0 244.7 C 443.0 245.0 442.9 245.3 443.0 245.6 C 443.0 245.5 443.1 245.4 443.2 245.3 C 443.3 245.4 443.3 245.6 443.3 245.7 C 443.3 245.7 443.4 245.6 443.4 245.5 C 443.4 245.5 443.4 245.5 443.5 245.5 C 443.5 245.5 443.5 245.5 443.5 245.5 C 443.4 245.8 443.4 246.1 443.3 246.3 C 443.1 246.6 442.9 246.9 442.7 247.3 C 442.5 247.7 442.2 247.9 441.8 248.0 C 441.5 248.1 441.2 248.2 440.9 248.3 L 440.7 248.3 C 440.3 248.2 439.8 248.0 439.5 247.5 C 439.4 247.6 439.4 247.6 439.4 247.7 C 439.4 248.0 439.2 248.3 439.0 248.4 C 438.5 248.6 438.1 248.8 437.6 249.0 C 436.8 249.3 436.1 248.9 435.8 248.1 C 435.7 247.9 435.7 247.7 435.7 247.5 C 435.5 248.1 435.5 248.7 434.9 249.1 C 434.4 249.4 433.9 249.6 433.3 249.5 C 432.8 249.4 432.4 249.1 432.2 248.6 C 432.0 248.2 431.9 247.7 432.0 247.2 C 431.7 247.4 431.5 247.5 431.2 247.6 C 430.6 247.7 430.0 247.6 429.4 247.3 C 429.2 247.2 429.1 247.0 429.1 246.7 C 429.1 246.4 429.1 246.0 429.2 245.7 C 429.5 243.9 429.8 242.0 430.5 240.3 C 430.6 239.9 430.7 239.5 430.9 239.3 C 431.5 238.6 432.3 238.4 433.1 238.7 C 433.8 238.9 434.0 239.3 433.8 239.9 C 433.8 240.1 433.8 240.1 433.8 240.3 C 433.5 241.1 433.1 242.0 432.8 242.8 C 432.6 243.2 432.4 243.8 432.2 244.4 M 441.3 239.7 C 440.9 239.7 440.5 239.5 440.3 239.3 C 440.0 239.1 439.6 238.9 439.2 238.8 C 439.1 238.7 439.1 238.6 439.1 238.5 C 439.2 237.8 439.0 237.3 438.3 236.9 C 436.9 236.2 435.5 235.5 433.9 235.1 C 433.5 235.0 433.0 235.0 432.7 235.5 C 432.2 236.1 431.7 236.9 431.4 237.7 C 431.2 238.1 431.0 238.4 430.7 238.6 C 430.3 239.0 430.0 239.5 429.9 240.1 C 429.4 241.7 429.0 243.4 428.7 245.1 C 428.6 245.5 428.6 245.9 428.6 246.4 C 428.5 247.1 428.8 247.5 429.4 247.8 C 429.9 248.0 430.3 248.0 430.7 248.1 C 431.2 248.2 431.5 248.3 431.7 248.8 C 432.0 249.5 432.5 249.8 433.3 249.9 C 433.9 250.1 434.4 249.9 434.9 249.7 C 435.4 249.5 435.9 249.3 436.5 249.5 C 437.0 249.7 437.5 249.6 437.9 249.4 C 438.4 249.2 438.9 249.0 439.4 248.8 C 439.8 248.7 440.1 248.7 440.5 248.8 C 441.3 248.9 442.6 248.6 443.2 247.6 C 443.4 247.1 443.7 246.6 444.0 246.1 C 444.1 245.8 444.1 245.5 444.0 245.2 C 443.9 244.9 443.7 244.6 443.5 244.4 C 443.3 244.2 443.3 244.0 443.4 243.9 C 443.6 242.7 443.4 241.7 443.0 240.6 C 442.6 239.9 442.1 239.6 441.4 239.6 C 441.4 239.7 441.3 239.7 441.3 239.7 " fill="#20739F"></path><path d="M 444.1 232.1 L 444.1 231.6 C 444.1 231.3 444.1 231.3 444.4 231.3 C 444.8 231.3 445.0 231.6 445.1 232.0 C 445.2 232.4 445.0 232.7 444.6 232.8 L 444.2 232.8 C 444.1 232.8 444.1 232.8 444.1 232.7 Z M 443.8 232.1 L 443.8 232.9 C 443.8 233.0 443.8 233.0 443.9 233.0 C 444.2 233.0 444.4 233.1 444.6 233.0 C 445.0 232.9 445.3 232.7 445.4 232.2 C 445.4 231.8 445.2 231.4 444.8 231.2 C 444.5 231.0 444.2 231.1 443.9 231.1 C 443.8 231.1 443.7 231.2 443.7 231.2 C 443.8 231.6 443.8 231.8 443.8 232.1 " fill="#161717"></path><path d="M 421.9 232.5 C 421.9 232.2 421.9 232.2 422.1 232.2 C 422.4 232.2 422.6 232.3 422.6 232.5 C 422.6 232.7 422.5 232.8 422.2 232.9 C 421.9 232.9 421.9 232.7 421.9 232.5 M 421.9 231.7 C 421.9 231.6 421.9 231.4 422.0 231.4 C 422.1 231.3 422.3 231.3 422.4 231.4 C 422.6 231.4 422.6 231.6 422.6 231.8 C 422.5 232.0 422.3 232.1 422.0 232.0 C 421.8 232.0 421.9 231.8 421.9 231.8 C 421.9 231.8 421.9 231.8 421.9 231.7 M 422.5 232.2 C 422.8 232.0 422.9 231.8 422.8 231.6 C 422.8 231.3 422.6 231.2 422.3 231.1 L 422.3 231.1 C 421.7 231.0 421.6 231.0 421.6 231.6 L 421.6 232.8 C 421.6 232.9 421.7 233.0 421.8 233.0 L 422.2 233.0 C 422.4 233.0 422.6 232.9 422.7 232.7 C 422.8 232.5 422.8 232.3 422.5 232.2 " fill="#161717"></path><path d="M 449.8 231.8 C 449.8 232.2 449.6 232.4 449.3 232.3 C 449.1 232.2 449.0 232.0 449.0 231.8 C 449.0 231.5 449.1 231.4 449.3 231.3 C 449.7 231.3 449.8 231.5 449.8 231.8 M 449.8 231.3 C 449.4 231.1 449.1 231.1 448.9 231.4 C 448.7 231.6 448.7 232.1 449.0 232.3 C 449.2 232.6 449.5 232.6 449.9 232.3 C 449.9 232.5 449.9 232.5 450.1 232.5 C 450.2 232.5 450.1 232.3 450.1 232.3 L 450.1 231.2 C 450.1 230.7 449.6 230.3 449.1 230.6 C 449.0 230.7 449.0 230.7 449.0 230.7 C 449.0 230.8 449.1 230.8 449.1 230.8 C 449.2 230.7 449.3 230.7 449.4 230.7 C 449.7 230.7 449.9 230.9 449.8 231.3 " fill="#161717"></path><path d="M 441.0 231.8 C 441.0 232.2 440.8 232.3 440.5 232.3 C 440.4 232.2 440.2 232.0 440.2 231.8 C 440.2 231.5 440.4 231.3 440.6 231.3 C 440.8 231.3 441.0 231.5 441.0 231.8 M 440.9 231.3 C 440.5 231.1 440.3 231.1 440.1 231.4 C 439.9 231.6 439.9 232.2 440.2 232.3 C 440.4 232.5 440.7 232.6 441.0 232.3 C 441.0 232.5 441.1 232.5 441.2 232.5 C 441.3 232.5 441.3 232.3 441.3 232.3 L 441.3 231.2 C 441.3 230.7 440.7 230.3 440.2 230.6 C 440.2 230.7 440.1 230.7 440.2 230.7 C 440.2 230.8 440.2 230.8 440.3 230.8 C 440.4 230.8 440.4 230.7 440.5 230.7 C 440.8 230.7 441.0 230.9 440.9 231.3 " fill="#161717"></path><path d="M 431.2 232.3 C 431.3 232.4 431.3 232.4 431.4 232.5 C 431.7 232.7 432.2 232.5 432.2 232.2 L 432.2 231.3 C 432.2 231.2 432.1 231.2 432.0 231.2 C 432.0 231.2 431.9 231.2 431.9 231.4 L 431.9 232.0 C 431.9 232.3 431.8 232.5 431.6 232.5 C 431.4 232.5 431.2 232.3 431.2 232.0 L 431.2 231.4 C 431.2 231.4 431.2 231.3 431.0 231.3 C 430.9 231.3 430.9 231.4 430.9 231.4 L 430.9 233.1 C 430.9 233.3 430.9 233.3 431.0 233.3 C 431.2 233.3 431.2 233.2 431.2 233.1 C 431.2 232.8 431.2 232.5 431.2 232.3 " fill="#07090A"></path><path d="M 434.7 232.3 C 434.8 232.4 434.8 232.4 434.8 232.5 C 435.0 232.6 435.1 232.6 435.3 232.5 C 435.5 232.5 435.6 232.3 435.6 232.1 L 435.6 231.3 C 435.6 231.2 435.6 231.2 435.5 231.2 C 435.4 231.2 435.3 231.2 435.3 231.3 L 435.3 232.0 C 435.3 232.2 435.2 232.4 435.0 232.4 C 434.8 232.4 434.6 232.2 434.6 232.0 L 434.6 231.3 C 434.6 231.2 434.6 231.2 434.5 231.2 C 434.4 231.2 434.4 231.2 434.4 231.3 L 434.4 233.1 C 434.4 233.2 434.4 233.2 434.5 233.2 C 434.6 233.2 434.6 233.1 434.6 233.1 C 434.7 232.8 434.7 232.6 434.7 232.3 " fill="#07090A"></path><path d="M 441.8 232.3 C 441.9 232.3 441.9 232.4 442.0 232.4 C 442.2 232.5 442.3 232.6 442.5 232.5 C 442.7 232.4 442.8 232.2 442.8 232.0 L 442.8 231.2 C 442.8 231.1 442.7 231.1 442.6 231.1 C 442.6 231.1 442.5 231.1 442.5 231.2 L 442.5 231.8 C 442.5 232.1 442.4 232.2 442.2 232.2 C 442.0 232.2 441.8 232.0 441.8 231.8 L 441.8 231.2 C 441.8 231.0 441.7 231.0 441.7 231.0 C 441.6 231.0 441.5 231.0 441.5 231.2 L 441.5 232.9 C 441.5 233.1 441.6 233.0 441.7 233.1 C 441.7 233.1 441.8 233.1 441.8 232.9 C 441.8 232.8 441.8 232.6 441.8 232.3 " fill="#07090A"></path><path d="M 425.6 232.9 C 425.5 232.9 425.4 232.9 425.4 232.7 L 425.4 232.3 C 425.4 232.2 425.4 232.2 425.5 232.2 C 425.7 232.2 425.9 232.2 426.0 232.3 C 426.2 232.4 426.2 232.5 426.1 232.7 C 426.0 232.8 425.8 232.9 425.6 232.9 M 425.6 233.1 L 426.0 233.1 C 426.2 233.0 426.4 232.9 426.4 232.6 C 426.4 232.3 426.4 232.2 426.1 232.0 C 426.0 232.0 425.8 232.0 425.7 232.0 C 425.5 232.0 425.5 231.9 425.5 231.8 L 425.5 231.3 C 425.5 231.2 425.5 231.2 425.4 231.2 C 425.3 231.2 425.3 231.2 425.3 231.3 L 425.3 232.9 C 425.3 233.0 425.3 233.1 425.4 233.1 Z M 425.6 233.1 " fill="#07090A"></path><path d="M 437.9 231.8 C 437.9 232.2 437.7 232.3 437.5 232.3 C 437.2 232.3 437.1 232.2 437.1 231.8 C 437.1 231.5 437.3 231.3 437.5 231.3 C 437.7 231.3 437.9 231.5 437.9 231.8 M 436.8 231.8 C 436.8 232.3 437.1 232.5 437.5 232.5 C 437.9 232.5 438.1 232.3 438.1 231.8 C 438.1 231.4 437.9 231.1 437.5 231.1 C 437.1 231.1 436.8 231.4 436.8 231.8 " fill="#161717"></path><path d="M 424.3 232.5 C 424.1 232.0 424.0 231.5 423.8 231.0 C 423.7 230.8 423.5 230.7 423.3 230.6 C 423.2 230.6 423.2 230.5 423.2 230.6 C 423.2 230.7 423.1 230.7 423.2 230.8 C 423.3 230.8 423.4 230.8 423.4 230.9 C 423.6 231.0 423.6 231.2 423.6 231.4 C 423.4 231.8 423.2 232.2 423.1 232.5 C 423.3 232.6 423.4 232.5 423.4 232.3 C 423.5 232.1 423.6 231.8 423.8 231.5 C 423.9 231.8 423.9 232.1 424.0 232.3 C 424.0 232.5 424.1 232.5 424.3 232.5 " fill="#161717"></path><path d="M 446.2 232.0 L 446.3 232.0 C 446.4 232.0 446.5 231.9 446.5 232.0 C 446.5 232.2 446.5 232.3 446.4 232.3 C 446.3 232.4 446.1 232.4 446.0 232.3 C 445.9 232.2 445.8 232.2 445.9 232.0 C 445.9 232.0 446.0 232.0 446.1 232.0 C 446.1 232.0 446.1 232.0 446.2 232.0 M 445.8 231.8 C 445.8 231.4 446.1 231.2 446.5 231.3 C 446.5 231.3 446.6 231.4 446.7 231.2 C 446.7 231.1 446.6 231.1 446.5 231.1 C 446.1 231.0 445.9 231.1 445.7 231.3 C 445.5 231.6 445.5 232.0 445.7 232.2 C 445.8 232.5 446.1 232.5 446.4 232.5 C 446.6 232.4 446.8 232.1 446.7 231.8 C 446.7 231.7 446.7 231.8 446.6 231.8 C 446.3 231.8 446.1 231.8 445.8 231.8 " fill="#161717"></path><path d="M 450.7 232.3 C 450.8 232.4 450.9 232.5 451.0 232.5 C 451.4 232.6 451.6 232.4 451.7 232.1 L 451.7 231.3 C 451.7 231.2 451.6 231.2 451.5 231.2 C 451.5 231.2 451.4 231.2 451.4 231.3 L 451.4 232.0 C 451.4 232.2 451.3 232.3 451.1 232.3 C 450.9 232.3 450.7 232.2 450.7 232.0 L 450.7 231.3 C 450.7 231.2 450.6 231.2 450.6 231.2 C 450.4 231.2 450.4 231.2 450.4 231.3 L 450.4 232.4 C 450.4 232.5 450.4 232.5 450.5 232.5 C 450.6 232.5 450.7 232.5 450.7 232.3 " fill="#07090A"></path><path d="M 428.4 232.3 C 428.5 232.4 428.6 232.5 428.8 232.5 C 429.1 232.5 429.3 232.3 429.4 232.0 L 429.4 231.2 C 429.4 231.0 429.3 231.1 429.2 231.1 C 429.2 231.1 429.1 231.1 429.1 231.2 L 429.1 231.9 C 429.1 232.2 429.0 232.3 428.8 232.3 C 428.6 232.3 428.4 232.1 428.4 231.8 L 428.4 231.2 C 428.4 231.2 428.4 231.1 428.2 231.1 C 428.1 231.1 428.1 231.2 428.1 231.2 L 428.1 232.3 C 428.1 232.3 428.0 232.4 428.2 232.5 C 428.4 232.5 428.4 232.5 428.4 232.3 " fill="#07090A"></path><path d="M 427.5 231.4 C 427.5 231.3 427.5 231.3 427.4 231.3 C 427.2 231.2 427.1 231.1 426.9 231.2 C 426.7 231.2 426.6 231.4 426.6 231.6 L 426.6 232.4 C 426.6 232.5 426.7 232.5 426.7 232.5 C 426.8 232.5 426.9 232.5 426.9 232.4 L 426.9 231.6 C 426.9 231.5 427.0 231.4 427.1 231.4 C 427.3 231.4 427.4 231.4 427.5 231.6 L 427.5 231.8 L 427.5 232.4 C 427.5 232.5 427.5 232.5 427.6 232.5 C 427.7 232.5 427.7 232.5 427.7 232.4 L 427.7 231.4 C 427.7 231.3 427.8 231.2 427.7 231.2 C 427.6 231.1 427.5 231.2 427.5 231.4 " fill="#07090A"></path><path d="M 439.4 231.3 C 439.3 231.2 439.2 231.1 439.1 231.1 C 438.7 231.0 438.5 231.2 438.5 231.6 L 438.5 232.4 C 438.5 232.5 438.6 232.5 438.7 232.5 C 438.7 232.5 438.8 232.5 438.8 232.3 L 438.8 231.8 L 438.8 231.6 C 438.9 231.4 438.9 231.2 439.1 231.2 C 439.3 231.2 439.4 231.4 439.4 231.6 L 439.4 232.3 C 439.4 232.3 439.4 232.4 439.6 232.4 C 439.6 232.4 439.7 232.4 439.7 232.3 L 439.7 231.1 C 439.7 231.0 439.7 231.0 439.6 231.0 C 439.6 231.0 439.5 231.0 439.5 231.1 C 439.4 231.2 439.4 231.3 439.4 231.3 " fill="#07090A"></path><path d="M 433.5 232.0 L 433.5 232.7 C 433.5 232.9 433.4 232.9 433.3 232.9 L 433.0 232.9 C 432.9 232.9 432.9 232.9 432.9 233.0 C 432.9 233.1 432.9 233.1 433.0 233.1 L 434.2 233.1 C 434.2 233.1 434.3 233.1 434.3 233.0 C 434.3 232.9 434.2 232.9 434.2 232.9 L 434.1 232.9 C 433.6 232.9 433.6 232.9 433.6 232.4 L 433.6 231.4 C 433.6 231.3 433.7 231.2 433.5 231.2 C 433.3 231.2 433.4 231.3 433.4 231.4 C 433.5 231.6 433.5 231.8 433.5 232.0 " fill="#07090A"></path><path d="M 429.7 231.8 C 429.7 232.3 430.1 232.7 430.6 232.5 C 430.7 232.5 430.7 232.5 430.7 232.4 C 430.7 232.3 430.7 232.3 430.6 232.3 C 430.4 232.4 430.2 232.3 430.1 232.2 C 429.9 232.0 429.9 231.8 430.0 231.6 C 430.1 231.4 430.3 231.3 430.6 231.4 C 430.7 231.4 430.7 231.4 430.7 231.3 C 430.7 231.2 430.7 231.2 430.6 231.2 C 430.1 231.0 429.7 231.3 429.7 231.8 " fill="#161717"></path><path d="M 447.4 231.1 C 447.3 231.1 447.2 231.1 447.1 231.2 C 447.1 231.2 447.1 231.2 447.1 231.3 C 447.1 231.4 447.1 231.4 447.2 231.4 C 447.3 231.3 447.4 231.3 447.5 231.3 C 447.6 231.3 447.6 231.4 447.7 231.4 C 447.7 231.5 447.7 231.6 447.6 231.6 C 447.6 231.7 447.5 231.7 447.4 231.8 C 447.3 231.8 447.2 232.0 447.2 232.2 C 447.2 232.3 447.3 232.4 447.4 232.5 C 447.6 232.5 447.7 232.5 447.9 232.5 C 448.0 232.5 447.9 232.4 447.9 232.3 C 447.9 232.3 447.8 232.3 447.8 232.3 C 447.8 232.3 447.6 232.3 447.6 232.3 C 447.5 232.3 447.4 232.3 447.4 232.2 C 447.4 232.2 447.4 232.1 447.4 232.0 C 447.5 232.0 447.6 232.0 447.6 231.9 C 447.9 231.8 448.0 231.6 448.0 231.4 C 447.8 231.2 447.6 231.1 447.4 231.1 " fill="#161717"></path><path d="M 436.3 232.3 L 436.5 232.5 C 436.6 232.5 436.6 232.6 436.6 232.5 C 436.6 232.4 436.7 232.3 436.5 232.3 C 436.3 232.3 436.2 232.1 436.2 231.8 L 436.2 231.2 C 436.2 231.1 436.1 231.1 436.1 231.1 C 435.9 231.1 435.9 231.2 435.9 231.2 L 435.9 232.3 C 435.9 232.4 435.9 232.5 436.0 232.5 C 436.1 232.5 436.1 232.5 436.1 232.4 C 436.3 232.4 436.3 232.3 436.3 232.3 " fill="#07090A"></path><path d="M 448.4 231.8 L 448.4 231.3 C 448.4 231.2 448.4 231.2 448.3 231.2 C 448.2 231.2 448.2 231.2 448.2 231.3 L 448.2 232.4 C 448.2 232.5 448.2 232.5 448.3 232.5 C 448.4 232.5 448.4 232.5 448.4 232.4 Z M 448.4 231.8 " fill="#07090A"></path><path d="M 448.3 233.1 C 448.4 233.1 448.4 233.0 448.4 232.9 C 448.4 232.8 448.4 232.8 448.3 232.8 C 448.2 232.8 448.2 232.9 448.2 232.9 C 448.2 233.0 448.2 233.1 448.3 233.1 " fill="#161717"></path><path d="M 432.2 244.4 C 432.4 243.8 432.6 243.3 432.8 242.7 C 433.1 241.8 433.5 241.0 433.8 240.1 C 433.8 240.0 433.8 239.9 433.8 239.8 C 434.0 239.2 433.8 238.8 433.1 238.6 C 432.3 238.3 431.6 238.5 430.9 239.1 C 430.7 239.4 430.6 239.9 430.5 240.2 C 429.8 241.9 429.5 243.7 429.2 245.5 C 429.1 245.9 429.0 246.3 429.1 246.6 C 429.1 246.9 429.2 247.1 429.4 247.2 C 430.0 247.5 430.6 247.6 431.2 247.4 C 431.5 247.4 431.7 247.2 432.0 247.1 C 431.8 247.6 432.0 248.0 432.2 248.5 C 432.5 248.9 432.8 249.3 433.3 249.3 C 433.9 249.5 434.4 249.3 434.9 248.9 C 435.5 248.6 435.4 248.0 435.7 247.4 C 435.7 247.6 435.8 247.8 435.8 248.0 C 436.1 248.8 436.8 249.2 437.6 248.9 C 438.1 248.7 438.5 248.5 439.0 248.3 C 439.3 248.2 439.4 247.9 439.4 247.6 C 439.4 247.5 439.4 247.4 439.5 247.4 C 439.8 247.9 440.2 248.0 440.7 248.2 C 440.8 248.2 440.9 248.2 440.9 248.2 C 441.2 248.1 441.5 248.0 441.8 247.9 C 442.2 247.8 442.5 247.5 442.7 247.2 C 442.9 246.9 443.1 246.5 443.3 246.1 C 443.4 245.9 443.4 245.7 443.5 245.4 L 443.5 245.4 C 443.4 245.4 443.4 245.4 443.4 245.4 C 443.4 245.5 443.3 245.5 443.3 245.6 C 443.2 245.5 443.2 245.3 443.2 245.2 C 443.0 245.2 443.0 245.4 443.0 245.5 L 443.0 244.6 C 443.0 244.5 443.0 244.4 442.9 244.4 C 442.8 244.4 442.8 244.4 442.8 244.5 C 442.6 244.6 442.6 244.8 442.4 245.0 C 442.4 244.8 442.4 244.8 442.4 244.6 C 442.6 244.4 442.7 244.1 442.8 243.9 C 443.0 243.7 443.0 243.5 443.0 243.3 C 442.9 242.7 442.9 242.0 442.7 241.4 C 442.6 241.2 442.6 241.0 442.5 240.9 C 442.2 240.3 441.7 240.1 441.1 240.2 C 440.7 240.2 440.5 240.4 440.5 240.8 C 440.4 241.4 440.3 242.0 440.2 242.7 C 440.2 243.3 440.0 243.9 439.9 244.4 C 439.9 244.5 439.9 244.6 439.8 244.6 C 439.6 244.6 439.7 244.4 439.7 244.4 C 439.8 243.7 439.9 243.0 440.0 242.3 C 440.0 241.7 440.1 241.1 440.2 240.5 C 440.2 240.0 439.9 239.6 439.4 239.5 C 439.1 239.4 438.7 239.3 438.3 239.3 C 438.0 239.3 437.7 239.4 437.6 239.8 C 437.3 240.6 437.1 241.4 436.8 242.2 C 436.6 242.8 436.4 243.5 436.3 244.2 C 436.2 244.6 436.0 245.0 435.8 245.4 C 435.8 245.5 435.8 245.5 435.7 245.5 C 435.6 245.5 435.6 245.4 435.7 245.4 C 436.1 243.7 436.4 242.0 436.9 240.3 C 437.0 240.1 437.0 239.8 437.0 239.5 C 437.0 239.3 437.0 239.1 436.7 239.0 C 436.5 238.9 436.3 238.9 436.0 238.8 C 435.3 238.7 434.6 239.0 434.4 239.7 C 433.8 241.0 433.4 242.3 432.9 243.5 C 432.8 244.0 432.6 244.2 432.2 244.4 " fill="#EAEBF0"></path><path d="M 432.9 237.6 C 432.6 237.3 432.7 236.7 433.1 236.3 C 433.1 236.8 433.0 237.2 432.9 237.6 M 436.2 237.3 C 436.1 237.6 436.1 237.8 436.1 238.0 C 436.0 238.2 436.1 238.4 436.4 238.4 C 436.7 238.5 437.0 238.6 437.4 238.6 C 437.7 238.7 437.9 238.6 438.1 238.4 C 438.3 238.1 438.3 237.8 438.2 237.5 C 438.1 237.4 438.0 237.3 437.9 237.3 C 437.5 237.2 437.0 237.1 436.6 236.9 C 436.6 236.8 436.8 236.8 436.8 236.7 C 436.1 236.2 435.2 235.9 434.4 235.7 C 434.1 235.6 433.9 235.5 433.6 235.5 C 433.4 235.5 433.1 235.6 433.0 235.8 C 432.7 236.3 432.4 236.8 432.2 237.3 C 432.1 237.6 432.2 237.9 432.5 238.0 C 433.2 238.3 433.9 238.5 434.6 238.5 C 435.0 238.5 435.3 238.4 435.7 238.4 C 435.9 238.4 435.9 238.3 435.9 238.2 L 435.9 237.6 C 436.0 237.5 436.1 237.4 436.2 237.3 " fill="#EAEBF0"></path><path d="M 442.4 265.5 C 442.4 265.7 442.3 266.0 442.4 266.1 C 442.6 266.2 442.8 266.1 443.0 266.1 C 443.2 266.1 443.4 266.1 443.5 266.0 C 443.7 265.9 443.9 265.9 443.9 265.6 L 443.9 265.4 C 443.9 265.0 443.7 265.0 443.4 264.9 C 443.2 264.8 442.8 264.8 442.6 264.8 C 442.4 264.8 442.4 264.8 442.4 265.0 Z M 442.4 265.5 " fill="#EAEBF0"></path><path d="M 434.7 265.1 C 435.1 265.1 435.3 265.0 435.3 264.6 C 435.3 264.3 435.1 264.1 434.8 264.1 C 434.4 264.1 434.2 264.2 434.2 264.6 C 434.1 264.9 434.3 265.2 434.7 265.1 " fill="#EAEBF0"></path><path d="M 444.1 232.1 L 444.1 232.7 C 444.1 232.8 444.1 232.8 444.2 232.8 L 444.6 232.8 C 445.0 232.7 445.2 232.4 445.1 232.0 C 445.0 231.6 444.8 231.4 444.4 231.3 C 444.1 231.3 444.1 231.3 444.1 231.6 Z M 444.1 232.1 " fill="#EAEBF0"></path><path d="M 421.9 231.7 L 421.9 231.8 C 422.0 231.8 421.8 232.0 422.0 232.0 C 422.3 232.1 422.5 232.0 422.6 231.8 C 422.6 231.6 422.6 231.4 422.4 231.4 C 422.3 231.3 422.1 231.3 422.0 231.4 C 421.9 231.4 422.0 231.6 421.9 231.7 " fill="#EAEBF0"></path><path d="M 421.9 232.5 C 421.9 232.7 421.9 232.9 422.1 232.9 C 422.4 232.9 422.6 232.7 422.5 232.5 C 422.5 232.3 422.3 232.2 422.1 232.2 C 421.9 232.3 421.9 232.3 421.9 232.5 " fill="#EAEBF0"></path><path d="M 449.8 231.8 C 449.8 231.5 449.6 231.3 449.3 231.3 C 449.1 231.4 449.0 231.5 449.0 231.8 C 449.0 232.0 449.1 232.2 449.3 232.3 C 449.6 232.4 449.8 232.2 449.8 231.8 " fill="#EAEBF0"></path><path d="M 441.0 231.8 C 441.0 231.5 440.9 231.3 440.5 231.3 C 440.4 231.3 440.2 231.5 440.2 231.8 C 440.2 232.0 440.3 232.2 440.5 232.3 C 440.8 232.4 441.0 232.2 441.0 231.8 " fill="#EAEBF0"></path><path d="M 425.6 232.9 C 425.8 232.9 426.0 232.9 426.1 232.7 C 426.2 232.5 426.2 232.4 426.0 232.3 C 425.9 232.2 425.7 232.2 425.5 232.2 C 425.4 232.2 425.4 232.2 425.4 232.3 L 425.4 232.7 C 425.4 232.8 425.4 232.9 425.6 232.9 " fill="#EAEBF0"></path><path d="M 437.9 231.8 C 437.9 231.5 437.7 231.3 437.5 231.3 C 437.2 231.3 437.1 231.5 437.1 231.8 C 437.1 232.2 437.3 232.3 437.5 232.3 C 437.7 232.3 437.9 232.2 437.9 231.8 " fill="#EAEBF0"></path><path d="M 446.2 232.0 L 446.1 232.0 C 446.0 232.0 445.9 231.9 445.9 232.0 C 445.9 232.0 445.9 232.1 446.0 232.2 C 446.1 232.3 446.3 232.4 446.4 232.3 C 446.5 232.2 446.6 232.1 446.5 232.0 C 446.5 231.8 446.4 232.0 446.3 231.9 C 446.3 232.0 446.2 232.0 446.2 232.0 " fill="#EAEBF0"></path><path d="M 432.9 237.6 C 432.9 237.2 433.0 236.8 433.1 236.3 C 432.7 236.7 432.6 237.3 432.9 237.6 " fill="#20739F"></path></g></g></g></g><g><clipPath id="clip0x618000aaa4a0"><path d="M 417.4 252.3 L 455.8 252.3 L 455.8 268.3 L 417.4 268.3 Z M 417.4 252.3 "></path></clipPath><g clip-path="url(#clip0x618000aaa4a0)"><path d="M 425.6 256.4 C 425.6 256.7 425.5 256.9 425.4 257.1 C 425.4 257.3 425.3 257.5 425.1 257.6 C 424.9 257.8 424.7 257.9 424.4 258.0 C 424.1 258.0 423.8 258.1 423.4 258.1 L 421.2 258.1 L 421.2 254.6 L 423.4 254.6 C 423.8 254.6 424.1 254.7 424.5 254.8 C 424.7 254.9 425.0 255.0 425.1 255.2 C 425.3 255.3 425.4 255.5 425.5 255.7 C 425.5 255.9 425.6 256.2 425.6 256.4 M 421.2 259.6 L 423.0 259.6 C 423.7 259.6 424.3 259.7 424.7 260.0 C 425.1 260.3 425.3 260.7 425.3 261.3 C 425.3 261.9 425.1 262.3 424.7 262.6 C 424.4 262.9 423.8 263.0 423.1 263.0 L 421.2 263.0 Z M 427.7 256.4 C 427.7 255.9 427.7 255.4 427.5 255.0 C 427.3 254.6 427.0 254.2 426.6 253.9 C 426.2 253.6 425.8 253.4 425.3 253.2 C 424.7 253.0 424.1 252.9 423.4 252.9 L 419.0 252.9 L 417.8 252.9 L 417.8 253.9 C 417.8 254.2 417.9 254.4 418.2 254.4 L 418.3 254.4 C 418.4 254.4 418.4 254.4 418.5 254.5 C 418.7 254.5 418.8 254.6 419.0 254.6 L 419.0 263.1 C 418.8 263.2 418.6 263.2 418.5 263.2 C 418.4 263.2 418.4 263.3 418.3 263.3 L 418.2 263.3 C 417.9 263.3 417.8 263.5 417.8 263.8 L 417.8 264.8 L 419.0 264.8 L 423.0 264.8 C 423.8 264.8 424.5 264.7 425.0 264.6 C 425.5 264.4 426.0 264.2 426.4 263.9 C 426.7 263.7 426.9 263.3 427.1 262.9 C 427.3 262.5 427.4 262.1 427.4 261.6 C 427.4 261.4 427.3 261.1 427.3 260.8 C 427.2 260.6 427.1 260.4 426.9 260.1 C 426.7 259.9 426.5 259.7 426.2 259.5 C 426.0 259.3 425.6 259.2 425.3 259.1 C 426.9 258.6 427.7 257.8 427.7 256.4 " fill="#000000"></path><path d="M 431.4 259.5 C 431.0 259.1 430.8 258.7 430.7 258.0 L 434.5 258.0 C 434.5 258.3 434.4 258.6 434.4 258.8 C 434.3 259.0 434.2 259.2 434.0 259.3 C 433.9 259.5 433.7 259.7 433.5 259.7 C 433.3 259.9 433.1 259.9 432.7 259.9 C 432.2 260.0 431.7 259.8 431.4 259.5 M 434.2 261.2 C 434.6 261.0 435.0 260.8 435.3 260.4 C 435.7 260.1 435.9 259.7 436.1 259.3 C 436.3 258.8 436.3 258.3 436.3 257.6 L 436.3 257.2 C 436.3 257.1 436.3 257.1 436.3 257.0 C 436.2 256.9 436.2 256.9 436.1 256.9 C 436.1 256.9 436.0 256.8 435.9 256.8 L 430.8 256.8 C 430.8 255.9 431.0 255.3 431.5 254.9 C 431.9 254.5 432.4 254.3 433.1 254.3 C 433.4 254.3 433.6 254.4 433.9 254.4 C 434.2 254.5 434.4 254.6 434.6 254.7 C 434.8 254.8 434.9 254.9 435.0 255.0 C 435.1 255.0 435.3 255.1 435.4 255.1 C 435.5 255.1 435.5 255.1 435.6 255.0 C 435.7 255.0 435.7 255.0 435.7 254.9 L 436.3 254.2 C 436.1 253.9 435.9 253.7 435.6 253.5 C 435.3 253.3 435.0 253.2 434.8 253.1 C 434.4 252.9 434.2 252.9 433.8 252.9 C 433.5 252.8 433.3 252.8 432.9 252.8 C 432.3 252.8 431.8 252.9 431.3 253.1 C 430.8 253.3 430.4 253.5 430.0 253.9 C 429.6 254.3 429.4 254.8 429.2 255.3 C 429.0 255.9 428.8 256.5 428.8 257.2 C 428.8 257.8 428.9 258.4 429.1 258.9 C 429.3 259.4 429.5 259.8 429.9 260.2 C 430.2 260.6 430.7 260.8 431.1 261.1 C 431.6 261.3 432.2 261.4 432.8 261.4 C 433.3 261.4 433.7 261.3 434.2 261.2 " fill="#000000"></path><path d="M 442.2 256.5 C 441.6 256.5 441.1 256.4 440.7 256.3 C 440.3 256.3 440.0 256.1 439.7 256.1 C 439.4 255.9 439.3 255.8 439.2 255.7 C 439.1 255.5 439.1 255.4 439.1 255.2 C 439.1 254.8 439.2 254.6 439.4 254.4 C 439.6 254.2 439.8 254.1 440.2 254.1 C 440.4 254.1 440.6 254.1 440.8 254.2 C 441.0 254.2 441.1 254.2 441.3 254.4 C 441.5 254.4 441.7 254.6 441.8 254.6 C 441.9 254.8 442.0 254.9 442.2 255.0 L 442.2 256.5 Z M 445.2 253.8 L 445.2 252.9 L 444.1 252.9 L 443.9 252.9 L 443.3 252.9 C 443.1 252.9 443.0 252.9 442.8 252.9 C 442.7 253.0 442.6 253.1 442.6 253.3 L 442.4 253.8 C 442.2 253.7 442.0 253.5 441.7 253.3 C 441.5 253.2 441.3 253.1 441.1 252.9 C 440.9 252.8 440.6 252.7 440.4 252.7 C 440.1 252.7 439.8 252.7 439.6 252.7 C 439.2 252.7 438.9 252.7 438.6 252.8 C 438.3 252.9 438.1 253.1 437.8 253.3 C 437.6 253.5 437.4 253.7 437.3 254.0 C 437.2 254.2 437.1 254.6 437.1 255.0 C 437.1 255.3 437.2 255.6 437.4 255.9 C 437.6 256.2 437.8 256.5 438.2 256.7 C 438.6 257.0 439.1 257.2 439.8 257.3 C 440.4 257.4 441.2 257.6 442.2 257.6 L 442.2 258.1 C 442.2 258.7 442.0 259.1 441.8 259.3 C 441.6 259.6 441.3 259.7 440.8 259.7 C 440.5 259.7 440.2 259.7 440.0 259.6 C 439.8 259.5 439.6 259.5 439.4 259.3 C 439.3 259.3 439.1 259.1 439.0 259.1 C 438.9 259.0 438.7 258.9 438.5 258.9 C 438.4 258.9 438.3 259.0 438.2 259.1 C 438.1 259.1 438.0 259.2 437.9 259.3 L 437.6 260.0 C 438.5 260.9 439.7 261.3 441.0 261.3 C 441.5 261.3 441.9 261.2 442.3 261.0 C 442.7 260.9 443.0 260.6 443.3 260.4 C 443.5 260.1 443.7 259.7 443.9 259.3 C 444.0 258.9 444.1 258.5 444.1 258.0 L 444.1 254.3 C 444.3 254.3 444.4 254.2 444.5 254.2 L 444.7 254.2 C 445.0 254.3 445.2 254.2 445.2 253.8 " fill="#000000"></path><path d="M 455.5 253.8 L 455.5 252.9 L 454.3 252.9 L 452.3 252.9 L 452.3 258.2 C 452.3 258.8 452.1 259.1 451.9 259.4 C 451.7 259.7 451.4 259.8 450.9 259.8 C 450.6 259.8 450.2 259.7 449.9 259.5 C 449.6 259.4 449.3 259.1 449.1 258.9 L 449.1 254.4 C 449.3 254.4 449.5 254.4 449.5 254.4 C 449.7 254.4 449.7 254.3 449.8 254.3 L 449.9 254.3 C 450.2 254.2 450.3 254.1 450.3 253.8 L 450.3 252.8 L 449.1 252.8 L 447.1 252.8 L 445.8 252.8 L 445.8 253.8 C 445.8 254.0 446.0 254.2 446.2 254.3 L 446.3 254.3 C 446.4 254.3 446.5 254.3 446.6 254.4 C 446.7 254.4 446.9 254.4 447.1 254.4 L 447.1 259.6 C 446.9 259.7 446.7 259.7 446.6 259.7 C 446.5 259.7 446.4 259.7 446.3 259.7 L 446.2 259.7 C 446.0 259.8 445.8 260.0 445.8 260.3 L 445.8 261.2 L 447.1 261.2 L 448.3 261.2 C 448.6 261.2 448.7 261.1 448.8 260.8 L 448.9 260.2 C 449.1 260.4 449.3 260.5 449.5 260.6 C 449.7 260.8 449.9 260.9 450.1 261.0 C 450.2 261.2 450.5 261.2 450.7 261.3 C 451.0 261.4 451.2 261.4 451.5 261.4 C 451.9 261.4 452.3 261.3 452.7 261.1 C 453.0 261.0 453.4 260.7 453.6 260.4 C 453.9 260.2 454.0 259.9 454.2 259.5 C 454.3 259.1 454.3 258.6 454.3 258.2 L 454.3 254.4 C 454.5 254.4 454.7 254.4 454.8 254.4 C 454.9 254.4 455.0 254.3 455.1 254.3 L 455.2 254.3 C 455.4 254.3 455.5 254.2 455.5 253.8 " fill="#000000"></path><path d="M 431.6 263.1 L 431.4 263.1 L 431.4 263.1 L 429.2 263.1 L 428.8 263.1 L 428.8 263.4 L 428.8 263.5 L 429.2 263.6 L 429.2 266.8 L 428.8 266.9 L 428.8 267.0 L 428.8 267.2 L 429.2 267.2 L 429.7 267.2 L 430.1 267.2 L 430.1 267.0 L 430.0 266.9 L 429.7 266.8 L 429.7 263.7 L 431.1 263.7 C 431.1 263.8 431.1 264.0 431.2 264.0 L 431.3 264.0 L 431.6 264.0 Z M 431.6 263.1 " fill="#000000"></path><path d="M 432.2 266.8 L 432.2 266.9 L 432.2 267.1 L 432.3 267.2 L 432.4 267.2 L 432.5 267.2 L 432.7 267.2 L 432.8 267.2 L 432.9 267.1 L 432.9 266.9 L 432.9 266.8 L 432.8 266.7 L 432.7 266.6 L 432.5 266.6 L 432.4 266.6 L 432.3 266.7 L 432.2 266.8 M 433.2 263.4 L 433.2 263.1 L 431.9 263.1 L 431.9 263.4 L 432.0 263.5 L 432.3 263.6 L 432.3 265.6 L 432.0 265.7 L 431.9 265.8 L 431.9 266.1 L 432.8 266.1 L 432.8 263.7 L 433.1 263.6 Z M 433.2 263.4 " fill="#000000"></path><path d="M 434.9 264.6 C 435.0 264.6 435.1 264.6 435.1 264.7 C 435.2 264.8 435.2 264.8 435.3 264.9 C 435.3 265.0 435.3 265.0 435.3 265.2 C 435.3 265.4 435.3 265.5 435.2 265.5 C 435.1 265.7 434.9 265.7 434.8 265.7 C 434.6 265.7 434.4 265.6 434.3 265.5 C 434.2 265.4 434.2 265.3 434.2 265.2 C 434.2 265.1 434.2 265.0 434.2 264.9 C 434.2 264.8 434.3 264.8 434.4 264.7 C 434.4 264.6 434.5 264.6 434.6 264.6 C 434.6 264.6 434.8 264.5 434.8 264.5 C 434.8 264.6 434.8 264.6 434.9 264.6 M 435.5 263.2 C 435.4 263.3 435.4 263.3 435.3 263.3 C 435.3 263.3 435.2 263.4 435.1 263.4 L 434.8 263.4 L 434.5 263.4 L 434.2 263.4 C 434.1 263.3 434.0 263.3 434.0 263.2 C 433.9 263.1 433.8 263.1 433.8 262.9 C 433.8 262.9 433.8 262.8 433.9 262.7 C 433.9 262.7 434.0 262.6 434.0 262.6 C 434.1 262.6 434.2 262.5 434.3 262.5 C 434.4 262.5 434.5 262.5 434.7 262.5 C 434.8 262.5 434.9 262.5 435.1 262.5 C 435.2 262.5 435.3 262.6 435.3 262.7 C 435.4 262.7 435.5 262.8 435.5 262.8 C 435.6 262.9 435.6 262.9 435.6 263.0 C 435.5 263.1 435.5 263.1 435.5 263.2 M 435.0 266.0 C 435.1 266.0 435.2 265.9 435.3 265.9 L 436.1 265.9 L 436.1 265.7 C 436.1 265.6 436.1 265.5 436.0 265.5 L 435.7 265.5 C 435.7 265.4 435.7 265.2 435.7 265.1 C 435.7 265.0 435.7 264.8 435.7 264.7 C 435.6 264.6 435.5 264.5 435.5 264.4 C 435.4 264.4 435.3 264.3 435.1 264.2 C 435.0 264.2 434.9 264.2 434.7 264.2 C 434.6 264.2 434.4 264.2 434.3 264.2 C 434.2 264.2 434.2 264.2 434.2 264.1 L 434.1 264.0 C 434.1 263.9 434.1 263.8 434.2 263.8 C 434.2 263.8 434.3 263.8 434.4 263.8 L 434.7 263.8 L 435.0 263.8 C 435.1 263.8 435.3 263.8 435.3 263.7 C 435.5 263.7 435.5 263.7 435.7 263.6 C 435.7 263.5 435.8 263.5 435.9 263.4 C 435.9 263.3 435.9 263.2 435.9 263.1 C 435.9 262.9 435.9 262.8 435.9 262.7 C 435.8 262.6 435.7 262.5 435.6 262.4 C 435.5 262.3 435.3 262.3 435.2 262.2 C 435.0 262.1 434.9 262.1 434.6 262.1 C 434.4 262.1 434.2 262.1 434.1 262.2 C 434.0 262.3 433.8 262.3 433.7 262.4 C 433.6 262.5 433.5 262.5 433.5 262.7 C 433.4 262.7 433.4 262.9 433.4 262.9 C 433.4 263.1 433.5 263.2 433.5 263.3 C 433.6 263.3 433.7 263.5 433.9 263.5 C 433.8 263.6 433.8 263.6 433.7 263.7 C 433.6 263.7 433.6 263.8 433.6 263.9 L 433.6 264.0 L 433.7 264.2 L 433.8 264.3 C 433.9 264.4 433.9 264.4 434.0 264.4 C 433.8 264.5 433.7 264.6 433.6 264.8 C 433.6 264.9 433.5 265.0 433.5 265.2 C 433.5 265.4 433.5 265.5 433.6 265.6 C 433.6 265.7 433.7 265.8 433.8 265.9 C 433.8 265.9 434.0 266.0 434.1 266.1 C 434.2 266.1 434.4 266.1 434.6 266.1 C 434.8 266.1 434.9 266.0 435.0 266.0 " fill="#000000"></path><path d="M 438.2 266.1 C 438.5 266.1 438.7 265.9 438.9 265.7 C 439.1 265.5 439.2 265.3 439.2 265.0 L 439.2 263.6 C 439.4 263.5 439.4 263.5 439.5 263.5 C 439.6 263.5 439.6 263.5 439.6 263.4 L 439.6 263.1 L 438.7 263.1 L 438.7 265.0 C 438.7 265.4 438.5 265.6 438.1 265.6 C 437.8 265.6 437.6 265.5 437.3 265.2 L 437.3 263.5 L 437.4 263.5 C 437.5 263.5 437.6 263.5 437.6 263.5 C 437.7 263.5 437.7 263.4 437.7 263.3 L 437.7 263.1 L 436.4 263.1 L 436.4 263.3 C 436.4 263.4 436.4 263.4 436.4 263.5 L 436.8 263.5 L 436.8 266.9 C 436.6 266.9 436.4 266.9 436.4 266.9 L 436.3 267.0 L 436.3 267.3 L 437.3 267.3 L 437.3 265.6 C 437.6 265.9 437.9 266.1 438.2 266.1 " fill="#000000"></path><path d="M 440.4 263.3 C 440.3 263.5 440.2 263.7 440.2 263.8 L 440.2 265.6 L 439.9 265.6 L 439.8 265.6 L 439.8 265.7 L 439.8 265.9 L 440.3 265.9 L 440.4 266.8 L 440.5 266.9 L 440.5 266.9 L 440.8 266.9 L 440.8 265.9 L 441.6 265.9 L 441.6 265.5 L 440.8 265.5 L 440.8 263.8 C 440.8 263.7 440.8 263.6 440.9 263.5 C 440.9 263.5 441.0 263.5 441.1 263.5 L 441.2 263.5 L 441.3 263.5 L 441.4 263.6 L 441.5 263.6 L 441.5 263.5 L 441.7 263.3 C 441.6 263.2 441.5 263.1 441.3 263.1 C 441.2 263.0 441.1 263.0 440.9 263.0 C 440.7 263.1 440.5 263.2 440.4 263.3 " fill="#000000"></path><path d="M 444.6 264.0 C 444.6 264.1 444.6 264.2 444.6 264.3 C 444.6 264.5 444.6 264.7 444.5 264.8 C 444.3 265.0 444.1 265.0 443.8 265.0 L 443.0 265.0 L 443.0 263.7 L 443.8 263.7 C 444.2 263.6 444.5 263.7 444.6 264.0 M 442.9 265.4 L 443.6 265.4 C 444.1 265.4 444.3 265.5 444.5 265.7 C 444.5 265.8 444.5 265.9 444.5 266.0 C 444.5 266.3 444.5 266.4 444.3 266.5 C 444.2 266.7 443.9 266.7 443.7 266.7 L 443.0 266.7 L 443.0 265.4 Z M 445.2 264.3 C 445.2 264.0 445.0 263.7 444.8 263.5 C 444.5 263.3 444.2 263.1 443.7 263.1 L 441.9 263.1 L 441.9 263.4 L 442.0 263.5 L 442.3 263.6 L 442.3 266.8 C 442.1 266.9 442.0 266.9 442.0 266.9 L 441.9 267.0 L 441.9 267.2 L 443.6 267.2 C 444.3 267.2 444.8 267.0 444.9 266.7 C 445.0 266.5 445.0 266.4 445.0 266.3 C 445.0 266.1 445.0 266.0 444.9 265.9 C 444.9 265.9 444.8 265.7 444.8 265.7 C 444.6 265.5 444.5 265.4 444.2 265.3 C 444.9 265.1 445.2 264.8 445.2 264.3 " fill="#000000"></path><path d="M 446.8 263.4 L 446.8 263.1 L 445.5 263.1 L 445.5 263.4 C 445.5 263.5 445.5 263.5 445.6 263.5 L 445.9 263.6 L 445.9 266.9 C 445.7 267.0 445.6 267.0 445.6 267.0 L 445.5 267.1 L 445.5 267.4 L 446.4 267.4 L 446.4 263.7 C 446.6 263.6 446.7 263.6 446.7 263.6 C 446.7 263.5 446.8 263.5 446.8 263.4 " fill="#000000"></path><path d="M 449.3 263.9 L 449.3 265.6 C 449.2 265.6 449.1 265.6 448.9 265.7 L 448.9 265.8 L 448.9 266.1 L 449.3 266.1 L 449.8 266.1 L 449.8 263.7 C 450.0 263.6 450.1 263.6 450.1 263.6 C 450.2 263.6 450.2 263.5 450.2 263.5 L 450.2 263.2 L 449.5 263.2 C 449.4 263.2 449.3 263.3 449.3 263.3 L 449.3 263.7 C 449.0 263.3 448.7 263.2 448.4 263.2 C 448.0 263.2 447.8 263.3 447.6 263.5 C 447.5 263.7 447.4 264.0 447.4 264.3 L 447.4 265.7 C 447.2 265.8 447.1 265.8 447.1 265.8 L 447.0 265.9 L 447.0 266.2 L 447.9 266.2 L 447.9 264.4 C 447.9 264.2 448.0 264.0 448.0 263.8 C 448.1 263.7 448.3 263.7 448.5 263.7 C 448.8 263.5 449.0 263.7 449.3 263.9 " fill="#000000"></path><path d="M 451.2 265.5 C 451.1 265.4 451.0 265.2 451.0 264.9 L 452.5 264.9 C 452.5 265.0 452.5 265.1 452.5 265.2 C 452.5 265.3 452.4 265.4 452.3 265.5 C 452.3 265.5 452.2 265.6 452.1 265.6 C 452.1 265.7 451.9 265.7 451.8 265.7 C 451.5 265.7 451.4 265.6 451.2 265.5 M 452.3 265.9 C 452.4 265.9 452.5 265.8 452.7 265.7 C 452.8 265.5 452.9 265.4 452.9 265.3 C 453.0 265.2 453.0 265.0 453.0 264.8 L 453.0 264.6 L 452.9 264.6 L 451.0 264.6 C 451.0 264.4 451.0 264.2 451.1 264.1 C 451.2 264.0 451.2 263.8 451.3 263.8 C 451.4 263.7 451.5 263.7 451.5 263.6 C 451.7 263.5 451.8 263.5 451.9 263.5 C 452.1 263.5 452.2 263.5 452.3 263.6 C 452.3 263.6 452.5 263.7 452.5 263.7 C 452.6 263.7 452.7 263.7 452.7 263.7 L 452.9 263.8 L 452.9 263.7 L 453.0 263.5 C 453.0 263.5 452.9 263.4 452.9 263.3 C 452.8 263.3 452.7 263.2 452.6 263.2 C 452.5 263.1 452.4 263.1 452.3 263.1 L 451.9 263.1 C 451.7 263.1 451.5 263.2 451.4 263.3 C 451.2 263.3 451.1 263.5 451.0 263.5 C 450.8 263.7 450.8 263.8 450.7 264.0 C 450.6 264.2 450.6 264.4 450.6 264.6 C 450.6 264.8 450.6 265.0 450.6 265.2 C 450.7 265.4 450.8 265.5 450.9 265.7 C 451.0 265.8 451.2 265.9 451.3 266.0 C 451.5 266.1 451.6 266.1 451.9 266.1 C 451.9 266.1 452.1 266.0 452.3 265.9 " fill="#000000"></path><path d="M 453.6 267.3 L 453.6 267.3 L 452.6 267.3 L 452.6 267.0 L 452.7 267.0 L 452.7 267.0 L 452.7 267.2 L 453.0 267.2 L 453.0 266.1 L 452.9 266.1 L 452.9 266.1 L 452.9 266.0 L 453.4 266.0 L 453.4 266.1 L 453.3 266.1 L 453.3 267.1 L 453.6 267.1 L 453.6 267.0 L 453.7 267.0 L 453.8 267.0 Z M 454.0 267.1 L 454.5 266.3 L 454.5 266.3 L 454.6 266.3 L 455.1 267.1 L 455.1 267.0 L 455.1 266.2 L 454.9 266.2 L 454.9 266.1 L 454.9 266.1 L 455.4 266.1 L 455.4 266.1 L 455.4 266.2 L 455.3 266.2 L 455.3 267.2 L 455.4 267.2 L 455.4 267.3 L 455.4 267.4 L 455.1 267.4 L 455.1 267.4 L 454.6 266.6 L 454.5 266.5 L 454.5 266.6 L 454.0 267.4 L 454.0 267.4 L 453.7 267.4 L 453.7 267.3 L 453.7 267.2 L 453.8 267.2 L 453.8 266.2 L 453.7 266.2 L 453.7 266.1 L 453.7 266.1 L 454.2 266.1 L 454.2 266.1 L 454.2 266.2 L 454.0 266.2 L 454.0 267.0 Z M 454.0 267.1 " fill="#000000"></path></g></g><g><clipPath id="clip0x618000aaabc0"><path d="M 397.0 296.0 L 477.0 296.0 L 477.0 114.0 L 397.0 114.0 Z M 397.0 296.0 "></path></clipPath><g clip-path="url(#clip0x618000aaabc0)"><g><clipPath id="clip0x618000aaad40"><path d="M 397.1 114.0 L 477.0 114.0 L 477.0 295.8 L 397.1 295.8 Z M 397.1 114.0 "></path></clipPath><g clip-path="url(#clip0x618000aaad40)"><g><g><clipPath id="clip0x618000aaaf20"><path d="M 408.9 172.5 L 417.6 172.5 L 417.6 184.1 L 408.9 184.1 Z M 408.9 172.5 "></path></clipPath><g clip-path="url(#clip0x618000aaaf20)"><text xml:space="preserve" font-family="Silom,Silom" font-weight="bold" font-size="12.2" fill="#010202" transform="matrix(0.53, 0.00, -0.00, -0.53, 408.9, 175.8)">A</text><text xml:space="preserve" font-family="Silom,Silom" font-weight="bold" font-size="12.2" fill="#010202" transform="matrix(0.53, 0.00, -0.00, -0.53, 413.3, 175.8)">1</text></g></g></g></g></g></g></g><g><clipPath id="clip0x618000aab1c0"><path d="M 397.0 296.0 L 477.0 296.0 L 477.0 114.0 L 397.0 114.0 Z M 397.0 296.0 "></path></clipPath><g clip-path="url(#clip0x618000aab1c0)"><g><clipPath id="clip0x618000aab340"><path d="M 397.1 114.0 L 477.0 114.0 L 477.0 295.8 L 397.1 295.8 Z M 397.1 114.0 "></path></clipPath><g clip-path="url(#clip0x618000aab340)"><g><g><clipPath id="clip0x618000aab520"><path d="M 420.2 172.5 L 426.2 172.5 L 426.2 184.1 L 420.2 184.1 Z M 420.2 172.5 "></path></clipPath><g clip-path="url(#clip0x618000aab520)"><text xml:space="preserve" font-family="Silom,Silom" font-weight="bold" font-size="12.2" fill="#010202" transform="matrix(0.53, 0.00, -0.00, -0.53, 420.2, 175.8)">0</text><text xml:space="preserve" font-family="Silom,Silom" font-weight="bold" font-size="12.2" fill="#010202" transform="matrix(0.53, 0.00, -0.00, -0.53, 424.6, 175.8)"> </text></g></g></g></g></g></g></g><g><clipPath id="clip0x618000aab7c0"><path d="M 397.0 296.0 L 477.0 296.0 L 477.0 114.0 L 397.0 114.0 Z M 397.0 296.0 "></path></clipPath><g clip-path="url(#clip0x618000aab7c0)"><g><clipPath id="clip0x618000aab940"><path d="M 397.1 114.0 L 477.0 114.0 L 477.0 295.8 L 397.1 295.8 Z M 397.1 114.0 "></path></clipPath><g clip-path="url(#clip0x618000aab940)"><g><g><clipPath id="clip0x618000aabb20"><path d="M 428.8 172.5 L 436.4 172.5 L 436.4 184.1 L 428.8 184.1 Z M 428.8 172.5 "></path></clipPath><g clip-path="url(#clip0x618000aabb20)"><text xml:space="preserve" font-family="Silom,Silom" font-weight="bold" font-size="12.2" fill="#010202" transform="matrix(0.53, 0.00, -0.00, -0.53, 428.8, 175.8)"> </text><text xml:space="preserve" font-family="Silom,Silom" font-weight="bold" font-size="12.2" fill="#010202" transform="matrix(0.53, 0.00, -0.00, -0.53, 430.4, 175.8)">1</text><text xml:space="preserve" font-family="Silom,Silom" font-weight="bold" font-size="12.2" fill="#010202" transform="matrix(0.53, 0.00, -0.00, -0.53, 434.7, 175.8)"> </text></g></g></g></g></g></g></g><g><clipPath id="clip0x618000aabe20"><path d="M 397.0 296.0 L 477.0 296.0 L 477.0 114.0 L 397.0 114.0 Z M 397.0 296.0 "></path></clipPath><g clip-path="url(#clip0x618000aabe20)"><g><clipPath id="clip0x618000aabfa0"><path d="M 397.1 114.0 L 477.0 114.0 L 477.0 295.8 L 397.1 295.8 Z M 397.1 114.0 "></path></clipPath><g clip-path="url(#clip0x618000aabfa0)"><g><g><clipPath id="clip0x618000aac180"><path d="M 438.8 172.5 L 446.4 172.5 L 446.4 184.1 L 438.8 184.1 Z M 438.8 172.5 "></path></clipPath><g clip-path="url(#clip0x618000aac180)"><text xml:space="preserve" font-family="Silom,Silom" font-weight="bold" font-size="12.2" fill="#010202" transform="matrix(0.53, 0.00, -0.00, -0.53, 438.8, 175.8)"> </text><text xml:space="preserve" font-family="Silom,Silom" font-weight="bold" font-size="12.2" fill="#010202" transform="matrix(0.53, 0.00, -0.00, -0.53, 440.4, 175.8)">2</text><text xml:space="preserve" font-family="Silom,Silom" font-weight="bold" font-size="12.2" fill="#010202" transform="matrix(0.53, 0.00, -0.00, -0.53, 444.8, 175.8)"> </text></g></g></g></g></g></g></g><g><clipPath id="clip0x618000aac480"><path d="M 397.0 296.0 L 477.0 296.0 L 477.0 114.0 L 397.0 114.0 Z M 397.0 296.0 "></path></clipPath><g clip-path="url(#clip0x618000aac480)"><g><clipPath id="clip0x618000aac600"><path d="M 397.1 114.0 L 477.0 114.0 L 477.0 295.8 L 397.1 295.8 Z M 397.1 114.0 "></path></clipPath><g clip-path="url(#clip0x618000aac600)"><g><g><clipPath id="clip0x618000aac7e0"><path d="M 450.3 172.5 L 454.7 172.5 L 454.7 184.1 L 450.3 184.1 Z M 450.3 172.5 "></path></clipPath><g clip-path="url(#clip0x618000aac7e0)"><text xml:space="preserve" font-family="Silom,Silom" font-weight="bold" font-size="12.2" fill="#010202" transform="matrix(0.53, 0.00, -0.00, -0.53, 450.3, 175.8)">3</text></g></g></g></g></g></g></g><g><clipPath id="clip0x618000aaca20"><path d="M 397.0 296.0 L 477.0 296.0 L 477.0 114.0 L 397.0 114.0 Z M 397.0 296.0 "></path></clipPath><g clip-path="url(#clip0x618000aaca20)"><g><clipPath id="clip0x618000aacba0"><path d="M 397.1 114.0 L 477.0 114.0 L 477.0 295.8 L 397.1 295.8 Z M 397.1 114.0 "></path></clipPath><g clip-path="url(#clip0x618000aacba0)"><g><g><clipPath id="clip0x618000aacd80"><path d="M 460.5 172.5 L 466.5 172.5 L 466.5 184.1 L 460.5 184.1 Z M 460.5 172.5 "></path></clipPath><g clip-path="url(#clip0x618000aacd80)"><text xml:space="preserve" font-family="Silom,Silom" font-weight="bold" font-size="12.2" fill="#010202" transform="matrix(0.53, 0.00, -0.00, -0.53, 460.5, 175.8)">4</text><text xml:space="preserve" font-family="Silom,Silom" font-weight="bold" font-size="12.2" fill="#010202" transform="matrix(0.53, 0.00, -0.00, -0.53, 464.9, 175.8)"> </text></g></g></g></g></g></g></g><g><clipPath id="clip0x618000aad020"><path d="M 397.0 296.0 L 477.0 296.0 L 477.0 114.0 L 397.0 114.0 Z M 397.0 296.0 "></path></clipPath><g clip-path="url(#clip0x618000aad020)"><g><clipPath id="clip0x618000aad1a0"><path d="M 397.1 114.0 L 477.0 114.0 L 477.0 295.8 L 397.1 295.8 Z M 397.1 114.0 "></path></clipPath><g clip-path="url(#clip0x618000aad1a0)"><g><g><clipPath id="clip0x618000aad380"><path d="M 470.5 172.5 L 474.8 172.5 L 474.8 184.1 L 470.5 184.1 Z M 470.5 172.5 "></path></clipPath><g clip-path="url(#clip0x618000aad380)"><text xml:space="preserve" font-family="Silom,Silom" font-weight="bold" font-size="12.2" fill="#010202" transform="matrix(0.53, 0.00, -0.00, -0.53, 470.5, 175.8)">5</text></g></g></g></g></g></g></g></g></svg>