<?xml version="1.0" encoding="UTF-8" standalone="no"?><svg xmlns="http://www.w3.org/2000/svg" xmlns:xlink="http://www.w3.org/1999/xlink" clip-rule="evenodd" stroke-miterlimit="10" viewBox="0 0 1920 1080"><desc>SVG generated by Keynote</desc><defs></defs><g transform="matrix(1.00, 0.00, -0.00, -1.00, 0.0, 1080.0)"><path d="M 0.0 1080.0 L 1920.0 1080.0 L 1920.0 0.0 L 0.0 0.0 Z M 0.0 1080.0 " fill="#E67D21"></path><g><clipPath id="clip0x6180008bb420"><path d="M 467.7 1128.3 L 1487.2 1128.3 L 1487.2 107.1 L 467.7 107.1 Z M 467.7 1128.3 "></path></clipPath><g clip-path="url(#clip0x6180008bb420)"><g><clipPath id="clip0x6180008a9780"><path d="M 632.0 253.0 L 1288.0 253.0 L 1288.0 987.0 L 632.0 987.0 Z M 632.0 253.0 "></path></clipPath><g clip-path="url(#clip0x6180008a9780)"><path d="M 742.7 897.4 C 755.7 897.4 766.3 886.9 766.3 873.8 C 766.3 860.8 755.7 850.2 742.7 850.2 C 729.7 850.2 719.1 860.8 719.1 873.8 C 719.1 886.9 729.7 897.4 742.7 897.4 " fill="#FFFFFF"></path><path d="M 682.4 810.0 C 695.4 810.0 706.0 799.5 706.0 786.4 C 706.0 773.4 695.4 762.8 682.4 762.8 C 669.4 762.8 658.8 773.4 658.8 786.4 C 658.8 799.5 669.4 810.0 682.4 810.0 " fill="#FFFFFF"></path><path d="M 655.6 707.2 C 668.6 707.2 679.1 696.7 679.1 683.6 C 679.1 670.6 668.6 660.0 655.6 660.0 C 642.5 660.0 632.0 670.6 632.0 683.6 C 632.0 696.7 642.5 707.2 655.6 707.2 " fill="#FFFFFF"></path><path d="M 665.4 601.5 C 678.5 601.5 689.0 590.9 689.0 577.9 C 689.0 564.8 678.5 554.3 665.4 554.3 C 652.4 554.3 641.9 564.8 641.9 577.9 C 641.9 590.9 652.4 601.5 665.4 601.5 " fill="#FFFFFF"></path><path d="M 710.9 505.4 C 723.9 505.4 734.4 494.9 734.4 481.8 C 734.4 468.8 723.9 458.2 710.9 458.2 C 697.8 458.2 687.3 468.8 687.3 481.8 C 687.3 494.9 697.8 505.4 710.9 505.4 " fill="#FFFFFF"></path><path d="M 786.3 430.7 C 799.3 430.7 809.9 420.2 809.9 407.2 C 809.9 394.1 799.3 383.6 786.3 383.6 C 773.3 383.6 762.8 394.1 762.8 407.2 C 762.8 420.2 773.3 430.7 786.3 430.7 " fill="#FFFFFF"></path><path d="M 988.5 377.8 C 1001.5 377.8 1012.0 367.2 1012.0 354.2 C 1012.0 341.2 1001.5 330.6 988.5 330.6 C 975.4 330.6 964.9 341.2 964.9 354.2 C 964.9 367.2 975.4 377.8 988.5 377.8 " fill="#FFFFFF"></path><path d="M 1090.8 405.9 C 1103.8 405.9 1114.3 395.4 1114.3 382.3 C 1114.3 369.3 1103.8 358.7 1090.8 358.7 C 1077.7 358.7 1067.2 369.3 1067.2 382.3 C 1067.2 395.4 1077.7 405.9 1090.8 405.9 " fill="#FFFFFF"></path><path d="M 1177.3 467.4 C 1190.3 467.4 1200.8 456.8 1200.8 443.8 C 1200.8 430.8 1190.3 420.2 1177.3 420.2 C 1164.3 420.2 1153.7 430.8 1153.7 443.8 C 1153.7 456.8 1164.3 467.4 1177.3 467.4 " fill="#FFFFFF"></path><path d="M 1237.6 554.8 C 1250.6 554.8 1261.2 544.2 1261.2 531.2 C 1261.2 518.2 1250.6 507.6 1237.6 507.6 C 1224.6 507.6 1214.0 518.2 1214.0 531.2 C 1214.0 544.2 1224.6 554.8 1237.6 554.8 " fill="#FFFFFF"></path><path d="M 1282.5 649.2 C 1274.1 659.2 1259.3 660.5 1249.3 652.1 C 1239.3 643.7 1238.0 628.8 1246.4 618.8 C 1254.8 608.8 1269.6 607.5 1279.6 615.9 C 1289.5 624.3 1290.9 639.2 1282.5 649.2 " fill="#FFFFFF"></path><path d="M 1242.8 719.3 C 1254.1 712.8 1268.5 716.7 1275.0 728.0 C 1281.5 739.3 1277.6 753.7 1266.3 760.2 C 1255.1 766.7 1240.7 762.9 1234.2 751.6 C 1227.6 740.3 1231.5 725.9 1242.8 719.3 " fill="#FFFFFF"></path><path d="M 1209.1 859.4 C 1222.2 859.4 1232.7 848.8 1232.7 835.8 C 1232.7 822.8 1222.2 812.2 1209.1 812.2 C 1196.1 812.2 1185.6 822.8 1185.6 835.8 C 1185.6 848.8 1196.1 859.4 1209.1 859.4 " fill="#FFFFFF"></path><path d="M 1133.7 934.1 C 1146.7 934.1 1157.2 923.5 1157.2 910.5 C 1157.2 897.4 1146.7 886.9 1133.7 886.9 C 1120.7 886.9 1110.1 897.4 1110.1 910.5 C 1110.1 923.5 1120.7 934.1 1133.7 934.1 " fill="#FFFFFF"></path><path d="M 1049.0 934.4 C 1060.3 940.9 1064.2 955.3 1057.7 966.6 C 1051.2 977.9 1036.8 981.7 1025.5 975.2 C 1014.2 968.7 1010.3 954.3 1016.9 943.0 C 1023.4 931.7 1037.8 927.9 1049.0 934.4 " fill="#FFFFFF"></path><path d="M 931.5 987.0 C 944.5 987.0 955.1 976.4 955.1 963.4 C 955.1 950.4 944.5 939.8 931.5 939.8 C 918.5 939.8 908.0 950.4 908.0 963.4 C 908.0 976.4 918.5 987.0 931.5 987.0 " fill="#FFFFFF"></path><path d="M 821.2 913.1 C 833.4 908.7 846.9 915.0 851.4 927.2 C 855.8 939.5 849.5 953.0 837.3 957.5 C 825.1 962.0 811.6 955.6 807.1 943.4 C 802.6 931.1 809.0 917.6 821.2 913.1 " fill="#FFFFFF"></path><path d="M 888.9 623.0 L 720.7 537.6 C 721.9 535.2 723.2 532.9 724.5 530.5 L 890.0 620.9 C 889.6 621.6 889.2 622.3 888.9 623.0 " fill="#FFFFFF"></path><path d="M 881.9 674.2 L 696.9 710.3 C 696.3 707.7 695.9 705.0 695.4 702.3 L 881.5 671.9 C 881.6 672.7 881.7 673.4 881.9 674.2 " fill="#FFFFFF"></path><path d="M 904.5 601.6 L 772.8 466.6 C 774.7 464.7 776.7 462.8 778.8 461.0 L 906.1 600.1 C 905.6 600.6 905.0 601.1 904.5 601.6 " fill="#FFFFFF"></path><path d="M 881.1 647.8 L 694.4 622.2 C 694.8 619.5 695.1 616.9 695.6 614.3 L 881.5 645.4 C 881.4 646.2 881.2 647.0 881.1 647.8 " fill="#FFFFFF"></path><path d="M 955.4 738.4 L 945.2 926.9 C 942.5 926.8 939.8 926.6 937.2 926.4 L 953.0 738.2 C 953.8 738.3 954.6 738.4 955.4 738.4 " fill="#FFFFFF"></path><path d="M 845.2 416.1 C 847.6 414.9 850.1 413.8 852.6 412.8 L 928.1 585.7 C 927.4 586.0 926.7 586.4 926.0 586.7 Z M 845.2 416.1 " fill="#FFFFFF"></path><path d="M 851.6 904.5 L 927.8 731.8 C 928.6 732.1 929.3 732.4 930.1 732.8 L 858.9 907.6 C 856.4 906.6 854.0 905.5 851.6 904.5 " fill="#FFFFFF"></path><path d="M 1034.5 630.6 L 1210.9 564.1 C 1211.9 566.6 1212.8 569.2 1213.7 571.7 L 1035.3 632.9 C 1035.1 632.1 1034.8 631.4 1034.5 630.6 " fill="#FFFFFF"></path><path d="M 1005.3 724.4 L 1112.6 879.6 C 1110.4 881.2 1108.2 882.6 1106.0 884.1 L 1003.2 725.8 C 1003.9 725.4 1004.6 724.9 1005.3 724.4 " fill="#FFFFFF"></path><path d="M 1024.1 706.1 L 1175.8 818.1 C 1174.2 820.3 1172.6 822.5 1170.9 824.6 L 1022.7 708.0 C 1023.2 707.4 1023.6 706.7 1024.1 706.1 " fill="#FFFFFF"></path><path d="M 1032.6 917.4 C 1030.0 918.1 1027.5 918.7 1024.9 919.4 L 979.3 736.2 C 980.2 736.0 981.0 735.8 981.8 735.5 Z M 1032.6 917.4 " fill="#FFFFFF"></path><path d="M 1036.0 682.8 L 1215.8 739.3 C 1215.0 741.9 1214.1 744.5 1213.2 747.1 L 1035.3 684.9 C 1035.5 684.2 1035.7 683.5 1036.0 682.8 " fill="#FFFFFF"></path><path d="M 907.8 719.0 L 783.8 861.2 C 781.9 859.5 779.9 857.7 778.0 856.0 L 905.9 717.3 C 906.5 717.9 907.2 718.4 907.8 719.0 " fill="#FFFFFF"></path><path d="M 1039.6 658.8 C 1039.6 658.0 1039.6 657.2 1039.6 656.4 L 1228.0 650.8 C 1228.0 653.5 1228.1 656.1 1228.1 658.8 L 1228.1 659.5 L 1039.6 659.5 Z M 1039.6 658.8 " fill="#FFFFFF"></path><path d="M 1021.5 608.2 L 1166.4 487.5 C 1168.2 489.6 1169.9 491.8 1171.7 494.0 L 1022.8 609.8 C 1022.4 609.3 1022.0 608.7 1021.5 608.2 " fill="#FFFFFF"></path><path d="M 1001.4 590.7 L 1100.2 429.9 C 1102.4 431.3 1104.6 432.7 1106.8 434.1 L 1003.5 592.0 C 1002.8 591.6 1002.1 591.1 1001.4 590.7 " fill="#FFFFFF"></path><path d="M 891.0 698.7 L 727.8 793.2 C 726.5 790.8 725.2 788.5 723.9 786.1 L 889.8 696.5 C 890.2 697.3 890.6 698.0 891.0 698.7 " fill="#FFFFFF"></path><path d="M 891.6 341.1 C 892.6 341.5 893.6 341.8 894.5 342.4 C 905.8 348.9 909.7 363.3 903.1 374.6 C 902.5 375.8 901.7 376.7 900.9 377.7 L 902.3 383.2 C 921.0 379.3 940.2 377.2 960.0 377.2 C 980.0 377.2 999.5 379.3 1018.3 383.3 L 1041.7 291.3 L 878.9 291.3 Z M 938.4 391.2 L 953.3 579.4 C 952.9 579.4 952.6 579.4 952.2 579.5 L 960.3 611.2 L 1015.7 393.5 C 997.7 389.7 979.1 387.7 960.0 387.7 C 941.1 387.7 922.7 389.7 904.9 393.4 L 950.3 571.8 L 930.1 392.0 C 932.8 391.6 935.6 391.4 938.4 391.2 M 689.3 658.8 C 689.3 808.3 810.7 929.9 960.0 929.9 C 1109.3 929.9 1230.7 808.3 1230.7 658.8 C 1230.7 533.9 1145.9 428.6 1031.0 397.2 L 968.1 644.3 C 973.2 647.2 976.7 652.6 976.7 658.8 C 976.7 668.0 969.2 675.5 960.0 675.5 C 950.8 675.5 943.3 668.0 943.3 658.8 C 943.3 652.3 947.1 646.7 952.5 644.0 L 889.7 397.0 C 774.4 428.1 689.3 533.7 689.3 658.8 M 1033.6 387.1 C 1153.0 419.5 1241.2 529.0 1241.2 658.8 C 1241.2 814.1 1115.0 940.4 960.0 940.4 C 805.0 940.4 678.8 814.1 678.8 658.8 C 678.8 528.8 767.3 419.1 887.0 386.9 L 886.8 386.0 C 881.6 386.9 876.0 386.2 870.9 383.3 C 859.7 376.8 855.8 362.3 862.3 351.0 C 865.3 345.8 870.0 342.3 875.3 340.6 L 862.7 291.3 L 824.0 291.3 L 824.0 253.0 L 1097.9 253.0 L 1097.9 291.3 L 1058.0 291.3 Z M 1033.6 387.1 " fill="#FFFFFF"></path></g></g></g></g><text xml:space="preserve" font-family="OtterFont,OtterFont" font-size="108.0" fill="#FEFFFF" transform="matrix(1.00, 0.00, -0.00, -1.00, 185.3, 111.9)">T</text><text xml:space="preserve" font-family="OtterFont,OtterFont" font-size="108.0" fill="#FEFFFF" transform="matrix(1.00, 0.00, -0.00, -1.00, 267.2, 111.9)">H</text><text xml:space="preserve" font-family="OtterFont,OtterFont" font-size="108.0" fill="#FEFFFF" transform="matrix(1.00, 0.00, -0.00, -1.00, 338.1, 111.9)">E</text><text xml:space="preserve" font-family="OtterFont,OtterFont" font-size="108.0" fill="#FEFFFF" transform="matrix(1.00, 0.00, -0.00, -1.00, 408.4, 111.9)">M</text><text xml:space="preserve" font-family="OtterFont,OtterFont" font-size="108.0" fill="#FEFFFF" transform="matrix(1.00, 0.00, -0.00, -1.00, 484.5, 111.9)">E</text><text xml:space="preserve" font-family="OtterFont,OtterFont" font-size="108.0" fill="#FEFFFF" transform="matrix(1.00, 0.00, -0.00, -1.00, 554.8, 111.9)"> </text><text xml:space="preserve" font-family="OtterFont,OtterFont" font-size="108.0" fill="#FEFFFF" transform="matrix(1.00, 0.00, -0.00, -1.00, 617.4, 111.9)">P</text><text xml:space="preserve" font-family="OtterFont,OtterFont" font-size="108.0" fill="#FEFFFF" transform="matrix(1.00, 0.00, -0.00, -1.00, 684.0, 111.9)">A</text><text xml:space="preserve" font-family="OtterFont,OtterFont" font-size="108.0" fill="#FEFFFF" transform="matrix(1.00, 0.00, -0.00, -1.00, 754.6, 111.9)">R</text><text xml:space="preserve" font-family="OtterFont,OtterFont" font-size="108.0" fill="#FEFFFF" transform="matrix(1.00, 0.00, -0.00, -1.00, 834.8, 111.9)">K</text><text xml:space="preserve" font-family="OtterFont,OtterFont" font-size="108.0" fill="#FEFFFF" transform="matrix(1.00, 0.00, -0.00, -1.00, 910.4, 111.9)"> </text><text xml:space="preserve" font-family="OtterFont,OtterFont" font-size="108.0" fill="#FEFFFF" transform="matrix(1.00, 0.00, -0.00, -1.00, 973.1, 111.9)">O</text><text xml:space="preserve" font-family="OtterFont,OtterFont" font-size="108.0" fill="#FEFFFF" transform="matrix(1.00, 0.00, -0.00, -1.00, 1039.3, 111.9)">F</text><text xml:space="preserve" font-family="OtterFont,OtterFont" font-size="108.0" fill="#FEFFFF" transform="matrix(1.00, 0.00, -0.00, -1.00, 1105.7, 111.9)"> </text><text xml:space="preserve" font-family="OtterFont,OtterFont" font-size="108.0" fill="#FEFFFF" transform="matrix(1.00, 0.00, -0.00, -1.00, 1168.3, 111.9)">E</text><text xml:space="preserve" font-family="OtterFont,OtterFont" font-size="108.0" fill="#FEFFFF" transform="matrix(1.00, 0.00, -0.00, -1.00, 1238.6, 111.9)">V</text><text xml:space="preserve" font-family="OtterFont,OtterFont" font-size="108.0" fill="#FEFFFF" transform="matrix(1.00, 0.00, -0.00, -1.00, 1306.6, 111.9)">E</text><text xml:space="preserve" font-family="OtterFont,OtterFont" font-size="108.0" fill="#FEFFFF" transform="matrix(1.00, 0.00, -0.00, -1.00, 1376.9, 111.9)">R</text><text xml:space="preserve" font-family="OtterFont,OtterFont" font-size="108.0" fill="#FEFFFF" transform="matrix(1.00, 0.00, -0.00, -1.00, 1457.1, 111.9)">Y</text><text xml:space="preserve" font-family="OtterFont,OtterFont" font-size="108.0" fill="#FEFFFF" transform="matrix(1.00, 0.00, -0.00, -1.00, 1520.6, 111.9)">D</text><text xml:space="preserve" font-family="OtterFont,OtterFont" font-size="108.0" fill="#FEFFFF" transform="matrix(1.00, 0.00, -0.00, -1.00, 1599.7, 111.9)">A</text><text xml:space="preserve" font-family="OtterFont,OtterFont" font-size="108.0" fill="#FEFFFF" transform="matrix(1.00, 0.00, -0.00, -1.00, 1670.2, 111.9)">Y</text></g></svg>