<?xml version="1.0" encoding="UTF-8" standalone="no"?><svg xmlns="http://www.w3.org/2000/svg" xmlns:xlink="http://www.w3.org/1999/xlink" clip-rule="evenodd" stroke-miterlimit="10" viewBox="0 0 1920 1080"><desc>SVG generated by Keynote</desc><defs></defs><g transform="matrix(1.00, 0.00, -0.00, -1.00, 0.0, 1080.0)"><path d="M 0.0 1080.0 L 1920.0 1080.0 L 1920.0 0.0 L 0.0 0.0 Z M 0.0 1080.0 " fill="#3498DA"></path><path d="M 497.0 339.0 L 1425.0 339.0 L 1425.0 -5.0 L 497.0 -5.0 Z M 497.5 338.6 " fill="#FEFFFE"></path><g><clipPath id="clip0x608000eac1e0"><path d="M 658.0 278.0 L 1264.0 278.0 L 1264.0 28.0 L 658.0 28.0 Z M 658.0 278.3 "></path></clipPath><g clip-path="url(#clip0x608000eac1e0)"><g><clipPath id="clip0x608000eb3e00"><path d="M 778.8 52.1 C 762.5 75.6 761.9 76.3 754.4 79.1 C 747.1 81.7 746.2 81.8 735.7 79.6 C 718.0 75.9 719.1 75.1 719.1 91.5 C 719.1 104.5 718.7 106.2 714.9 112.2 C 711.0 118.4 709.6 119.2 684.4 130.2 C 669.9 136.6 658.0 141.9 658.0 142.0 C 658.0 142.2 662.1 145.1 667.1 148.6 C 672.1 152.0 681.0 158.4 686.8 162.6 L 697.4 170.4 L 693.7 174.8 C 691.7 177.3 690.3 179.8 690.7 180.4 C 691.1 181.0 695.1 182.0 699.5 182.6 C 711.4 184.0 712.4 186.3 708.9 203.0 C 707.4 210.2 706.1 216.5 706.1 217.1 C 706.1 217.7 712.2 218.2 719.8 218.2 C 732.9 218.2 734.0 218.5 741.0 222.9 C 748.3 227.6 748.7 228.2 759.4 252.4 C 765.4 265.9 770.8 277.6 771.5 278.2 C 772.1 278.9 777.0 273.2 782.3 265.5 C 789.7 255.0 793.6 250.8 798.2 248.5 C 801.5 246.8 808.3 241.3 813.2 236.3 L 822.2 227.2 L 832.2 229.2 C 837.6 230.4 843.5 231.6 845.3 232.0 C 847.5 232.5 848.6 231.9 849.1 229.7 C 849.7 227.6 850.9 226.8 853.3 227.2 C 856.0 227.6 856.8 228.9 857.7 233.8 C 858.2 237.1 859.4 241.1 860.2 242.7 C 861.5 245.0 861.1 245.9 858.4 247.7 C 855.7 249.4 855.2 250.9 855.7 254.9 C 856.2 259.2 857.0 260.2 861.4 261.5 C 865.3 262.7 866.2 262.7 864.9 261.5 C 863.7 260.2 863.9 259.2 865.6 257.2 C 867.8 254.8 868.3 254.9 874.5 259.6 C 886.2 268.6 895.2 271.2 914.2 271.2 C 930.2 271.2 931.4 271.0 940.4 266.5 C 950.9 261.3 963.7 250.0 963.7 245.9 C 963.7 244.5 964.7 242.4 965.9 241.5 C 967.3 240.3 968.2 237.6 968.0 233.6 L 967.0 228.0 L 1102.7 227.0 L 1238.1 227.0 L 1251.1 209.4 L 1264.0 191.9 L 1243.0 143.0 L 1222.0 94.0 L 1043.1 94.0 C 926.7 93.8 863.6 92.8 862.7 91.8 C 861.9 91.0 855.2 90.4 847.8 90.4 C 835.3 90.4 833.8 90.1 827.1 85.9 C 819.9 81.5 819.6 81.0 807.9 54.7 C 801.3 40.0 795.8 27.9 795.7 27.9 C 795.5 27.9 787.9 38.8 778.8 52.1 "></path></clipPath><g clip-path="url(#clip0x608000eb3e00)"><image xlink:href="../../64821B6A-6948-4282-9E2B-2171EF77AE0F/assets/72CFF6854A009128975DCAB81F5EBAB2.png" width="900.00" height="374.00" transform="matrix(0.73, 0.00, -0.00, -0.73, 627.0, 288.0)"></image></g></g></g></g><g><clipPath id="clip0x610000aad7a0"><path d="M 497.0 1082.0 L 1425.0 1082.0 L 1425.0 321.0 L 497.0 321.0 Z M 497.5 1082.2 "></path></clipPath><g clip-path="url(#clip0x610000aad7a0)"><g><clipPath id="clip0x610000aa9cc0"><path d="M 470.0 707.0 L 470.0 1097.0 L 1036.7 1097.0 L 1604.0 1097.0 L 1604.0 706.7 L 1604.0 317.0 L 1036.7 317.0 L 470.0 317.0 L 470.0 707.0 "></path></clipPath><g clip-path="url(#clip0x610000aa9cc0)"><image xlink:href="../../64821B6A-6948-4282-9E2B-2171EF77AE0F/assets/0DE955A6D45FD024F040D4204F690EC7.png" width="500.00" height="345.00" transform="matrix(2.37, 0.00, -0.00, -2.37, 441.0, 1121.0)"></image></g></g></g></g></g></svg>