<?xml version="1.0" encoding="UTF-8" standalone="no"?><svg xmlns="http://www.w3.org/2000/svg" xmlns:xlink="http://www.w3.org/1999/xlink" clip-rule="evenodd" stroke-miterlimit="10" viewBox="0 0 1920 1080"><desc>SVG generated by Keynote</desc><defs></defs><g transform="matrix(1.00, 0.00, -0.00, -1.00, 0.0, 1080.0)"><path d="M 0.0 1080.0 L 1920.0 1080.0 L 1920.0 0.0 L 0.0 0.0 Z M 0.0 1080.0 " fill="#E67D21"></path><image xlink:href="16F2B2E7E5E9B14C5E4D51E638946528.jpeg" width="3200.00" height="2800.00" transform="matrix(0.62, 0.00, -0.00, -0.62, -35.0, 1233.0)"></image><g><clipPath id="clip0x610000cac240"><path d="M -0.9 979.0 L 58.3 979.0 L 58.3 1081.0 L -0.9 1081.0 Z M -0.9 979.0 "></path></clipPath><g clip-path="url(#clip0x610000cac240)"><path d="M 0.0 980.0 L 0.0 980.0 L 0.0 1030.0 L 0.0 1080.0 L 0.0 1080.0 L 57.3 1080.0 L 57.0 1080.0 L 57.0 1030.0 L 57.0 980.0 L 57.0 980.0 Z M 0.1 980.0 " fill="#3498DA"></path></g></g><g><clipPath id="clip0x610000cb2000"><path d="M 609.0 979.0 L 1363.2 979.0 L 1363.2 1081.0 L 609.0 1081.0 Z M 609.0 979.0 "></path></clipPath><g clip-path="url(#clip0x610000cb2000)"><path d="M 654.0 980.0 L 654.0 980.0 L 610.0 1030.0 L 654.0 1080.0 L 654.0 1080.0 L 1318.2 1080.0 L 1318.2 1080.0 L 1362.2 1030.0 L 1318.2 980.0 L 1318.2 980.0 Z M 654.0 980.0 " fill="#2ECC71"></path></g></g><g><clipPath id="clip0x610000caba00"><path d="M 610.0 980.0 L 1362.2 980.0 L 1362.2 1080.0 L 610.0 1080.0 Z M 610.0 980.0 "></path></clipPath><g clip-path="url(#clip0x610000caba00)"><text xml:space="preserve" font-family="OtterFont,OtterFont" font-size="56.0" fill="#FEFFFE" transform="matrix(1.00, 0.00, -0.00, -1.00, 713.3, 1012.9)"> </text><text xml:space="preserve" font-family="OtterFont,OtterFont" font-size="56.0" fill="#FEFFFE" transform="matrix(1.00, 0.00, -0.00, -1.00, 745.8, 1012.9)"> </text><text xml:space="preserve" font-family="OtterFont,OtterFont" font-size="56.0" fill="#FEFFFE" transform="matrix(1.00, 0.00, -0.00, -1.00, 778.3, 1012.9)">P</text><text xml:space="preserve" font-family="OtterFont,OtterFont" font-size="56.0" fill="#FEFFFE" transform="matrix(1.00, 0.00, -0.00, -1.00, 812.8, 1012.9)">o</text><text xml:space="preserve" font-family="OtterFont,OtterFont" font-size="56.0" fill="#FEFFFE" transform="matrix(1.00, 0.00, -0.00, -1.00, 847.4, 1012.9)">c</text><text xml:space="preserve" font-family="OtterFont,OtterFont" font-size="56.0" fill="#FEFFFE" transform="matrix(1.00, 0.00, -0.00, -1.00, 885.7, 1012.9)">k</text><text xml:space="preserve" font-family="OtterFont,OtterFont" font-size="56.0" fill="#FEFFFE" transform="matrix(1.00, 0.00, -0.00, -1.00, 922.6, 1012.9)">e</text><text xml:space="preserve" font-family="OtterFont,OtterFont" font-size="56.0" fill="#FEFFFE" transform="matrix(1.00, 0.00, -0.00, -1.00, 951.9, 1012.9)">t</text><text xml:space="preserve" font-family="OtterFont,OtterFont" font-size="56.0" fill="#FEFFFE" transform="matrix(1.00, 0.00, -0.00, -1.00, 984.5, 1012.9)">P</text><text xml:space="preserve" font-family="OtterFont,OtterFont" font-size="56.0" fill="#FEFFFE" transform="matrix(1.00, 0.00, -0.00, -1.00, 1019.0, 1012.9)">a</text><text xml:space="preserve" font-family="OtterFont,OtterFont" font-size="56.0" fill="#FEFFFE" transform="matrix(1.00, 0.00, -0.00, -1.00, 1052.5, 1012.9)">r</text><text xml:space="preserve" font-family="OtterFont,OtterFont" font-size="56.0" fill="#FEFFFE" transform="matrix(1.00, 0.00, -0.00, -1.00, 1088.6, 1012.9)">k</text><text xml:space="preserve" font-family="OtterFont,OtterFont" font-size="56.0" fill="#FEFFFE" transform="matrix(1.00, 0.00, -0.00, -1.00, 1125.5, 1012.9)"> </text><text xml:space="preserve" font-family="OtterFont,OtterFont" font-size="56.0" fill="#FEFFFE" transform="matrix(1.00, 0.00, -0.00, -1.00, 1158.0, 1012.9)">A</text><text xml:space="preserve" font-family="OtterFont,OtterFont" font-size="56.0" fill="#FEFFFE" transform="matrix(1.00, 0.00, -0.00, -1.00, 1194.6, 1012.9)">p</text><text xml:space="preserve" font-family="OtterFont,OtterFont" font-size="56.0" fill="#FEFFFE" transform="matrix(1.00, 0.00, -0.00, -1.00, 1226.7, 1012.9)">p</text></g></g><g><clipPath id="clip0x610000aa38a0"><path d="M 9.7 979.0 L 711.7 979.0 L 711.7 1081.0 L 9.7 1081.0 Z M 9.7 979.0 "></path></clipPath><g clip-path="url(#clip0x610000aa38a0)"><path d="M 55.0 980.0 L 54.7 980.0 L 10.7 1030.0 L 54.7 1080.0 L 54.7 1080.0 L 666.7 1080.0 L 666.7 1080.0 L 710.7 1030.0 L 666.7 980.0 L 666.7 980.0 Z M 54.7 980.0 " fill="#3498DA"></path></g></g><g><clipPath id="clip0x610000abac40"><path d="M 10.7 980.0 L 710.7 980.0 L 710.7 1080.0 L 10.7 1080.0 Z M 10.7 980.0 "></path></clipPath><g clip-path="url(#clip0x610000abac40)"><text xml:space="preserve" font-family="OtterFont,OtterFont" font-size="56.0" fill="#FEFFFE" transform="matrix(1.00, 0.00, -0.00, -1.00, 109.7, 1012.9)">I</text><text xml:space="preserve" font-family="OtterFont,OtterFont" font-size="56.0" fill="#FEFFFE" transform="matrix(1.00, 0.00, -0.00, -1.00, 151.8, 1012.9)">N</text><text xml:space="preserve" font-family="OtterFont,OtterFont" font-size="56.0" fill="#FEFFFE" transform="matrix(1.00, 0.00, -0.00, -1.00, 187.8, 1012.9)">S</text><text xml:space="preserve" font-family="OtterFont,OtterFont" font-size="56.0" fill="#FEFFFE" transform="matrix(1.00, 0.00, -0.00, -1.00, 228.1, 1012.9)">T</text><text xml:space="preserve" font-family="OtterFont,OtterFont" font-size="56.0" fill="#FEFFFE" transform="matrix(1.00, 0.00, -0.00, -1.00, 270.6, 1012.9)">A</text><text xml:space="preserve" font-family="OtterFont,OtterFont" font-size="56.0" fill="#FEFFFE" transform="matrix(1.00, 0.00, -0.00, -1.00, 307.1, 1012.9)">L</text><text xml:space="preserve" font-family="OtterFont,OtterFont" font-size="56.0" fill="#FEFFFE" transform="matrix(1.00, 0.00, -0.00, -1.00, 343.6, 1012.9)">L</text><text xml:space="preserve" font-family="OtterFont,OtterFont" font-size="56.0" fill="#FEFFFE" transform="matrix(1.00, 0.00, -0.00, -1.00, 380.0, 1012.9)">A</text><text xml:space="preserve" font-family="OtterFont,OtterFont" font-size="56.0" fill="#FEFFFE" transform="matrix(1.00, 0.00, -0.00, -1.00, 416.6, 1012.9)">T</text><text xml:space="preserve" font-family="OtterFont,OtterFont" font-size="56.0" fill="#FEFFFE" transform="matrix(1.00, 0.00, -0.00, -1.00, 459.1, 1012.9)">I</text><text xml:space="preserve" font-family="OtterFont,OtterFont" font-size="56.0" fill="#FEFFFE" transform="matrix(1.00, 0.00, -0.00, -1.00, 501.2, 1012.9)">O</text><text xml:space="preserve" font-family="OtterFont,OtterFont" font-size="56.0" fill="#FEFFFE" transform="matrix(1.00, 0.00, -0.00, -1.00, 535.5, 1012.9)">N</text><text xml:space="preserve" font-family="OtterFont,OtterFont" font-size="56.0" fill="#FEFFFE" transform="matrix(1.00, 0.00, -0.00, -1.00, 571.5, 1012.9)">S</text></g></g><g opacity="0.35"><g><clipPath id="clip0x610000ca24c0"><path d="M 0.0 978.0 L 713.0 978.0 L 713.0 1080.0 L 0.0 1080.0 Z M 0.0 978.0 "></path></clipPath><g clip-path="url(#clip0x610000ca24c0)"><path d="M -14.0 980.0 L -14.3 980.0 L -58.3 1030.0 L -14.3 1080.0 L -14.3 1080.0 L 667.3 1080.0 L 667.3 1080.0 L 711.3 1030.0 L 667.3 980.0 L 667.3 980.0 Z M -14.3 980.0 " fill="#000000"></path></g></g></g></g></svg>