<?xml version="1.0" encoding="UTF-8" standalone="no"?><svg xmlns="http://www.w3.org/2000/svg" xmlns:xlink="http://www.w3.org/1999/xlink" clip-rule="evenodd" stroke-miterlimit="10" viewBox="0 0 713 103"><desc>SVG generated by Keynote</desc><defs></defs><g transform="matrix(1.00, 0.00, -0.00, -1.00, 0.0, 103.0)"><g><clipPath id="clip0x6000008b75e0"><path d="M 0.1 1.0 L 59.3 1.0 L 59.3 103.0 L 0.1 103.0 Z M 0.1 1.0 "></path></clipPath><g clip-path="url(#clip0x6000008b75e0)"><path d="M 1.0 2.0 L 1.0 2.0 L 1.0 52.0 L 1.0 102.0 L 1.0 102.0 L 58.3 102.0 L 58.0 102.0 L 58.0 52.0 L 58.0 2.0 L 58.0 2.0 Z M 1.1 2.0 " fill="#3498DA"></path></g></g><g><clipPath id="clip0x6000008b7a60"><path d="M 10.7 1.0 L 712.7 1.0 L 712.7 103.0 L 10.7 103.0 Z M 10.7 1.0 "></path></clipPath><g clip-path="url(#clip0x6000008b7a60)"><path d="M 56.0 2.0 L 55.7 2.0 L 11.7 52.0 L 55.7 102.0 L 55.7 102.0 L 667.7 102.0 L 667.7 102.0 L 711.7 52.0 L 667.7 2.0 L 667.7 2.0 Z M 55.7 2.0 " fill="#3498DA"></path></g></g><g><clipPath id="clip0x6000008b7ca0"><path d="M 11.7 2.0 L 711.7 2.0 L 711.7 102.0 L 11.7 102.0 Z M 11.7 2.0 "></path></clipPath><g clip-path="url(#clip0x6000008b7ca0)"><text xml:space="preserve" font-family="OtterFont,OtterFont" font-size="56.0" fill="#FEFFFE" transform="matrix(1.00, 0.00, -0.00, -1.00, 110.7, 34.9)">I</text><text xml:space="preserve" font-family="OtterFont,OtterFont" font-size="56.0" fill="#FEFFFE" transform="matrix(1.00, 0.00, -0.00, -1.00, 152.8, 34.9)">N</text><text xml:space="preserve" font-family="OtterFont,OtterFont" font-size="56.0" fill="#FEFFFE" transform="matrix(1.00, 0.00, -0.00, -1.00, 188.8, 34.9)">S</text><text xml:space="preserve" font-family="OtterFont,OtterFont" font-size="56.0" fill="#FEFFFE" transform="matrix(1.00, 0.00, -0.00, -1.00, 229.1, 34.9)">T</text><text xml:space="preserve" font-family="OtterFont,OtterFont" font-size="56.0" fill="#FEFFFE" transform="matrix(1.00, 0.00, -0.00, -1.00, 271.6, 34.9)">A</text><text xml:space="preserve" font-family="OtterFont,OtterFont" font-size="56.0" fill="#FEFFFE" transform="matrix(1.00, 0.00, -0.00, -1.00, 308.1, 34.9)">L</text><text xml:space="preserve" font-family="OtterFont,OtterFont" font-size="56.0" fill="#FEFFFE" transform="matrix(1.00, 0.00, -0.00, -1.00, 344.6, 34.9)">L</text><text xml:space="preserve" font-family="OtterFont,OtterFont" font-size="56.0" fill="#FEFFFE" transform="matrix(1.00, 0.00, -0.00, -1.00, 381.0, 34.9)">A</text><text xml:space="preserve" font-family="OtterFont,OtterFont" font-size="56.0" fill="#FEFFFE" transform="matrix(1.00, 0.00, -0.00, -1.00, 417.6, 34.9)">T</text><text xml:space="preserve" font-family="OtterFont,OtterFont" font-size="56.0" fill="#FEFFFE" transform="matrix(1.00, 0.00, -0.00, -1.00, 460.1, 34.9)">I</text><text xml:space="preserve" font-family="OtterFont,OtterFont" font-size="56.0" fill="#FEFFFE" transform="matrix(1.00, 0.00, -0.00, -1.00, 502.2, 34.9)">O</text><text xml:space="preserve" font-family="OtterFont,OtterFont" font-size="56.0" fill="#FEFFFE" transform="matrix(1.00, 0.00, -0.00, -1.00, 536.5, 34.9)">N</text><text xml:space="preserve" font-family="OtterFont,OtterFont" font-size="56.0" fill="#FEFFFE" transform="matrix(1.00, 0.00, -0.00, -1.00, 572.5, 34.9)">S</text></g></g></g></svg>