<?xml version="1.0" encoding="UTF-8" standalone="no"?><svg xmlns="http://www.w3.org/2000/svg" xmlns:xlink="http://www.w3.org/1999/xlink" clip-rule="evenodd" stroke-miterlimit="10" viewBox="0 0 1920 1080"><desc>SVG generated by Keynote</desc><defs></defs><g transform="matrix(1.00, 0.00, -0.00, -1.00, 0.0, 1080.0)"><path d="M 0.0 1080.0 L 1920.0 1080.0 L 1920.0 0.0 L 0.0 0.0 Z M 0.0 1080.0 " fill="#3498DA"></path><path d="M 421.0 290.0 L 1499.0 290.0 L 1499.0 -1.0 L 421.0 -1.0 Z M 421.0 290.4 " fill="#FEFFFE"></path><g><clipPath id="clip0x6180006a2820"><path d="M 689.0 134.0 L 1231.0 134.0 L 1231.0 -1.0 L 689.0 -1.0 Z M 689.2 133.6 "></path></clipPath><g clip-path="url(#clip0x6180006a2820)"><image xlink:href="../../3A5C7AEB-5DE1-444B-A5A1-2FB620182EA1/assets/D538802592602FBCE411C89F52689D12.png" width="306.00" height="76.00" transform="matrix(1.77, 0.00, -0.00, -1.78, 689.0, 134.0)"></image></g></g><g><clipPath id="clip0x6000008a9f00"><path d="M 421.4 264.9 L 1497.7 264.9 L 1497.7 709.5 L 421.4 709.5 Z M 421.4 264.9 "></path></clipPath><g clip-path="url(#clip0x6000008a9f00)"><image xlink:href="../../3A5C7AEB-5DE1-444B-A5A1-2FB620182EA1/assets/01F65B36F5856B2A87BDA25CBE1A4753.png" width="954.00" height="394.00" transform="matrix(1.13, 0.00, -0.00, -1.13, 421.0, 709.0)"></image></g></g><g><clipPath id="clip0x6180006a7da0"><path d="M 862.0 1080.0 L 1499.0 1080.0 L 1499.0 701.0 L 862.0 701.0 Z M 862.5 1080.3 "></path></clipPath><g clip-path="url(#clip0x6180006a7da0)"><g><clipPath id="clip0x6180006a5400"><path d="M 862.5 701.0 L 1498.9 701.0 L 1498.9 1080.3 L 862.5 1080.3 Z M 862.5 701.0 "></path></clipPath><g clip-path="url(#clip0x6180006a5400)"><image xlink:href="../../3A5C7AEB-5DE1-444B-A5A1-2FB620182EA1/assets/80FAF1A56226DD0882F8FF7FE6BF39B9.jpeg" width="2048.00" height="1536.00" transform="matrix(0.60, 0.00, -0.00, -0.60, 667.0, 1400.0)"></image></g></g></g></g><g><clipPath id="clip0x6180006a5100"><path d="M 421.0 1080.0 L 870.0 1080.0 L 870.0 701.0 L 421.0 701.0 Z M 421.1 1080.1 "></path></clipPath><g clip-path="url(#clip0x6180006a5100)"><g><clipPath id="clip0x6180006ab100"><path d="M 421.1 701.1 L 870.2 701.1 L 870.2 1080.1 L 421.1 1080.1 Z M 421.1 701.1 "></path></clipPath><g clip-path="url(#clip0x6180006ab100)"><image xlink:href="../../3A5C7AEB-5DE1-444B-A5A1-2FB620182EA1/assets/461EFA273C2D49967897EAF56C5462BC.jpeg" width="988.00" height="1481.00" transform="matrix(0.50, 0.00, -0.00, -0.50, 399.0, 1318.0)"></image></g></g></g></g></g></svg>