<?xml version="1.0" encoding="UTF-8" standalone="no"?><svg xmlns="http://www.w3.org/2000/svg" xmlns:xlink="http://www.w3.org/1999/xlink" clip-rule="evenodd" stroke-miterlimit="10" viewBox="0 0 1920 1080"><desc>SVG generated by Keynote</desc><defs></defs><g transform="matrix(1.00, 0.00, -0.00, -1.00, 0.0, 1080.0)"><path d="M 0.0 1080.0 L 1920.0 1080.0 L 1920.0 0.0 L 0.0 0.0 Z M 0.0 1080.0 " fill="#3498DA"></path><image xlink:href="4B4B565CDF85055963369295B41FB160.png" width="3072.00" height="2304.00" transform="matrix(0.64, 0.00, -0.00, -0.64, -20.0, 1117.0)"></image><text xml:space="preserve" font-family="HelveticaNeue-Light,Helvetica Neue" font-size="20.0" fill="#FEFFFF" transform="matrix(1.00, 0.00, -0.00, -1.00, 32.6, 8.7)">G</text><text xml:space="preserve" font-family="HelveticaNeue-Light,Helvetica Neue" font-size="20.0" fill="#FEFFFF" transform="matrix(1.00, 0.00, -0.00, -1.00, 47.2, 8.7)">R</text><text xml:space="preserve" font-family="HelveticaNeue-Light,Helvetica Neue" font-size="20.0" fill="#FEFFFF" transform="matrix(1.00, 0.00, -0.00, -1.00, 60.3, 8.7)">U</text><text xml:space="preserve" font-family="HelveticaNeue-Light,Helvetica Neue" font-size="20.0" fill="#FEFFFF" transform="matrix(1.00, 0.00, -0.00, -1.00, 73.8, 8.7)">N</text><text xml:space="preserve" font-family="HelveticaNeue-Light,Helvetica Neue" font-size="20.0" fill="#FEFFFF" transform="matrix(1.00, 0.00, -0.00, -1.00, 87.6, 8.7)">T</text><text xml:space="preserve" font-family="HelveticaNeue-Light,Helvetica Neue" font-size="20.0" fill="#FEFFFF" transform="matrix(1.00, 0.00, -0.00, -1.00, 98.5, 8.7)">Z</text><text xml:space="preserve" font-family="HelveticaNeue-Light,Helvetica Neue" font-size="20.0" fill="#FEFFFF" transform="matrix(1.00, 0.00, -0.00, -1.00, 109.7, 8.7)">O</text><text xml:space="preserve" font-family="HelveticaNeue-Light,Helvetica Neue" font-size="20.0" fill="#FEFFFF" transform="matrix(1.00, 0.00, -0.00, -1.00, 124.3, 8.7)">O</text><text xml:space="preserve" font-family="HelveticaNeue-Light,Helvetica Neue" font-size="20.0" fill="#FEFFFF" transform="matrix(1.00, 0.00, -0.00, -1.00, 138.8, 8.7)">K</text><text xml:space="preserve" font-family="HelveticaNeue-Light,Helvetica Neue" font-size="20.0" fill="#FEFFFF" transform="matrix(1.00, 0.00, -0.00, -1.00, 151.5, 8.7)">I</text><text xml:space="preserve" font-family="HelveticaNeue-Light,Helvetica Neue" font-size="25.0" fill="#FEFFFF" transform="matrix(1.00, 0.00, -0.00, -1.00, 155.7, 8.7)"> </text><text xml:space="preserve" font-family="HelveticaNeue-Light,Helvetica Neue" font-size="25.0" fill="#FEFFFF" transform="matrix(1.00, 0.00, -0.00, -1.00, 162.4, 8.7)">–</text><text xml:space="preserve" font-family="HelveticaNeue-Light,Helvetica Neue" font-size="25.0" fill="#FEFFFF" transform="matrix(1.00, 0.00, -0.00, -1.00, 174.7, 8.7)"> </text><text xml:space="preserve" font-family="HelveticaNeue-Light,Helvetica Neue" font-size="20.0" fill="#FEFFFF" transform="matrix(1.00, 0.00, -0.00, -1.00, 181.4, 8.7)">F</text><text xml:space="preserve" font-family="HelveticaNeue-Light,Helvetica Neue" font-size="20.0" fill="#FEFFFF" transform="matrix(1.00, 0.00, -0.00, -1.00, 191.9, 8.7)">L</text><text xml:space="preserve" font-family="HelveticaNeue-Light,Helvetica Neue" font-size="20.0" fill="#FEFFFF" transform="matrix(1.00, 0.00, -0.00, -1.00, 202.4, 8.7)">I</text><text xml:space="preserve" font-family="HelveticaNeue-Light,Helvetica Neue" font-size="20.0" fill="#FEFFFF" transform="matrix(1.00, 0.00, -0.00, -1.00, 206.5, 8.7)">C</text><text xml:space="preserve" font-family="HelveticaNeue-Light,Helvetica Neue" font-size="20.0" fill="#FEFFFF" transform="matrix(1.00, 0.00, -0.00, -1.00, 220.4, 8.7)">K</text><text xml:space="preserve" font-family="HelveticaNeue-Light,Helvetica Neue" font-size="20.0" fill="#FEFFFF" transform="matrix(1.00, 0.00, -0.00, -1.00, 233.1, 8.7)">R</text><g><clipPath id="clip0x608000cbc800"><path d="M -5.1 28.3 L 35.1 28.3 L 35.1 -11.8 L -5.1 -11.8 Z M -5.1 28.3 "></path></clipPath><g clip-path="url(#clip0x608000cbc800)"><g><clipPath id="clip0x608000cb17c0"><path d="M 3.0 2.0 L 28.0 2.0 L 28.0 27.0 L 3.0 27.0 Z M 3.0 2.0 "></path></clipPath><g clip-path="url(#clip0x608000cb17c0)"><path d="M 12.0 10.3 C 13.0 10.3 14.0 10.7 14.8 11.4 C 15.1 11.6 15.1 12.0 14.9 12.3 C 14.6 12.5 14.3 12.5 14.0 12.3 C 13.5 11.8 12.7 11.5 12.0 11.5 C 10.3 11.5 9.0 12.8 9.0 14.5 C 9.0 16.2 10.3 17.5 12.0 17.5 C 12.7 17.5 13.5 17.2 14.0 16.7 C 14.3 16.5 14.6 16.5 14.9 16.7 C 15.1 17.0 15.1 17.4 14.8 17.6 C 14.0 18.3 13.0 18.7 12.0 18.7 C 9.7 18.7 7.8 16.8 7.8 14.5 C 7.8 12.2 9.7 10.3 12.0 10.3 " fill="#FFFFFF"></path><path d="M 20.0 10.3 C 21.1 10.3 22.1 10.7 22.9 11.4 C 23.1 11.6 23.1 12.0 22.9 12.3 C 22.7 12.5 22.3 12.5 22.1 12.3 C 21.5 11.8 20.8 11.5 20.0 11.5 C 18.4 11.5 17.0 12.8 17.0 14.5 C 17.0 16.2 18.4 17.5 20.0 17.5 C 20.8 17.5 21.5 17.2 22.0 16.7 C 22.3 16.5 22.7 16.5 22.9 16.7 C 23.1 17.0 23.1 17.4 22.9 17.6 C 22.1 18.3 21.1 18.7 20.0 18.7 C 17.7 18.7 15.8 16.8 15.8 14.5 C 15.8 12.2 17.7 10.3 20.0 10.3 " fill="#FFFFFF"></path><path d="M 15.5 25.8 C 21.6 25.8 26.8 20.6 26.8 14.5 C 26.8 8.4 21.6 3.2 15.5 3.2 C 9.4 3.2 4.2 8.4 4.2 14.5 C 4.2 20.6 9.4 25.8 15.5 25.8 M 15.5 2.0 C 22.3 2.0 28.0 7.7 28.0 14.5 C 28.0 21.3 22.3 27.0 15.5 27.0 C 8.7 27.0 3.0 21.3 3.0 14.5 C 3.0 7.7 8.7 2.0 15.5 2.0 " fill="#FFFFFF"></path></g></g></g></g></g></svg>