<?xml version="1.0" encoding="UTF-8" standalone="no"?><svg xmlns="http://www.w3.org/2000/svg" xmlns:xlink="http://www.w3.org/1999/xlink" clip-rule="evenodd" stroke-miterlimit="10" viewBox="0 0 1920 1080"><desc>SVG generated by Keynote</desc><defs></defs><g transform="matrix(1.00, 0.00, -0.00, -1.00, 0.0, 1080.0)"><path d="M 0.0 1080.0 L 1920.0 1080.0 L 1920.0 0.0 L 0.0 0.0 Z M 0.0 1080.0 " fill="#E67D21"></path><text xml:space="preserve" font-family="OtterFont,OtterFont" font-size="200.0" fill="#FEFFFF" transform="matrix(1.00, 0.00, -0.00, -1.00, 1342.8, 397.5)">$</text><text xml:space="preserve" font-family="OtterFont,OtterFont" font-size="200.0" fill="#FEFFFF" transform="matrix(1.00, 0.00, -0.00, -1.00, 1469.6, 397.5)">3</text><text xml:space="preserve" font-family="OtterFont,OtterFont" font-size="200.0" fill="#FEFFFF" transform="matrix(1.00, 0.00, -0.00, -1.00, 1609.4, 397.5)">0</text><g><clipPath id="clip0x6080008bd3a0"><path d="M 83.0 825.0 L 1171.0 825.0 L 1171.0 155.0 L 83.0 155.0 Z M 82.9 824.6 "></path></clipPath><g clip-path="url(#clip0x6080008bd3a0)"><g><clipPath id="clip0x6080008bd5e0"><path d="M 82.9 155.4 L 1170.6 155.4 L 1170.6 824.6 L 82.9 824.6 Z M 82.9 155.4 "></path></clipPath><g clip-path="url(#clip0x6080008bd5e0)"><image xlink:href="../../02763E95-06E1-4F64-8663-17221D590B5B/assets/9D223A3507DA13D28340C0710BBA7471.png" width="2272.00" height="2026.00" transform="matrix(0.53, 0.00, -0.00, -0.53, 21.0, 901.0)"></image></g></g></g></g><g><clipPath id="clip0x6100006bd400"><path d="M 611.9 757.1 L 1131.6 757.1 L 1131.6 809.9 L 611.9 809.9 Z M 611.9 757.1 "></path></clipPath><g clip-path="url(#clip0x6100006bd400)"><path d="M 613.0 809.0 L 1131.0 809.0 L 1131.0 758.0 L 613.0 758.0 Z M 612.9 808.9 " fill="#008ABE"></path></g></g><g><clipPath id="clip0x6100006bd5e0"><path d="M 1261.8 979.0 L 1963.8 979.0 L 1963.8 1081.0 L 1261.8 1081.0 Z M 1261.8 979.0 "></path></clipPath><g clip-path="url(#clip0x6100006bd5e0)"><path d="M 1307.0 980.0 L 1306.8 980.0 L 1262.8 1030.0 L 1306.8 1080.0 L 1306.8 1080.0 L 1918.8 1080.0 L 1918.8 1080.0 L 1962.8 1030.0 L 1918.8 980.0 L 1918.8 980.0 Z M 1306.8 980.0 " fill="#E67D21"></path></g></g><g><clipPath id="clip0x6100006bd820"><path d="M -0.9 979.0 L 58.3 979.0 L 58.3 1081.0 L -0.9 1081.0 Z M -0.9 979.0 "></path></clipPath><g clip-path="url(#clip0x6100006bd820)"><path d="M 0.0 980.0 L 0.0 980.0 L 0.0 1030.0 L 0.0 1080.0 L 0.0 1080.0 L 57.3 1080.0 L 57.0 1080.0 L 57.0 1030.0 L 57.0 980.0 L 57.0 980.0 Z M 0.1 980.0 " fill="#3498DA"></path></g></g><g><clipPath id="clip0x6100006bdac0"><path d="M 609.0 979.0 L 1363.2 979.0 L 1363.2 1081.0 L 609.0 1081.0 Z M 609.0 979.0 "></path></clipPath><g clip-path="url(#clip0x6100006bdac0)"><path d="M 654.0 980.0 L 654.0 980.0 L 610.0 1030.0 L 654.0 1080.0 L 654.0 1080.0 L 1318.2 1080.0 L 1318.2 1080.0 L 1362.2 1030.0 L 1318.2 980.0 L 1318.2 980.0 Z M 654.0 980.0 " fill="#E67D21"></path></g></g><g><clipPath id="clip0x6100006bdca0"><path d="M 9.7 979.0 L 711.7 979.0 L 711.7 1081.0 L 9.7 1081.0 Z M 9.7 979.0 "></path></clipPath><g clip-path="url(#clip0x6100006bdca0)"><path d="M 55.0 980.0 L 54.7 980.0 L 10.7 1030.0 L 54.7 1080.0 L 54.7 1080.0 L 666.7 1080.0 L 666.7 1080.0 L 710.7 1030.0 L 666.7 980.0 L 666.7 980.0 Z M 54.7 980.0 " fill="#3498DA"></path></g></g><g><clipPath id="clip0x6100006bdf40"><path d="M 10.7 980.0 L 710.7 980.0 L 710.7 1080.0 L 10.7 1080.0 Z M 10.7 980.0 "></path></clipPath><g clip-path="url(#clip0x6100006bdf40)"><text xml:space="preserve" font-family="OtterFont,OtterFont" font-size="56.0" fill="#FEFFFE" transform="matrix(1.00, 0.00, -0.00, -1.00, 186.1, 1012.9)">F</text><text xml:space="preserve" font-family="OtterFont,OtterFont" font-size="56.0" fill="#FEFFFE" transform="matrix(1.00, 0.00, -0.00, -1.00, 220.6, 1012.9)">R</text><text xml:space="preserve" font-family="OtterFont,OtterFont" font-size="56.0" fill="#FEFFFE" transform="matrix(1.00, 0.00, -0.00, -1.00, 262.2, 1012.9)">A</text><text xml:space="preserve" font-family="OtterFont,OtterFont" font-size="56.0" fill="#FEFFFE" transform="matrix(1.00, 0.00, -0.00, -1.00, 298.8, 1012.9)">M</text><text xml:space="preserve" font-family="OtterFont,OtterFont" font-size="56.0" fill="#FEFFFE" transform="matrix(1.00, 0.00, -0.00, -1.00, 338.2, 1012.9)">E</text><text xml:space="preserve" font-family="OtterFont,OtterFont" font-size="56.0" fill="#FEFFFE" transform="matrix(1.00, 0.00, -0.00, -1.00, 374.6, 1012.9)">W</text><text xml:space="preserve" font-family="OtterFont,OtterFont" font-size="56.0" fill="#FEFFFE" transform="matrix(1.00, 0.00, -0.00, -1.00, 420.2, 1012.9)">O</text><text xml:space="preserve" font-family="OtterFont,OtterFont" font-size="56.0" fill="#FEFFFE" transform="matrix(1.00, 0.00, -0.00, -1.00, 454.5, 1012.9)">R</text><text xml:space="preserve" font-family="OtterFont,OtterFont" font-size="56.0" fill="#FEFFFE" transform="matrix(1.00, 0.00, -0.00, -1.00, 496.2, 1012.9)">K</text></g></g><g><clipPath id="clip0x6100006be480"><path d="M 1261.8 979.0 L 1963.8 979.0 L 1963.8 1081.0 L 1261.8 1081.0 Z M 1261.8 979.0 "></path></clipPath><g clip-path="url(#clip0x6100006be480)"><path d="M 1307.0 980.0 L 1306.8 980.0 L 1262.8 1030.0 L 1306.8 1080.0 L 1306.8 1080.0 L 1918.8 1080.0 L 1918.8 1080.0 L 1962.8 1030.0 L 1918.8 980.0 L 1918.8 980.0 Z M 1306.8 980.0 " fill="#8E44AD"></path></g></g><g><clipPath id="clip0x6100006be6c0"><path d="M 1262.8 980.0 L 1962.8 980.0 L 1962.8 1080.0 L 1262.8 1080.0 Z M 1262.8 980.0 "></path></clipPath><g clip-path="url(#clip0x6100006be6c0)"><text xml:space="preserve" font-family="OtterFont,OtterFont" font-size="56.0" fill="#FEFFFE" transform="matrix(1.00, 0.00, -0.00, -1.00, 1412.0, 1012.9)"> </text><text xml:space="preserve" font-family="OtterFont,OtterFont" font-size="56.0" fill="#FEFFFE" transform="matrix(1.00, 0.00, -0.00, -1.00, 1444.4, 1012.9)"> </text><text xml:space="preserve" font-family="OtterFont,OtterFont" font-size="54.0" fill="#FEFFFE" transform="matrix(1.00, 0.00, -0.00, -1.00, 1476.9, 1012.9)">F</text><text xml:space="preserve" font-family="OtterFont,OtterFont" font-size="54.0" fill="#FEFFFE" transform="matrix(1.00, 0.00, -0.00, -1.00, 1510.1, 1012.9)">R</text><text xml:space="preserve" font-family="OtterFont,OtterFont" font-size="54.0" fill="#FEFFFE" transform="matrix(1.00, 0.00, -0.00, -1.00, 1550.3, 1012.9)">A</text><text xml:space="preserve" font-family="OtterFont,OtterFont" font-size="54.0" fill="#FEFFFE" transform="matrix(1.00, 0.00, -0.00, -1.00, 1585.5, 1012.9)">M</text><text xml:space="preserve" font-family="OtterFont,OtterFont" font-size="54.0" fill="#FEFFFE" transform="matrix(1.00, 0.00, -0.00, -1.00, 1623.5, 1012.9)">E</text><text xml:space="preserve" font-family="OtterFont,OtterFont" font-size="54.0" fill="#FEFFFE" transform="matrix(1.00, 0.00, -0.00, -1.00, 1658.7, 1012.9)">W</text><text xml:space="preserve" font-family="OtterFont,OtterFont" font-size="54.0" fill="#FEFFFE" transform="matrix(1.00, 0.00, -0.00, -1.00, 1702.6, 1012.9)">O</text><text xml:space="preserve" font-family="OtterFont,OtterFont" font-size="54.0" fill="#FEFFFE" transform="matrix(1.00, 0.00, -0.00, -1.00, 1735.8, 1012.9)">R</text><text xml:space="preserve" font-family="OtterFont,OtterFont" font-size="54.0" fill="#FEFFFE" transform="matrix(1.00, 0.00, -0.00, -1.00, 1775.9, 1012.9)">K</text></g></g><g><clipPath id="clip0x6100006becc0"><path d="M -0.9 979.0 L 58.3 979.0 L 58.3 1081.0 L -0.9 1081.0 Z M -0.9 979.0 "></path></clipPath><g clip-path="url(#clip0x6100006becc0)"><path d="M 0.0 980.0 L 0.0 980.0 L 0.0 1030.0 L 0.0 1080.0 L 0.0 1080.0 L 57.3 1080.0 L 57.0 1080.0 L 57.0 1030.0 L 57.0 980.0 L 57.0 980.0 Z M 0.1 980.0 " fill="#3498DA"></path></g></g><g><clipPath id="clip0x6100006bef00"><path d="M 609.0 979.0 L 1363.2 979.0 L 1363.2 1081.0 L 609.0 1081.0 Z M 609.0 979.0 "></path></clipPath><g clip-path="url(#clip0x6100006bef00)"><path d="M 654.0 980.0 L 654.0 980.0 L 610.0 1030.0 L 654.0 1080.0 L 654.0 1080.0 L 1318.2 1080.0 L 1318.2 1080.0 L 1362.2 1030.0 L 1318.2 980.0 L 1318.2 980.0 Z M 654.0 980.0 " fill="#2ECC71"></path></g></g><g><clipPath id="clip0x6100006bf140"><path d="M 610.0 980.0 L 1362.2 980.0 L 1362.2 1080.0 L 610.0 1080.0 Z M 610.0 980.0 "></path></clipPath><g clip-path="url(#clip0x6100006bf140)"><text xml:space="preserve" font-family="OtterFont,OtterFont" font-size="56.0" fill="#FEFFFE" transform="matrix(1.00, 0.00, -0.00, -1.00, 713.3, 1012.9)"> </text><text xml:space="preserve" font-family="OtterFont,OtterFont" font-size="56.0" fill="#FEFFFE" transform="matrix(1.00, 0.00, -0.00, -1.00, 745.8, 1012.9)"> </text><text xml:space="preserve" font-family="OtterFont,OtterFont" font-size="56.0" fill="#FEFFFE" transform="matrix(1.00, 0.00, -0.00, -1.00, 778.3, 1012.9)">P</text><text xml:space="preserve" font-family="OtterFont,OtterFont" font-size="56.0" fill="#FEFFFE" transform="matrix(1.00, 0.00, -0.00, -1.00, 812.8, 1012.9)">o</text><text xml:space="preserve" font-family="OtterFont,OtterFont" font-size="56.0" fill="#FEFFFE" transform="matrix(1.00, 0.00, -0.00, -1.00, 847.4, 1012.9)">c</text><text xml:space="preserve" font-family="OtterFont,OtterFont" font-size="56.0" fill="#FEFFFE" transform="matrix(1.00, 0.00, -0.00, -1.00, 885.7, 1012.9)">k</text><text xml:space="preserve" font-family="OtterFont,OtterFont" font-size="56.0" fill="#FEFFFE" transform="matrix(1.00, 0.00, -0.00, -1.00, 922.6, 1012.9)">e</text><text xml:space="preserve" font-family="OtterFont,OtterFont" font-size="56.0" fill="#FEFFFE" transform="matrix(1.00, 0.00, -0.00, -1.00, 951.9, 1012.9)">t</text><text xml:space="preserve" font-family="OtterFont,OtterFont" font-size="56.0" fill="#FEFFFE" transform="matrix(1.00, 0.00, -0.00, -1.00, 984.5, 1012.9)">P</text><text xml:space="preserve" font-family="OtterFont,OtterFont" font-size="56.0" fill="#FEFFFE" transform="matrix(1.00, 0.00, -0.00, -1.00, 1019.0, 1012.9)">a</text><text xml:space="preserve" font-family="OtterFont,OtterFont" font-size="56.0" fill="#FEFFFE" transform="matrix(1.00, 0.00, -0.00, -1.00, 1052.5, 1012.9)">r</text><text xml:space="preserve" font-family="OtterFont,OtterFont" font-size="56.0" fill="#FEFFFE" transform="matrix(1.00, 0.00, -0.00, -1.00, 1088.6, 1012.9)">k</text><text xml:space="preserve" font-family="OtterFont,OtterFont" font-size="56.0" fill="#FEFFFE" transform="matrix(1.00, 0.00, -0.00, -1.00, 1125.5, 1012.9)"> </text><text xml:space="preserve" font-family="OtterFont,OtterFont" font-size="56.0" fill="#FEFFFE" transform="matrix(1.00, 0.00, -0.00, -1.00, 1158.0, 1012.9)">A</text><text xml:space="preserve" font-family="OtterFont,OtterFont" font-size="56.0" fill="#FEFFFE" transform="matrix(1.00, 0.00, -0.00, -1.00, 1194.6, 1012.9)">p</text><text xml:space="preserve" font-family="OtterFont,OtterFont" font-size="56.0" fill="#FEFFFE" transform="matrix(1.00, 0.00, -0.00, -1.00, 1226.7, 1012.9)">p</text></g></g><g><clipPath id="clip0x6100006bf920"><path d="M 9.7 979.0 L 711.7 979.0 L 711.7 1081.0 L 9.7 1081.0 Z M 9.7 979.0 "></path></clipPath><g clip-path="url(#clip0x6100006bf920)"><path d="M 55.0 980.0 L 54.7 980.0 L 10.7 1030.0 L 54.7 1080.0 L 54.7 1080.0 L 666.7 1080.0 L 666.7 1080.0 L 710.7 1030.0 L 666.7 980.0 L 666.7 980.0 Z M 54.7 980.0 " fill="#3498DA"></path></g></g><g><clipPath id="clip0x6100006bfb60"><path d="M 10.7 980.0 L 710.7 980.0 L 710.7 1080.0 L 10.7 1080.0 Z M 10.7 980.0 "></path></clipPath><g clip-path="url(#clip0x6100006bfb60)"><text xml:space="preserve" font-family="OtterFont,OtterFont" font-size="56.0" fill="#FEFFFE" transform="matrix(1.00, 0.00, -0.00, -1.00, 109.7, 1012.9)">I</text><text xml:space="preserve" font-family="OtterFont,OtterFont" font-size="56.0" fill="#FEFFFE" transform="matrix(1.00, 0.00, -0.00, -1.00, 151.8, 1012.9)">N</text><text xml:space="preserve" font-family="OtterFont,OtterFont" font-size="56.0" fill="#FEFFFE" transform="matrix(1.00, 0.00, -0.00, -1.00, 187.8, 1012.9)">S</text><text xml:space="preserve" font-family="OtterFont,OtterFont" font-size="56.0" fill="#FEFFFE" transform="matrix(1.00, 0.00, -0.00, -1.00, 228.1, 1012.9)">T</text><text xml:space="preserve" font-family="OtterFont,OtterFont" font-size="56.0" fill="#FEFFFE" transform="matrix(1.00, 0.00, -0.00, -1.00, 270.6, 1012.9)">A</text><text xml:space="preserve" font-family="OtterFont,OtterFont" font-size="56.0" fill="#FEFFFE" transform="matrix(1.00, 0.00, -0.00, -1.00, 307.1, 1012.9)">L</text><text xml:space="preserve" font-family="OtterFont,OtterFont" font-size="56.0" fill="#FEFFFE" transform="matrix(1.00, 0.00, -0.00, -1.00, 343.6, 1012.9)">L</text><text xml:space="preserve" font-family="OtterFont,OtterFont" font-size="56.0" fill="#FEFFFE" transform="matrix(1.00, 0.00, -0.00, -1.00, 380.0, 1012.9)">A</text><text xml:space="preserve" font-family="OtterFont,OtterFont" font-size="56.0" fill="#FEFFFE" transform="matrix(1.00, 0.00, -0.00, -1.00, 416.6, 1012.9)">T</text><text xml:space="preserve" font-family="OtterFont,OtterFont" font-size="56.0" fill="#FEFFFE" transform="matrix(1.00, 0.00, -0.00, -1.00, 459.1, 1012.9)">I</text><text xml:space="preserve" font-family="OtterFont,OtterFont" font-size="56.0" fill="#FEFFFE" transform="matrix(1.00, 0.00, -0.00, -1.00, 501.2, 1012.9)">O</text><text xml:space="preserve" font-family="OtterFont,OtterFont" font-size="56.0" fill="#FEFFFE" transform="matrix(1.00, 0.00, -0.00, -1.00, 535.5, 1012.9)">N</text><text xml:space="preserve" font-family="OtterFont,OtterFont" font-size="56.0" fill="#FEFFFE" transform="matrix(1.00, 0.00, -0.00, -1.00, 571.5, 1012.9)">S</text></g></g><g opacity="0.35"><g><clipPath id="clip0x6100008a02a0"><path d="M 0.0 978.0 L 1364.0 978.0 L 1364.0 1080.0 L 0.0 1080.0 Z M 0.0 978.0 "></path></clipPath><g clip-path="url(#clip0x6100008a02a0)"><path d="M -14.0 980.0 L -14.3 980.0 L -58.3 1030.0 L -14.3 1080.0 L -14.3 1080.0 L 1318.2 1080.0 L 1318.2 1080.0 L 1362.2 1030.0 L 1318.2 980.0 L 1318.2 980.0 Z M -14.3 980.0 " fill="#000000"></path></g></g></g></g></svg>