<?xml version="1.0" encoding="UTF-8" standalone="no"?><svg xmlns="http://www.w3.org/2000/svg" xmlns:xlink="http://www.w3.org/1999/xlink" clip-rule="evenodd" stroke-miterlimit="10" viewBox="0 0 1920 1080"><desc>SVG generated by Keynote</desc><defs></defs><g transform="matrix(1.00, 0.00, -0.00, -1.00, 0.0, 1080.0)"><path d="M 0.0 1080.0 L 1920.0 1080.0 L 1920.0 0.0 L 0.0 0.0 Z M 0.0 1080.0 " fill="#2ECC71"></path><g><clipPath id="clip0x6180008ac6c0"><path d="M 571.2 1018.5 L 1376.3 1018.5 L 1376.3 212.9 L 571.2 212.9 Z M 571.2 1018.5 "></path></clipPath><g clip-path="url(#clip0x6180008ac6c0)"><g><clipPath id="clip0x6180008af4e0"><path d="M 701.0 328.0 L 1219.0 328.0 L 1219.0 907.0 L 701.0 907.0 Z M 701.0 328.0 "></path></clipPath><g clip-path="url(#clip0x6180008af4e0)"><path d="M 788.4 836.3 C 798.7 836.3 807.0 828.0 807.0 817.7 C 807.0 807.4 798.7 799.1 788.4 799.1 C 778.1 799.1 769.8 807.4 769.8 817.7 C 769.8 828.0 778.1 836.3 788.4 836.3 " fill="#FFFFFF"></path><path d="M 740.8 767.4 C 751.1 767.4 759.4 759.1 759.4 748.8 C 759.4 738.5 751.1 730.2 740.8 730.2 C 730.5 730.2 722.2 738.5 722.2 748.8 C 722.2 759.1 730.5 767.4 740.8 767.4 " fill="#FFFFFF"></path><path d="M 719.6 686.3 C 729.9 686.3 738.2 678.0 738.2 667.7 C 738.2 657.4 729.9 649.1 719.6 649.1 C 709.3 649.1 701.0 657.4 701.0 667.7 C 701.0 678.0 709.3 686.3 719.6 686.3 " fill="#FFFFFF"></path><path d="M 727.4 602.9 C 737.7 602.9 746.0 594.5 746.0 584.3 C 746.0 574.0 737.7 565.6 727.4 565.6 C 717.1 565.6 708.8 574.0 708.8 584.3 C 708.8 594.5 717.1 602.9 727.4 602.9 " fill="#FFFFFF"></path><path d="M 763.3 527.1 C 773.5 527.1 781.9 518.8 781.9 508.5 C 781.9 498.2 773.5 489.9 763.3 489.9 C 753.0 489.9 744.7 498.2 744.7 508.5 C 744.7 518.8 753.0 527.1 763.3 527.1 " fill="#FFFFFF"></path><path d="M 822.9 468.2 C 833.1 468.2 841.5 459.9 841.5 449.6 C 841.5 439.3 833.1 431.0 822.9 431.0 C 812.6 431.0 804.3 439.3 804.3 449.6 C 804.3 459.9 812.6 468.2 822.9 468.2 " fill="#FFFFFF"></path><path d="M 982.5 426.4 C 992.8 426.4 1001.1 418.1 1001.1 407.8 C 1001.1 397.5 992.8 389.2 982.5 389.2 C 972.2 389.2 963.9 397.5 963.9 407.8 C 963.9 418.1 972.2 426.4 982.5 426.4 " fill="#FFFFFF"></path><path d="M 1063.3 448.6 C 1073.5 448.6 1081.9 440.3 1081.9 430.0 C 1081.9 419.7 1073.5 411.4 1063.3 411.4 C 1053.0 411.4 1044.7 419.7 1044.7 430.0 C 1044.7 440.3 1053.0 448.6 1063.3 448.6 " fill="#FFFFFF"></path><path d="M 1131.6 497.1 C 1141.9 497.1 1150.2 488.8 1150.2 478.5 C 1150.2 468.2 1141.9 459.9 1131.6 459.9 C 1121.3 459.9 1113.0 468.2 1113.0 478.5 C 1113.0 488.8 1121.3 497.1 1131.6 497.1 " fill="#FFFFFF"></path><path d="M 1179.2 566.1 C 1189.5 566.1 1197.8 557.7 1197.8 547.5 C 1197.8 537.2 1189.5 528.8 1179.2 528.8 C 1168.9 528.8 1160.6 537.2 1160.6 547.5 C 1160.6 557.7 1168.9 566.1 1179.2 566.1 " fill="#FFFFFF"></path><path d="M 1214.7 640.5 C 1208.0 648.4 1196.3 649.4 1188.4 642.8 C 1180.6 636.2 1179.5 624.5 1186.1 616.6 C 1192.8 608.7 1204.5 607.7 1212.4 614.3 C 1220.2 620.9 1221.3 632.6 1214.7 640.5 " fill="#FFFFFF"></path><path d="M 1183.3 695.9 C 1192.2 690.7 1203.6 693.8 1208.7 702.7 C 1213.8 711.6 1210.8 723.0 1201.9 728.1 C 1193.0 733.3 1181.6 730.2 1176.5 721.3 C 1171.3 712.4 1174.4 701.0 1183.3 695.9 " fill="#FFFFFF"></path><path d="M 1156.7 806.3 C 1167.0 806.3 1175.3 798.0 1175.3 787.7 C 1175.3 777.4 1167.0 769.1 1156.7 769.1 C 1146.4 769.1 1138.1 777.4 1138.1 787.7 C 1138.1 798.0 1146.4 806.3 1156.7 806.3 " fill="#FFFFFF"></path><path d="M 1097.1 865.3 C 1107.4 865.3 1115.7 856.9 1115.7 846.6 C 1115.7 836.4 1107.4 828.0 1097.1 828.0 C 1086.9 828.0 1078.5 836.4 1078.5 846.6 C 1078.5 856.9 1086.9 865.3 1097.1 865.3 " fill="#FFFFFF"></path><path d="M 1030.3 865.5 C 1039.2 870.6 1042.3 882.0 1037.1 890.9 C 1032.0 899.8 1020.6 902.9 1011.7 897.7 C 1002.8 892.6 999.8 881.2 1004.9 872.3 C 1010.0 863.4 1021.4 860.3 1030.3 865.5 " fill="#FFFFFF"></path><path d="M 937.5 907.0 C 947.8 907.0 956.1 898.7 956.1 888.4 C 956.1 878.1 947.8 869.8 937.5 869.8 C 927.3 869.8 918.9 878.1 918.9 888.4 C 918.9 898.7 927.3 907.0 937.5 907.0 " fill="#FFFFFF"></path><path d="M 850.4 848.7 C 860.1 845.2 870.7 850.2 874.2 859.8 C 877.7 869.5 872.8 880.2 863.1 883.7 C 853.5 887.2 842.8 882.3 839.3 872.6 C 835.7 862.9 840.7 852.2 850.4 848.7 " fill="#FFFFFF"></path><path d="M 903.8 619.8 L 771.1 552.5 C 772.0 550.6 773.0 548.8 774.0 546.9 L 904.7 618.2 C 904.4 618.7 904.1 619.3 903.8 619.8 " fill="#FFFFFF"></path><path d="M 898.3 660.3 L 752.2 688.7 C 751.8 686.6 751.4 684.5 751.1 682.4 L 898.0 658.4 C 898.1 659.1 898.2 659.7 898.3 660.3 " fill="#FFFFFF"></path><path d="M 916.2 603.0 L 812.2 496.5 C 813.7 495.0 815.3 493.5 816.9 492.0 L 917.4 601.8 C 917.0 602.2 916.6 602.6 916.2 603.0 " fill="#FFFFFF"></path><path d="M 897.7 639.5 L 750.3 619.2 C 750.6 617.1 750.9 615.0 751.2 613.0 L 898.0 637.5 C 897.9 638.2 897.8 638.8 897.7 639.5 " fill="#FFFFFF"></path><path d="M 956.4 710.9 L 948.3 859.6 C 946.2 859.5 944.1 859.4 942.0 859.2 L 954.5 710.8 C 955.1 710.8 955.8 710.9 956.4 710.9 " fill="#FFFFFF"></path><path d="M 869.4 456.7 C 871.3 455.7 873.2 454.9 875.2 454.0 L 934.8 590.4 C 934.3 590.7 933.7 591.0 933.1 591.2 Z M 869.4 456.7 " fill="#FFFFFF"></path><path d="M 874.4 841.9 L 934.6 705.7 C 935.2 705.9 935.8 706.2 936.4 706.4 L 880.2 844.3 C 878.2 843.6 876.3 842.7 874.4 841.9 " fill="#FFFFFF"></path><path d="M 1018.8 625.9 L 1158.1 573.4 C 1158.9 575.4 1159.6 577.4 1160.3 579.4 L 1019.5 627.7 C 1019.3 627.1 1019.1 626.5 1018.8 625.9 " fill="#FFFFFF"></path><path d="M 995.7 699.9 L 1080.5 822.3 C 1078.8 823.5 1077.0 824.7 1075.3 825.8 L 994.1 701.0 C 994.7 700.6 995.2 700.2 995.7 699.9 " fill="#FFFFFF"></path><path d="M 1010.6 685.4 L 1130.4 773.8 C 1129.2 775.5 1127.9 777.2 1126.6 778.9 L 1009.5 686.9 C 1009.9 686.4 1010.3 685.9 1010.6 685.4 " fill="#FFFFFF"></path><path d="M 1017.3 852.1 C 1015.3 852.6 1013.3 853.2 1011.3 853.7 L 975.3 709.2 C 975.9 709.0 976.6 708.8 977.2 708.6 Z M 1017.3 852.1 " fill="#FFFFFF"></path><path d="M 1020.0 667.1 L 1162.0 711.6 C 1161.4 713.7 1160.7 715.7 1160.0 717.8 L 1019.4 668.7 C 1019.6 668.2 1019.8 667.6 1020.0 667.1 " fill="#FFFFFF"></path><path d="M 918.8 695.6 L 820.9 807.8 C 819.3 806.4 817.8 805.0 816.3 803.6 L 917.3 694.2 C 917.8 694.7 918.3 695.2 918.8 695.6 " fill="#FFFFFF"></path><path d="M 1022.9 648.1 C 1022.9 647.5 1022.8 646.8 1022.8 646.2 L 1171.6 641.8 C 1171.7 643.9 1171.7 646.0 1171.7 648.1 L 1171.7 648.7 L 1022.9 648.7 Z M 1022.9 648.1 " fill="#FFFFFF"></path><path d="M 1008.6 608.2 L 1123.0 512.9 C 1124.4 514.6 1125.8 516.4 1127.1 518.1 L 1009.6 609.5 C 1009.3 609.0 1008.9 608.6 1008.6 608.2 " fill="#FFFFFF"></path><path d="M 992.7 594.4 L 1070.7 467.5 C 1072.4 468.6 1074.2 469.7 1075.9 470.9 L 994.4 595.5 C 993.8 595.1 993.2 594.7 992.7 594.4 " fill="#FFFFFF"></path><path d="M 905.5 679.6 L 776.7 754.1 C 775.6 752.3 774.6 750.4 773.6 748.5 L 904.6 677.9 C 904.9 678.4 905.2 679.0 905.5 679.6 " fill="#FFFFFF"></path><path d="M 906.0 397.5 C 906.8 397.8 907.5 398.1 908.3 398.5 C 917.2 403.6 920.2 415.0 915.1 423.9 C 914.6 424.8 914.0 425.6 913.4 426.4 L 914.5 430.7 C 929.2 427.6 944.4 426.0 960.0 426.0 C 975.8 426.0 991.2 427.6 1006.1 430.8 L 1024.5 358.2 L 896.0 358.2 Z M 942.9 437.0 L 954.7 585.4 C 954.4 585.5 954.2 585.5 953.9 585.5 L 960.3 610.6 L 1004.0 438.8 C 989.8 435.8 975.1 434.2 960.0 434.2 C 945.1 434.2 930.6 435.8 916.5 438.7 L 952.3 579.4 L 936.4 437.6 C 938.5 437.4 940.7 437.2 942.9 437.0 M 746.3 648.1 C 746.3 766.1 842.1 862.0 960.0 862.0 C 1077.9 862.0 1173.7 766.1 1173.7 648.1 C 1173.7 549.6 1106.8 466.5 1016.1 441.8 L 966.4 636.7 C 970.4 638.9 973.2 643.2 973.2 648.1 C 973.2 655.4 967.3 661.3 960.0 661.3 C 952.7 661.3 946.8 655.4 946.8 648.1 C 946.8 643.0 949.8 638.6 954.1 636.4 L 904.5 441.6 C 813.4 466.2 746.3 549.4 746.3 648.1 M 1018.1 433.8 C 1112.4 459.4 1182.0 545.7 1182.0 648.1 C 1182.0 770.6 1082.4 870.3 960.0 870.3 C 837.6 870.3 738.0 770.6 738.0 648.1 C 738.0 545.6 807.8 459.0 902.4 433.6 L 902.2 432.9 C 898.1 433.6 893.6 433.0 889.7 430.8 C 880.8 425.6 877.7 414.2 882.9 405.3 C 885.2 401.2 888.9 398.5 893.1 397.1 L 883.2 358.2 L 852.6 358.2 L 852.6 328.0 L 1068.9 328.0 L 1068.9 358.2 L 1037.3 358.2 Z M 1018.1 433.8 " fill="#FFFFFF"></path></g></g></g></g><text xml:space="preserve" font-family="OtterFont,OtterFont" font-size="108.0" fill="#FEFFFF" transform="matrix(1.00, 0.00, -0.00, -1.00, 185.3, 99.1)">T</text><text xml:space="preserve" font-family="OtterFont,OtterFont" font-size="108.0" fill="#FEFFFF" transform="matrix(1.00, 0.00, -0.00, -1.00, 267.2, 99.1)">H</text><text xml:space="preserve" font-family="OtterFont,OtterFont" font-size="108.0" fill="#FEFFFF" transform="matrix(1.00, 0.00, -0.00, -1.00, 338.1, 99.1)">E</text><text xml:space="preserve" font-family="OtterFont,OtterFont" font-size="108.0" fill="#FEFFFF" transform="matrix(1.00, 0.00, -0.00, -1.00, 408.4, 99.1)">M</text><text xml:space="preserve" font-family="OtterFont,OtterFont" font-size="108.0" fill="#FEFFFF" transform="matrix(1.00, 0.00, -0.00, -1.00, 484.5, 99.1)">E</text><text xml:space="preserve" font-family="OtterFont,OtterFont" font-size="108.0" fill="#FEFFFF" transform="matrix(1.00, 0.00, -0.00, -1.00, 554.8, 99.1)"> </text><text xml:space="preserve" font-family="OtterFont,OtterFont" font-size="108.0" fill="#FEFFFF" transform="matrix(1.00, 0.00, -0.00, -1.00, 617.4, 99.1)">P</text><text xml:space="preserve" font-family="OtterFont,OtterFont" font-size="108.0" fill="#FEFFFF" transform="matrix(1.00, 0.00, -0.00, -1.00, 684.0, 99.1)">A</text><text xml:space="preserve" font-family="OtterFont,OtterFont" font-size="108.0" fill="#FEFFFF" transform="matrix(1.00, 0.00, -0.00, -1.00, 754.6, 99.1)">R</text><text xml:space="preserve" font-family="OtterFont,OtterFont" font-size="108.0" fill="#FEFFFF" transform="matrix(1.00, 0.00, -0.00, -1.00, 834.8, 99.1)">K</text><text xml:space="preserve" font-family="OtterFont,OtterFont" font-size="108.0" fill="#FEFFFF" transform="matrix(1.00, 0.00, -0.00, -1.00, 910.4, 99.1)"> </text><text xml:space="preserve" font-family="OtterFont,OtterFont" font-size="108.0" fill="#FEFFFF" transform="matrix(1.00, 0.00, -0.00, -1.00, 973.1, 99.1)">O</text><text xml:space="preserve" font-family="OtterFont,OtterFont" font-size="108.0" fill="#FEFFFF" transform="matrix(1.00, 0.00, -0.00, -1.00, 1039.3, 99.1)">F</text><text xml:space="preserve" font-family="OtterFont,OtterFont" font-size="108.0" fill="#FEFFFF" transform="matrix(1.00, 0.00, -0.00, -1.00, 1105.7, 99.1)"> </text><text xml:space="preserve" font-family="OtterFont,OtterFont" font-size="108.0" fill="#FEFFFF" transform="matrix(1.00, 0.00, -0.00, -1.00, 1168.3, 99.1)">E</text><text xml:space="preserve" font-family="OtterFont,OtterFont" font-size="108.0" fill="#FEFFFF" transform="matrix(1.00, 0.00, -0.00, -1.00, 1238.6, 99.1)">V</text><text xml:space="preserve" font-family="OtterFont,OtterFont" font-size="108.0" fill="#FEFFFF" transform="matrix(1.00, 0.00, -0.00, -1.00, 1306.6, 99.1)">E</text><text xml:space="preserve" font-family="OtterFont,OtterFont" font-size="108.0" fill="#FEFFFF" transform="matrix(1.00, 0.00, -0.00, -1.00, 1376.9, 99.1)">R</text><text xml:space="preserve" font-family="OtterFont,OtterFont" font-size="108.0" fill="#FEFFFF" transform="matrix(1.00, 0.00, -0.00, -1.00, 1457.1, 99.1)">Y</text><text xml:space="preserve" font-family="OtterFont,OtterFont" font-size="108.0" fill="#FEFFFF" transform="matrix(1.00, 0.00, -0.00, -1.00, 1520.6, 99.1)">D</text><text xml:space="preserve" font-family="OtterFont,OtterFont" font-size="108.0" fill="#FEFFFF" transform="matrix(1.00, 0.00, -0.00, -1.00, 1599.7, 99.1)">A</text><text xml:space="preserve" font-family="OtterFont,OtterFont" font-size="108.0" fill="#FEFFFF" transform="matrix(1.00, 0.00, -0.00, -1.00, 1670.2, 99.1)">Y</text></g></svg>