<?xml version="1.0" encoding="UTF-8" standalone="no"?><svg xmlns="http://www.w3.org/2000/svg" xmlns:xlink="http://www.w3.org/1999/xlink" clip-rule="evenodd" stroke-miterlimit="10" viewBox="0 0 1920 1080"><desc>SVG generated by Keynote</desc><defs></defs><g transform="matrix(1.00, 0.00, -0.00, -1.00, 0.0, 1080.0)"><path d="M 0.0 1080.0 L 1920.0 1080.0 L 1920.0 0.0 L 0.0 0.0 Z M 0.0 1080.0 " fill="#2ECC71"></path><image xlink:href="../../54D8652C-B24D-4CB6-82A8-05DAC007D88A/assets/E9F6837CA6C45F0F3A34F4A2B054650D.png" width="405.00" height="720.00" transform="matrix(1.51, 0.00, -0.00, -1.51, 135.5, 892.2)"></image><image xlink:href="../../3AF40B33-2589-428F-9BA4-CCF0B2C23AC4/assets/77710E1F75DA989D3AE83021902BB21D.png" width="869.00" height="1764.00" transform="matrix(0.81, 0.00, -0.00, -0.82, 86.0, 1067.0)"></image><g><clipPath id="clip0x600000cadec0"><path d="M 975.2 1061.5 L 1780.3 1061.5 L 1780.3 255.9 L 975.2 255.9 Z M 975.2 1061.5 "></path></clipPath><g clip-path="url(#clip0x600000cadec0)"><g><clipPath id="clip0x600000cadf20"><path d="M 1105.0 371.0 L 1623.0 371.0 L 1623.0 950.0 L 1105.0 950.0 Z M 1105.0 371.0 "></path></clipPath><g clip-path="url(#clip0x600000cadf20)"><path d="M 1192.4 879.3 C 1202.7 879.3 1211.0 871.0 1211.0 860.7 C 1211.0 850.4 1202.7 842.1 1192.4 842.1 C 1182.1 842.1 1173.8 850.4 1173.8 860.7 C 1173.8 871.0 1182.1 879.3 1192.4 879.3 " fill="#FFFFFF"></path><path d="M 1144.8 810.4 C 1155.1 810.4 1163.4 802.1 1163.4 791.8 C 1163.4 781.5 1155.1 773.2 1144.8 773.2 C 1134.5 773.2 1126.2 781.5 1126.2 791.8 C 1126.2 802.1 1134.5 810.4 1144.8 810.4 " fill="#FFFFFF"></path><path d="M 1123.6 729.3 C 1133.9 729.3 1142.2 721.0 1142.2 710.7 C 1142.2 700.4 1133.9 692.1 1123.6 692.1 C 1113.3 692.1 1105.0 700.4 1105.0 710.7 C 1105.0 721.0 1113.3 729.3 1123.6 729.3 " fill="#FFFFFF"></path><path d="M 1131.4 645.9 C 1141.7 645.9 1150.0 637.5 1150.0 627.3 C 1150.0 617.0 1141.7 608.6 1131.4 608.6 C 1121.1 608.6 1112.8 617.0 1112.8 627.3 C 1112.8 637.5 1121.1 645.9 1131.4 645.9 " fill="#FFFFFF"></path><path d="M 1167.3 570.1 C 1177.5 570.1 1185.9 561.8 1185.9 551.5 C 1185.9 541.2 1177.5 532.9 1167.3 532.9 C 1157.0 532.9 1148.7 541.2 1148.7 551.5 C 1148.7 561.8 1157.0 570.1 1167.3 570.1 " fill="#FFFFFF"></path><path d="M 1226.9 511.2 C 1237.1 511.2 1245.5 502.9 1245.5 492.6 C 1245.5 482.3 1237.1 474.0 1226.9 474.0 C 1216.6 474.0 1208.3 482.3 1208.3 492.6 C 1208.3 502.9 1216.6 511.2 1226.9 511.2 " fill="#FFFFFF"></path><path d="M 1386.5 469.4 C 1396.8 469.4 1405.1 461.1 1405.1 450.8 C 1405.1 440.5 1396.8 432.2 1386.5 432.2 C 1376.2 432.2 1367.9 440.5 1367.9 450.8 C 1367.9 461.1 1376.2 469.4 1386.5 469.4 " fill="#FFFFFF"></path><path d="M 1467.3 491.6 C 1477.5 491.6 1485.9 483.3 1485.9 473.0 C 1485.9 462.7 1477.5 454.4 1467.3 454.4 C 1457.0 454.4 1448.7 462.7 1448.7 473.0 C 1448.7 483.3 1457.0 491.6 1467.3 491.6 " fill="#FFFFFF"></path><path d="M 1535.6 540.1 C 1545.9 540.1 1554.2 531.8 1554.2 521.5 C 1554.2 511.2 1545.9 502.9 1535.6 502.9 C 1525.3 502.9 1517.0 511.2 1517.0 521.5 C 1517.0 531.8 1525.3 540.1 1535.6 540.1 " fill="#FFFFFF"></path><path d="M 1583.2 609.1 C 1593.5 609.1 1601.8 600.7 1601.8 590.5 C 1601.8 580.2 1593.5 571.8 1583.2 571.8 C 1572.9 571.8 1564.6 580.2 1564.6 590.5 C 1564.6 600.7 1572.9 609.1 1583.2 609.1 " fill="#FFFFFF"></path><path d="M 1618.7 683.5 C 1612.0 691.4 1600.3 692.4 1592.4 685.8 C 1584.6 679.2 1583.5 667.5 1590.1 659.6 C 1596.8 651.7 1608.5 650.7 1616.4 657.3 C 1624.2 663.9 1625.3 675.6 1618.7 683.5 " fill="#FFFFFF"></path><path d="M 1587.3 738.9 C 1596.2 733.7 1607.6 736.8 1612.7 745.7 C 1617.8 754.6 1614.8 766.0 1605.9 771.1 C 1597.0 776.3 1585.6 773.2 1580.5 764.3 C 1575.3 755.4 1578.4 744.0 1587.3 738.9 " fill="#FFFFFF"></path><path d="M 1560.7 849.3 C 1571.0 849.3 1579.3 841.0 1579.3 830.7 C 1579.3 820.4 1571.0 812.1 1560.7 812.1 C 1550.4 812.1 1542.1 820.4 1542.1 830.7 C 1542.1 841.0 1550.4 849.3 1560.7 849.3 " fill="#FFFFFF"></path><path d="M 1501.1 908.3 C 1511.4 908.3 1519.7 899.9 1519.7 889.6 C 1519.7 879.4 1511.4 871.0 1501.1 871.0 C 1490.9 871.0 1482.5 879.4 1482.5 889.6 C 1482.5 899.9 1490.9 908.3 1501.1 908.3 " fill="#FFFFFF"></path><path d="M 1434.3 908.5 C 1443.2 913.6 1446.3 925.0 1441.1 933.9 C 1436.0 942.8 1424.6 945.9 1415.7 940.7 C 1406.8 935.6 1403.8 924.2 1408.9 915.3 C 1414.0 906.4 1425.4 903.3 1434.3 908.5 " fill="#FFFFFF"></path><path d="M 1341.5 950.0 C 1351.8 950.0 1360.1 941.7 1360.1 931.4 C 1360.1 921.1 1351.8 912.8 1341.5 912.8 C 1331.3 912.8 1322.9 921.1 1322.9 931.4 C 1322.9 941.7 1331.3 950.0 1341.5 950.0 " fill="#FFFFFF"></path><path d="M 1254.4 891.7 C 1264.1 888.2 1274.7 893.2 1278.2 902.8 C 1281.7 912.5 1276.8 923.2 1267.1 926.7 C 1257.5 930.2 1246.8 925.3 1243.3 915.6 C 1239.7 905.9 1244.7 895.2 1254.4 891.7 " fill="#FFFFFF"></path><path d="M 1307.8 662.8 L 1175.1 595.5 C 1176.0 593.6 1177.0 591.8 1178.0 589.9 L 1308.7 661.2 C 1308.4 661.7 1308.1 662.3 1307.8 662.8 " fill="#FFFFFF"></path><path d="M 1302.3 703.3 L 1156.2 731.7 C 1155.8 729.6 1155.4 727.5 1155.1 725.4 L 1302.0 701.4 C 1302.1 702.1 1302.2 702.7 1302.3 703.3 " fill="#FFFFFF"></path><path d="M 1320.2 646.0 L 1216.2 539.5 C 1217.7 538.0 1219.3 536.5 1220.9 535.0 L 1321.4 644.8 C 1321.0 645.2 1320.6 645.6 1320.2 646.0 " fill="#FFFFFF"></path><path d="M 1301.7 682.5 L 1154.3 662.2 C 1154.6 660.1 1154.9 658.0 1155.2 656.0 L 1302.0 680.5 C 1301.9 681.2 1301.8 681.8 1301.7 682.5 " fill="#FFFFFF"></path><path d="M 1360.4 753.9 L 1352.3 902.6 C 1350.2 902.5 1348.1 902.4 1346.0 902.2 L 1358.5 753.8 C 1359.1 753.8 1359.8 753.9 1360.4 753.9 " fill="#FFFFFF"></path><path d="M 1273.4 499.7 C 1275.3 498.7 1277.2 497.9 1279.2 497.0 L 1338.8 633.4 C 1338.3 633.7 1337.7 634.0 1337.1 634.2 Z M 1273.4 499.7 " fill="#FFFFFF"></path><path d="M 1278.4 884.9 L 1338.6 748.7 C 1339.2 748.9 1339.8 749.2 1340.4 749.4 L 1284.2 887.3 C 1282.2 886.6 1280.3 885.7 1278.4 884.9 " fill="#FFFFFF"></path><path d="M 1422.8 668.9 L 1562.1 616.4 C 1562.9 618.4 1563.6 620.4 1564.3 622.4 L 1423.5 670.7 C 1423.3 670.1 1423.1 669.5 1422.8 668.9 " fill="#FFFFFF"></path><path d="M 1399.7 742.9 L 1484.5 865.3 C 1482.8 866.5 1481.0 867.7 1479.3 868.8 L 1398.1 744.0 C 1398.7 743.6 1399.2 743.2 1399.7 742.9 " fill="#FFFFFF"></path><path d="M 1414.6 728.4 L 1534.4 816.8 C 1533.2 818.5 1531.9 820.2 1530.6 821.9 L 1413.5 729.9 C 1413.9 729.4 1414.3 728.9 1414.6 728.4 " fill="#FFFFFF"></path><path d="M 1421.3 895.1 C 1419.3 895.6 1417.3 896.2 1415.3 896.7 L 1379.3 752.2 C 1379.9 752.0 1380.6 751.8 1381.2 751.6 Z M 1421.3 895.1 " fill="#FFFFFF"></path><path d="M 1424.0 710.1 L 1566.0 754.6 C 1565.4 756.7 1564.7 758.7 1564.0 760.8 L 1423.4 711.7 C 1423.6 711.2 1423.8 710.6 1424.0 710.1 " fill="#FFFFFF"></path><path d="M 1322.8 738.6 L 1224.9 850.8 C 1223.3 849.4 1221.8 848.0 1220.3 846.6 L 1321.3 737.2 C 1321.8 737.7 1322.3 738.2 1322.8 738.6 " fill="#FFFFFF"></path><path d="M 1426.9 691.1 C 1426.9 690.5 1426.8 689.8 1426.8 689.2 L 1575.6 684.8 C 1575.7 686.9 1575.7 689.0 1575.7 691.1 L 1575.7 691.7 L 1426.9 691.7 Z M 1426.9 691.1 " fill="#FFFFFF"></path><path d="M 1412.6 651.2 L 1527.0 555.9 C 1528.4 557.6 1529.8 559.4 1531.1 561.1 L 1413.6 652.5 C 1413.3 652.0 1412.9 651.6 1412.6 651.2 " fill="#FFFFFF"></path><path d="M 1396.7 637.4 L 1474.7 510.5 C 1476.4 511.6 1478.2 512.7 1479.9 513.9 L 1398.4 638.5 C 1397.8 638.1 1397.2 637.7 1396.7 637.4 " fill="#FFFFFF"></path><path d="M 1309.5 722.6 L 1180.7 797.1 C 1179.6 795.3 1178.6 793.4 1177.6 791.5 L 1308.6 720.9 C 1308.9 721.4 1309.2 722.0 1309.5 722.6 " fill="#FFFFFF"></path><path d="M 1310.0 440.5 C 1310.8 440.8 1311.5 441.1 1312.3 441.5 C 1321.2 446.6 1324.2 458.0 1319.1 466.9 C 1318.6 467.8 1318.0 468.6 1317.4 469.4 L 1318.5 473.7 C 1333.2 470.6 1348.4 469.0 1364.0 469.0 C 1379.8 469.0 1395.2 470.6 1410.1 473.8 L 1428.5 401.2 L 1300.0 401.2 Z M 1346.9 480.0 L 1358.7 628.4 C 1358.4 628.5 1358.2 628.5 1357.9 628.5 L 1364.3 653.6 L 1408.0 481.8 C 1393.8 478.8 1379.1 477.2 1364.0 477.2 C 1349.1 477.2 1334.6 478.8 1320.5 481.7 L 1356.3 622.4 L 1340.4 480.6 C 1342.5 480.4 1344.7 480.2 1346.9 480.0 M 1150.3 691.1 C 1150.3 809.1 1246.1 905.0 1364.0 905.0 C 1481.9 905.0 1577.7 809.1 1577.7 691.1 C 1577.7 592.6 1510.8 509.5 1420.1 484.8 L 1370.4 679.7 C 1374.4 681.9 1377.2 686.2 1377.2 691.1 C 1377.2 698.4 1371.3 704.3 1364.0 704.3 C 1356.7 704.3 1350.8 698.4 1350.8 691.1 C 1350.8 686.0 1353.8 681.6 1358.1 679.4 L 1308.5 484.6 C 1217.4 509.2 1150.3 592.4 1150.3 691.1 M 1422.1 476.8 C 1516.4 502.4 1586.0 588.7 1586.0 691.1 C 1586.0 813.6 1486.4 913.3 1364.0 913.3 C 1241.6 913.3 1142.0 813.6 1142.0 691.1 C 1142.0 588.6 1211.8 502.0 1306.4 476.6 L 1306.2 475.9 C 1302.1 476.6 1297.6 476.0 1293.7 473.8 C 1284.8 468.6 1281.7 457.2 1286.9 448.3 C 1289.2 444.2 1292.9 441.5 1297.1 440.1 L 1287.2 401.2 L 1256.6 401.2 L 1256.6 371.0 L 1472.9 371.0 L 1472.9 401.2 L 1441.3 401.2 Z M 1422.1 476.8 " fill="#FFFFFF"></path></g></g></g></g><text xml:space="preserve" font-family="OtterFont,OtterFont" font-size="67.0" fill="#FEFFFF" transform="matrix(1.00, 0.00, -0.00, -1.00, 883.3, 240.5)">T</text><text xml:space="preserve" font-family="OtterFont,OtterFont" font-size="67.0" fill="#FEFFFF" transform="matrix(1.00, 0.00, -0.00, -1.00, 934.0, 240.5)">H</text><text xml:space="preserve" font-family="OtterFont,OtterFont" font-size="67.0" fill="#FEFFFF" transform="matrix(1.00, 0.00, -0.00, -1.00, 978.1, 240.5)">E</text><text xml:space="preserve" font-family="OtterFont,OtterFont" font-size="67.0" fill="#FEFFFF" transform="matrix(1.00, 0.00, -0.00, -1.00, 1021.7, 240.5)">M</text><text xml:space="preserve" font-family="OtterFont,OtterFont" font-size="67.0" fill="#FEFFFF" transform="matrix(1.00, 0.00, -0.00, -1.00, 1068.8, 240.5)">E</text><text xml:space="preserve" font-family="OtterFont,OtterFont" font-size="67.0" fill="#FEFFFF" transform="matrix(1.00, 0.00, -0.00, -1.00, 1112.5, 240.5)"> </text><text xml:space="preserve" font-family="OtterFont,OtterFont" font-size="67.0" fill="#FEFFFF" transform="matrix(1.00, 0.00, -0.00, -1.00, 1151.3, 240.5)">P</text><text xml:space="preserve" font-family="OtterFont,OtterFont" font-size="67.0" fill="#FEFFFF" transform="matrix(1.00, 0.00, -0.00, -1.00, 1192.7, 240.5)">A</text><text xml:space="preserve" font-family="OtterFont,OtterFont" font-size="67.0" fill="#FEFFFF" transform="matrix(1.00, 0.00, -0.00, -1.00, 1236.4, 240.5)">R</text><text xml:space="preserve" font-family="OtterFont,OtterFont" font-size="67.0" fill="#FEFFFF" transform="matrix(1.00, 0.00, -0.00, -1.00, 1286.2, 240.5)">K</text><text xml:space="preserve" font-family="OtterFont,OtterFont" font-size="67.0" fill="#FEFFFF" transform="matrix(1.00, 0.00, -0.00, -1.00, 1333.1, 240.5)"> </text><text xml:space="preserve" font-family="OtterFont,OtterFont" font-size="67.0" fill="#FEFFFF" transform="matrix(1.00, 0.00, -0.00, -1.00, 1372.0, 240.5)">O</text><text xml:space="preserve" font-family="OtterFont,OtterFont" font-size="67.0" fill="#FEFFFF" transform="matrix(1.00, 0.00, -0.00, -1.00, 1413.0, 240.5)">F</text><text xml:space="preserve" font-family="OtterFont,OtterFont" font-size="67.0" fill="#FEFFFF" transform="matrix(1.00, 0.00, -0.00, -1.00, 1454.2, 240.5)"> </text><text xml:space="preserve" font-family="OtterFont,OtterFont" font-size="67.0" fill="#FEFFFF" transform="matrix(1.00, 0.00, -0.00, -1.00, 1493.1, 240.5)">E</text><text xml:space="preserve" font-family="OtterFont,OtterFont" font-size="67.0" fill="#FEFFFF" transform="matrix(1.00, 0.00, -0.00, -1.00, 1536.7, 240.5)">V</text><text xml:space="preserve" font-family="OtterFont,OtterFont" font-size="67.0" fill="#FEFFFF" transform="matrix(1.00, 0.00, -0.00, -1.00, 1578.9, 240.5)">E</text><text xml:space="preserve" font-family="OtterFont,OtterFont" font-size="67.0" fill="#FEFFFF" transform="matrix(1.00, 0.00, -0.00, -1.00, 1622.5, 240.5)">R</text><text xml:space="preserve" font-family="OtterFont,OtterFont" font-size="67.0" fill="#FEFFFF" transform="matrix(1.00, 0.00, -0.00, -1.00, 1672.2, 240.5)">Y</text><text xml:space="preserve" font-family="OtterFont,OtterFont" font-size="67.0" fill="#FEFFFF" transform="matrix(1.00, 0.00, -0.00, -1.00, 1711.6, 240.5)">D</text><text xml:space="preserve" font-family="OtterFont,OtterFont" font-size="67.0" fill="#FEFFFF" transform="matrix(1.00, 0.00, -0.00, -1.00, 1760.7, 240.5)">A</text><text xml:space="preserve" font-family="OtterFont,OtterFont" font-size="67.0" fill="#FEFFFF" transform="matrix(1.00, 0.00, -0.00, -1.00, 1804.4, 240.5)">Y</text><path d="M -0.2 -0.0 L 873.8 -0.0 " fill="none" stroke="#FEFFFE" stroke-width="2.00" transform="matrix(1.00, 0.00, 0.00, -1.00, 927.2, 181.0)"></path><text xml:space="preserve" font-family="OtterFont,OtterFont" font-size="67.0" fill="#FEFFFF" transform="matrix(1.00, 0.00, -0.00, -1.00, 979.5, 73.9)">P</text><text xml:space="preserve" font-family="OtterFont,OtterFont" font-size="67.0" fill="#FEFFFF" transform="matrix(1.00, 0.00, -0.00, -1.00, 1020.9, 73.9)">O</text><text xml:space="preserve" font-family="OtterFont,OtterFont" font-size="67.0" fill="#FEFFFF" transform="matrix(1.00, 0.00, -0.00, -1.00, 1061.9, 73.9)">C</text><text xml:space="preserve" font-family="OtterFont,OtterFont" font-size="67.0" fill="#FEFFFF" transform="matrix(1.00, 0.00, -0.00, -1.00, 1108.5, 73.9)">K</text><text xml:space="preserve" font-family="OtterFont,OtterFont" font-size="67.0" fill="#FEFFFF" transform="matrix(1.00, 0.00, -0.00, -1.00, 1155.4, 73.9)">E</text><text xml:space="preserve" font-family="OtterFont,OtterFont" font-size="67.0" fill="#FEFFFF" transform="matrix(1.00, 0.00, -0.00, -1.00, 1199.0, 73.9)">T</text><text xml:space="preserve" font-family="OtterFont,OtterFont" font-size="67.0" fill="#FEFFFF" transform="matrix(1.00, 0.00, -0.00, -1.00, 1249.8, 73.9)">P</text><text xml:space="preserve" font-family="OtterFont,OtterFont" font-size="67.0" fill="#FEFFFF" transform="matrix(1.00, 0.00, -0.00, -1.00, 1291.2, 73.9)">A</text><text xml:space="preserve" font-family="OtterFont,OtterFont" font-size="67.0" fill="#FEFFFF" transform="matrix(1.00, 0.00, -0.00, -1.00, 1334.9, 73.9)">R</text><text xml:space="preserve" font-family="OtterFont,OtterFont" font-size="67.0" fill="#FEFFFF" transform="matrix(1.00, 0.00, -0.00, -1.00, 1384.7, 73.9)">K</text><text xml:space="preserve" font-family="OtterFont,OtterFont" font-size="67.0" fill="#FEFFFF" transform="matrix(1.00, 0.00, -0.00, -1.00, 1431.6, 73.9)"> </text><text xml:space="preserve" font-family="OtterFont,OtterFont" font-size="67.0" fill="#FEFFFF" transform="matrix(1.00, 0.00, -0.00, -1.00, 1470.4, 73.9)">i</text><text xml:space="preserve" font-family="OtterFont,OtterFont" font-size="67.0" fill="#FEFFFF" transform="matrix(1.00, 0.00, -0.00, -1.00, 1493.0, 73.9)">O</text><text xml:space="preserve" font-family="OtterFont,OtterFont" font-size="67.0" fill="#FEFFFF" transform="matrix(1.00, 0.00, -0.00, -1.00, 1534.1, 73.9)">S</text><text xml:space="preserve" font-family="OtterFont,OtterFont" font-size="67.0" fill="#FEFFFF" transform="matrix(1.00, 0.00, -0.00, -1.00, 1582.3, 73.9)"> </text><text xml:space="preserve" font-family="OtterFont,OtterFont" font-size="67.0" fill="#FEFFFF" transform="matrix(1.00, 0.00, -0.00, -1.00, 1621.1, 73.9)">A</text><text xml:space="preserve" font-family="OtterFont,OtterFont" font-size="67.0" fill="#FEFFFF" transform="matrix(1.00, 0.00, -0.00, -1.00, 1664.9, 73.9)">P</text><text xml:space="preserve" font-family="OtterFont,OtterFont" font-size="67.0" fill="#FEFFFF" transform="matrix(1.00, 0.00, -0.00, -1.00, 1706.2, 73.9)">P</text></g></svg>